<svg id="Layer_1" data-name="Layer 1" xmlns="http://www.w3.org/2000/svg" width="70" height="70" viewBox="0 0 70 70">
  <title>geocoding_reversed</title>
  <path d="M34.65,12.5c9.46,0,17.45,6.91,18.2,15.73l0,.36L53,29c0,.12,0,.48,0,.74,0,11.17-6,17.81-18.45,27.43-12-8.42-17.12-15.25-18.1-24.29v-.08a24.44,24.44,0,0,1-.12-3.06c0-9.49,8.23-17.22,18.34-17.22m0-5c-12.79,0-23.34,9.92-23.34,22.22a28.32,28.32,0,0,0,.16,3.68c1.28,11.83,8.63,19.82,20.62,28.14a5,5,0,0,0,2.56,1,4.5,4.5,0,0,0,2.4-1C50,51.63,58,43.63,58,29.72a7.75,7.75,0,0,0-.16-1.91c-1-11.35-11-20.31-23.18-20.31Z" fill="#25ef25"/>
  <path d="M37.69,17.42A9.83,9.83,0,0,0,27.61,27,9.84,9.84,0,0,0,37.69,36.6,9.84,9.84,0,0,0,47.76,27a9.83,9.83,0,0,0-10.07-9.59" fill="#25ef25" fill-rule="evenodd"/>
  <g id="Checklist">
    <polygon points="33.91 25.46 31.12 28.25 31.12 28.25 36.37 33.49 45.23 24.63 43.2 22.57 36.42 28.2 33.91 25.46" fill="#fff"/>
  </g>
</svg>
