<svg id="Layer_1" data-name="Layer 1" xmlns="http://www.w3.org/2000/svg" width="70" height="70" viewBox="0 0 70 70">
  <title>timefilter_advanced</title>
  <path d="M18,58.52a6.51,6.51,0,0,0-6.59-5.77h0a6.5,6.5,0,0,0-6.64,6.32,9.3,9.3,0,0,0,0,1c.37,3.36,2.46,5.63,5.87,8a1.39,1.39,0,0,0,.73.27,1.26,1.26,0,0,0,.68-.27c3.68-2.82,6-5.09,6-9.05A2.09,2.09,0,0,0,18,58.52Zm-6.59-4.45h0" fill="#b7b7b7" fill-rule="evenodd"/>
  <path d="M12.29,55.57a2.73,2.73,0,1,0,0,5.46,2.73,2.73,0,1,0,0-5.46" fill="#fff" fill-rule="evenodd"/>
  <path d="M27.78,37.56a4.91,4.91,0,0,0-5-4.36h0a4.91,4.91,0,0,0-5,4.78,7,7,0,0,0,0,.79c.28,2.54,1.86,4.26,4.44,6a1.13,1.13,0,0,0,.55.21,1,1,0,0,0,.51-.21C26.1,42.69,27.82,41,27.82,38A1.5,1.5,0,0,0,27.78,37.56Zm-5-3.37h0" fill="#f0a023" fill-rule="evenodd"/>
  <path d="M23.45,35.33a2.07,2.07,0,1,0,2.17,2.06,2.11,2.11,0,0,0-2.17-2.06" fill="#fff" fill-rule="evenodd"/>
  <path d="M49.3,45.35a5.87,5.87,0,0,0-5.95-5.21h0a5.86,5.86,0,0,0-6,5.71,7.47,7.47,0,0,0,0,.94c.33,3,2.22,5.09,5.3,7.23a1.34,1.34,0,0,0,.66.25A1.2,1.2,0,0,0,44,54c3.32-2.55,5.38-4.6,5.38-8.17A1.7,1.7,0,0,0,49.3,45.35Zm-5.95-4h0" fill="#f0a023" fill-rule="evenodd"/>
  <path d="M44.13,42.68a2.47,2.47,0,1,0,2.59,2.47,2.53,2.53,0,0,0-2.59-2.47" fill="#fff" fill-rule="evenodd"/>
  <path d="M13.12,43.73a4.5,4.5,0,0,0-4.57-4h0A4.51,4.51,0,0,0,4,44.11a5.78,5.78,0,0,0,0,.72c.25,2.34,1.7,3.91,4.07,5.55a.91.91,0,0,0,.5.19A.82.82,0,0,0,9,50.38c2.56-2,4.14-3.53,4.14-6.27A1.2,1.2,0,0,0,13.12,43.73ZM8.55,40.64h0" fill="#b7b7b7" fill-rule="evenodd"/>
  <path d="M9.15,41.68a1.89,1.89,0,1,0,0,3.78,1.89,1.89,0,1,0,0-3.78" fill="#fff" fill-rule="evenodd"/>
  <path d="M62.16,39.91a4.52,4.52,0,0,0-4.57-4h0A4.51,4.51,0,0,0,53,40.29,5.78,5.78,0,0,0,53,41c.25,2.34,1.71,3.91,4.07,5.55a1,1,0,0,0,.51.19.87.87,0,0,0,.47-.19c2.55-2,4.13-3.53,4.13-6.27A1.63,1.63,0,0,0,62.16,39.91Zm-4.57-3.09h0" fill="#b7b7b7" fill-rule="evenodd"/>
  <path d="M58.18,37.86a1.89,1.89,0,1,0,2,1.89,1.93,1.93,0,0,0-2-1.89" fill="#fff" fill-rule="evenodd"/>
  <path d="M56.05,59a6.46,6.46,0,0,0-6.55-5.73h0a6.45,6.45,0,0,0-6.59,6.28,7.11,7.11,0,0,0,.05,1c.36,3.34,2.43,5.6,5.82,7.95a1.48,1.48,0,0,0,.72.27,1.34,1.34,0,0,0,.68-.27c3.66-2.8,5.91-5.06,5.91-9A2.55,2.55,0,0,0,56.05,59ZM49.5,54.57h0" fill="#b7b7b7" fill-rule="evenodd"/>
  <path d="M50.36,56.06a2.71,2.71,0,1,0,2.84,2.71,2.77,2.77,0,0,0-2.84-2.71" fill="#fff" fill-rule="evenodd"/>
  <path d="M9.58,6.49C8.4,4.8,9.13,3.41,11.19,3.41H58.5c2.06,0,2.81,1.4,1.66,3.12L41.52,34.33a14.56,14.56,0,0,0-2.09,6.88V64.47c0,2.07-1.36,2.76-3,1.53l-2.33-1.71a8.41,8.41,0,0,1-3-6V41.21a14,14,0,0,0-2.14-6.84Z" fill="#ee447f" fill-rule="evenodd"/>
  <path d="M40.81,29.53a1.72,1.72,0,0,1-2.26.75,1.72,1.72,0,0,1-.16-2.38L51.94,7.75A1.72,1.72,0,0,1,54.2,7a1.7,1.7,0,0,1,.16,2.37Z" fill="#fff" fill-rule="evenodd"/>
  <path d="M33.33,52.39a6.66,6.66,0,0,0-6.76-5.92h0A6.65,6.65,0,0,0,19.77,53a9.57,9.57,0,0,0,0,1.07c.38,3.45,2.52,5.78,6,8.21a1.43,1.43,0,0,0,.74.28,1.3,1.3,0,0,0,.7-.28C31.05,59.34,33.38,57,33.38,53A2.12,2.12,0,0,0,33.33,52.39Zm-6.76-4.57h0" fill="#f0a023" fill-rule="evenodd"/>
  <path d="M27.46,49.36a2.8,2.8,0,1,0,2.94,2.8,2.87,2.87,0,0,0-2.94-2.8" fill="#fff" fill-rule="evenodd"/>
</svg>
