<svg id="Layer_1" data-name="Layer 1" xmlns="http://www.w3.org/2000/svg" width="70" height="70" viewBox="0 0 70 70">
  <title>timemap_simple</title>
  <path d="M35.15,16.2H35a3.14,3.14,0,0,1-3.2-3.1,6.15,6.15,0,0,0-6.3-6,6.15,6.15,0,0,0-6.3,6v9.1A3.2,3.2,0,0,1,16,25.3H6.45a6,6,0,1,0,0,12H16a3.14,3.14,0,0,1,3.2,3.1A3.2,3.2,0,0,1,16,43.5a6,6,0,1,0,0,12h9.5a6.15,6.15,0,0,0,6.3-6A3.2,3.2,0,0,1,35,46.4a3.14,3.14,0,0,1,3.2,3.1,6.15,6.15,0,0,0,6.3,6,3.14,3.14,0,0,1,3.2,3.1,6.31,6.31,0,0,0,12.6,0,3.2,3.2,0,0,1,3.2-3.1,6,6,0,1,0,0-12,3.14,3.14,0,0,1-3.2-3.1,3.31,3.31,0,0,1,3.3-3.2,6.15,6.15,0,0,0,6.3-6V22.1a6.15,6.15,0,0,0-6.3-6h-3.1Z" fill="#0d63bf" fill-rule="evenodd"/>
  <path d="M62.15,19c-.6-7.1-6.9-12.7-14.5-12.7h0c-8,0-14.6,6.2-14.6,13.9a17.7,17.7,0,0,0,.1,2.3c.8,7.4,5.4,12.4,12.9,17.6a3.14,3.14,0,0,0,1.6.6,2.81,2.81,0,0,0,1.5-.6c8.1-6.2,13.1-11.2,13.1-19.9A4.87,4.87,0,0,0,62.15,19ZM47.65,9.2h0" fill="#f0a023" fill-rule="evenodd"/>
  <path d="M49.55,12.5a6.15,6.15,0,0,0-6.3,6,6.31,6.31,0,0,0,12.6,0,6.15,6.15,0,0,0-6.3-6" fill="#fff" fill-rule="evenodd"/>
</svg>
