<svg id="Layer_1" data-name="Layer 1" xmlns="http://www.w3.org/2000/svg" width="70" height="70" viewBox="0 0 70 70">
  <title>timefilter_express</title>
  <path d="M17.85,58.78a6.58,6.58,0,0,0-6.67-5.84h0a6.57,6.57,0,0,0-6.71,6.39,9.39,9.39,0,0,0,0,1.06c.37,3.4,2.49,5.7,5.94,8.09a1.4,1.4,0,0,0,.73.28,1.27,1.27,0,0,0,.69-.28c3.73-2.85,6-5.15,6-9.15A2.05,2.05,0,0,0,17.85,58.78Zm-6.67-4.51h0" fill="#b7b7b7" fill-rule="evenodd"/>
  <path d="M12.06,55.79a2.76,2.76,0,1,0,0,5.52,2.76,2.76,0,1,0,0-5.52" fill="#fff" fill-rule="evenodd"/>
  <path d="M27.72,37.58a5,5,0,0,0-5-4.42h0A5,5,0,0,0,17.61,38a7.13,7.13,0,0,0,0,.8c.28,2.57,1.88,4.31,4.49,6.12a1.13,1.13,0,0,0,.55.21,1,1,0,0,0,.52-.21C26,42.76,27.76,41,27.76,38A1.5,1.5,0,0,0,27.72,37.58Zm-5-3.41h0" fill="#f0a023" fill-rule="evenodd"/>
  <path d="M23.34,35.32a2.09,2.09,0,1,0,2.19,2.09,2.14,2.14,0,0,0-2.19-2.09" fill="#fff" fill-rule="evenodd"/>
  <path d="M49.49,45.46a6,6,0,0,0-6-5.28h0A5.94,5.94,0,0,0,37.4,46a7.55,7.55,0,0,0,0,.95c.33,3.07,2.25,5.15,5.36,7.31a1.28,1.28,0,0,0,.66.25,1.15,1.15,0,0,0,.63-.25c3.36-2.57,5.44-4.65,5.44-8.26A2.07,2.07,0,0,0,49.49,45.46Zm-6-4.07h0" fill="#f0a023" fill-rule="evenodd"/>
  <path d="M44.25,42.76a2.49,2.49,0,1,0,2.62,2.49,2.55,2.55,0,0,0-2.62-2.49" fill="#fff" fill-rule="evenodd"/>
  <path d="M12.9,43.81a4.57,4.57,0,0,0-4.63-4.05h0A4.56,4.56,0,0,0,3.62,44.2a5.94,5.94,0,0,0,0,.73c.25,2.36,1.72,4,4.11,5.61a1,1,0,0,0,.51.2.86.86,0,0,0,.48-.2c2.59-2,4.18-3.57,4.18-6.34A1.71,1.71,0,0,0,12.9,43.81ZM8.27,40.69h0" fill="#b7b7b7" fill-rule="evenodd"/>
  <path d="M8.88,41.74a1.92,1.92,0,1,0,0,3.83,1.92,1.92,0,1,0,0-3.83" fill="#fff" fill-rule="evenodd"/>
  <path d="M62.49,40a4.57,4.57,0,0,0-4.63-4.05h0a4.56,4.56,0,0,0-4.62,5.17c.25,2.36,1.72,4,4.11,5.61a1,1,0,0,0,.51.19.87.87,0,0,0,.48-.19c2.58-2,4.18-3.57,4.18-6.35A1.67,1.67,0,0,0,62.49,40Zm-4.63-3.12h0" fill="#b7b7b7" fill-rule="evenodd"/>
  <path d="M58.47,37.88a1.92,1.92,0,1,0,2,1.91,2,2,0,0,0-2-1.91" fill="#fff" fill-rule="evenodd"/>
  <path d="M56.31,59.25a6.54,6.54,0,0,0-6.62-5.8h0A6.53,6.53,0,0,0,43,59.8a7.45,7.45,0,0,0,0,1.05c.36,3.38,2.46,5.66,5.89,8a1.4,1.4,0,0,0,.73.28,1.27,1.27,0,0,0,.68-.28c3.7-2.83,6-5.11,6-9.08A2.55,2.55,0,0,0,56.31,59.25Zm-6.62-4.47h0" fill="#b7b7b7" fill-rule="evenodd"/>
  <path d="M50.55,56.28A2.74,2.74,0,1,0,53.43,59a2.81,2.81,0,0,0-2.88-2.74" fill="#fff" fill-rule="evenodd"/>
  <path d="M9.32,6.16C8.13,4.44,8.86,3,11,3H58.78c2.09,0,2.85,1.42,1.68,3.15L41.62,34.31a14.67,14.67,0,0,0-2.12,6.95V64.79c0,2.09-1.37,2.79-3,1.55L34.09,64.6a8.48,8.48,0,0,1-3.05-6V41.26a14.25,14.25,0,0,0-2.16-6.91Z" fill="#520d76" fill-rule="evenodd"/>
  <path d="M40.9,29.46a1.74,1.74,0,0,1-2.29.75,1.73,1.73,0,0,1-.16-2.4L52.15,7.43a1.75,1.75,0,0,1,2.29-.75,1.73,1.73,0,0,1,.16,2.4Z" fill="#fff" fill-rule="evenodd"/>
  <path d="M33.33,52.57a6.74,6.74,0,0,0-6.83-6h0a6.73,6.73,0,0,0-6.88,6.55,9.66,9.66,0,0,0,0,1.08c.38,3.49,2.55,5.85,6.09,8.3a1.43,1.43,0,0,0,.75.28,1.37,1.37,0,0,0,.71-.28c3.81-2.92,6.17-5.28,6.17-9.38A2.2,2.2,0,0,0,33.33,52.57ZM26.5,48h0" fill="#f0a023" fill-rule="evenodd"/>
  <path d="M27.4,49.51a2.83,2.83,0,1,0,3,2.83,2.9,2.9,0,0,0-3-2.83" fill="#fff" fill-rule="evenodd"/>
</svg>
