<svg id="Layer_1" data-name="Layer 1" xmlns="http://www.w3.org/2000/svg" width="70" height="70" viewBox="0 0 70 70">
  <title>help</title>
  <path d="M35.15,16.2H35a3.14,3.14,0,0,1-3.2-3.1,6.15,6.15,0,0,0-6.3-6,6.15,6.15,0,0,0-6.3,6v9.1A3.2,3.2,0,0,1,16,25.3H6.45a6,6,0,1,0,0,12H16a3.14,3.14,0,0,1,3.2,3.1A3.2,3.2,0,0,1,16,43.5a6,6,0,1,0,0,12h9.5a6.15,6.15,0,0,0,6.3-6A3.2,3.2,0,0,1,35,46.4a3.14,3.14,0,0,1,3.2,3.1,6.15,6.15,0,0,0,6.3,6,3.14,3.14,0,0,1,3.2,3.1,6.31,6.31,0,0,0,12.6,0,3.2,3.2,0,0,1,3.2-3.1,6,6,0,1,0,0-12,3.14,3.14,0,0,1-3.2-3.1,3.31,3.31,0,0,1,3.3-3.2,6.15,6.15,0,0,0,6.3-6V22.1a6.15,6.15,0,0,0-6.3-6h-3.1Z" fill="#bcbcbc" fill-rule="evenodd"/>
  <path d="M58.65,33.44c0,3.59-1.76,6.81-5.27,9.52a11.3,11.3,0,0,0-2.49,2.49,4.48,4.48,0,0,0-.73,2.64V49H42V46.84a8.73,8.73,0,0,1,2.93-7,22.26,22.26,0,0,0,2.49-2.27,5,5,0,0,0,.81-1.17,3.72,3.72,0,0,0,.22-1.32,1.9,1.9,0,0,0-.81-1.54,3.18,3.18,0,0,0-2.12-.66c-2.64,0-5.35,1-8.28,3.15V26.48A17,17,0,0,1,41.51,25a17,17,0,0,1,4.84-.74c3.95,0,7,.81,9.15,2.35A8.26,8.26,0,0,1,58.65,33.44ZM52.13,55.92a4.47,4.47,0,0,1-1.61,3.59,6.07,6.07,0,0,1-4.25,1.39,6.17,6.17,0,0,1-4.17-1.46,4.46,4.46,0,0,1-1.61-3.52,4.33,4.33,0,0,1,1.61-3.51,6.41,6.41,0,0,1,4.25-1.32,6.49,6.49,0,0,1,4.24,1.32A4.58,4.58,0,0,1,52.13,55.92Z" fill="#2d2d2d"/>
</svg>
