<?xml version="1.0" encoding="UTF-8"?>
<svg width="16px" height="14px" viewBox="0 0 16 14" version="1.1" xmlns="http://www.w3.org/2000/svg" xmlns:xlink="http://www.w3.org/1999/xlink">
    <!-- Generator: Sketch 53.2 (72643) - https://sketchapp.com -->
    <title>icon_time_map_simple_16x16</title>
    <desc>Created with Sketch.</desc>
    <g id="Page-1" stroke="none" stroke-width="1" fill="none" fill-rule="evenodd">
        <g id="QGIS-icons-Copy" transform="translate(-545.000000, -160.000000)" fill="#F0A023">
            <path d="M558.077829,165.994017 C557.670784,165.97114 557.307388,165.81508 557.11855,165.429714 C556.93555,165.056243 557.058209,164.654904 556.759139,164.318996 C556.4435,163.964447 556.071349,164.067724 555.673718,163.925314 C555.27957,163.784192 555.008238,163.39823 555.008238,162.979663 L555.008238,160.971244 C555.008238,159.678167 553,159.674339 553,160.971244 L553,162.979663 C553,163.5268 552.542467,163.983872 551.995881,163.983872 C551.402447,163.983872 551.054269,163.522344 550.991762,162.979663 C550.929224,162.436793 550.582113,161.975453 549.987643,161.975453 C549.440681,161.975453 548.983524,162.432086 548.983524,162.979663 L548.983524,164.988082 C548.983524,165.542657 548.533962,165.992291 547.979406,165.992291 L545.971168,165.992291 C544.678208,165.992291 544.674348,168.000711 545.971168,168.000711 L547.979406,168.000711 C548.526525,168.000711 548.983524,168.458285 548.983524,169.00492 C548.983524,169.598408 548.522038,169.946586 547.979406,170.00913 C547.436585,170.071673 546.975287,170.418816 546.975287,171.013339 C546.975287,171.56032 547.43191,172.017549 547.979406,172.017549 L549.987643,172.017549 C550.387722,172.017549 550.756139,171.771266 550.911464,171.403475 C551.074226,171.018109 550.957842,170.631332 551.285875,170.303269 C551.904444,169.684613 553,170.138547 553,171.013339 L553,173.087973 C553.077098,174.302439 554.930952,174.305577 555.006104,173.087973 L555.008238,173.087973 L555.008238,173.021758 C555.008238,172.494078 555.415251,172.061797 555.932372,172.021001 L558.083352,172.021001 C559.297708,171.943896 559.300846,170.089906 558.083352,170.014716 L555.932372,170.012582 C555.958793,170.01051 555.985402,170.00913 556.012357,170.00913 C554.755263,170.00913 554.694639,168.073327 555.955122,168.002437 L560.028832,168.002437 C561.321792,168.002437 561.325652,165.994017 560.028832,165.994017 L558.077829,165.994017 Z" id="icon_time_map_simple_16x16"></path>
        </g>
    </g>
</svg>