<?xml version="1.0" encoding="UTF-8"?>
<svg width="16px" height="16px" viewBox="0 0 16 16" version="1.1" xmlns="http://www.w3.org/2000/svg" xmlns:xlink="http://www.w3.org/1999/xlink">
    <!-- Generator: Sketch 53.2 (72643) - https://sketchapp.com -->
    <title>icon_routes_16x16</title>
    <desc>Created with Sketch.</desc>
    <g id="Page-1" stroke="none" stroke-width="1" fill="none" fill-rule="evenodd">
        <g id="QGIS-icons-Copy" transform="translate(-221.000000, -353.000000)" fill="#434B54">
            <g id="icon_routes_16x16" transform="translate(221.000000, 353.000000)">
                <path d="M5.02325581,3.2248062 C5.02325581,2.33672481 4.27107558,1.6124031 3.34883721,1.6124031 C2.42659884,1.6124031 1.6744186,2.33672481 1.6744186,3.2248062 C1.6744186,4.1128876 2.42659884,4.8372093 3.34883721,4.8372093 C4.27107558,4.8372093 5.02325581,4.1128876 5.02325581,3.2248062 Z M6.69767442,3.2248062 C6.69767442,3.60901163 6.65188953,4.00581395 6.4818314,4.35222868 L4.10101744,9.22722868 C3.96366279,9.50436047 3.6627907,9.6744186 3.34883721,9.6744186 C3.03488372,9.6744186 2.73401163,9.50436047 2.60319767,9.22722868 L0.215843023,4.35222868 C0.0457848837,4.00581395 0,3.60901163 0,3.2248062 C0,1.44234496 1.49781977,0 3.34883721,0 C5.19985465,0 6.69767442,1.44234496 6.69767442,3.2248062 Z" id="Location_icon"></path>
                <path d="M14.3255814,9.2248062 C14.3255814,8.33672481 13.5734012,7.6124031 12.6511628,7.6124031 C11.7289244,7.6124031 10.9767442,8.33672481 10.9767442,9.2248062 C10.9767442,10.1128876 11.7289244,10.8372093 12.6511628,10.8372093 C13.5734012,10.8372093 14.3255814,10.1128876 14.3255814,9.2248062 Z M16,9.2248062 C16,9.60901163 15.9542151,10.005814 15.784157,10.3522287 L13.403343,15.2272287 C13.2659884,15.5043605 12.9651163,15.6744186 12.6511628,15.6744186 C12.3372093,15.6744186 12.0363372,15.5043605 11.9055233,15.2272287 L9.5181686,10.3522287 C9.34811047,10.005814 9.30232558,9.60901163 9.30232558,9.2248062 C9.30232558,7.44234496 10.8001453,6 12.6511628,6 C14.5021802,6 16,7.44234496 16,9.2248062 Z" id="Location_icon-Copy"></path>
                <path d="M7.40260154,11.4679201 L7.42130546,9.19939759 C7.42530374,8.72617377 7.04571591,8.34443671 6.57507398,8.34837476 C6.10474067,8.35231023 5.71864809,8.74045403 5.71464981,9.21367785 C5.70848459,9.94337347 5.11292916,10.5419391 4.38721473,10.5480115 L2.2176326,10.5661652 L2.22156534,10.1006992 L4.39114747,10.0825454 C4.8617894,10.0786074 5.24772635,9.69062 5.25172333,9.21755134 C5.25788854,8.48785572 5.85329229,7.88898105 6.57900671,7.88290871 C7.30487544,7.87683508 7.89039716,8.46582848 7.88423194,9.1955241 L7.86519488,11.4486901 C7.89036434,11.8847455 8.26250154,12.2352057 8.71169454,12.2314472 C9.16150477,12.2276834 9.53853301,11.8714201 9.56996511,11.4201523 C9.57850264,10.6836105 10.0940488,10.0948679 10.7950802,10.0334604 L10.8132951,10.0325322 L12.2850928,10.0202171 L12.28116,10.4856832 L10.8190839,10.4979169 C10.3686255,10.5418685 10.0382096,10.9329596 10.0323002,11.431488 C9.98310155,12.1410646 9.4016886,12.6911069 8.7077618,12.6969132 C8.01537809,12.7027067 7.44209414,12.1627916 7.40260154,11.4679201 Z" id="Fill-1" stroke="#434B54" stroke-width="0.5" transform="translate(7.251363, 10.289911) rotate(-330.000000) translate(-7.251363, -10.289911) "></path>
            </g>
        </g>
    </g>
</svg>