<?xml version="1.0" encoding="UTF-8"?>
<svg width="32px" height="28px" viewBox="0 0 32 28" version="1.1" xmlns="http://www.w3.org/2000/svg" xmlns:xlink="http://www.w3.org/1999/xlink">
    <!-- Generator: Sketch 53.2 (72643) - https://sketchapp.com -->
    <title>icon_time_map_advanced_32x32</title>
    <desc>Created with Sketch.</desc>
    <g id="Page-1" stroke="none" stroke-width="1" fill="none" fill-rule="evenodd">
        <g id="QGIS-icons-Copy" transform="translate(-749.000000, -145.000000)" fill="#662D85">
            <path d="M775.155658,156.988035 C774.341569,156.942281 773.614775,156.63016 773.237101,155.859429 C772.8711,155.112485 773.116418,154.309808 772.518277,153.637992 C771.887,152.928894 771.142697,153.135448 770.347435,152.850629 C769.559139,152.568383 769.016476,151.79646 769.016476,150.959326 L769.016476,146.942488 C769.016476,144.356334 765,144.348677 765,146.942488 L765,150.959326 C765,152.0536 764.084934,152.967745 762.991762,152.967745 C761.804894,152.967745 761.108537,152.044688 760.983524,150.959326 C760.858449,149.873587 760.164226,148.950907 758.975287,148.950907 C757.881362,148.950907 756.967049,149.864172 756.967049,150.959326 L756.967049,154.976164 C756.967049,156.085313 756.067923,156.984583 754.958811,156.984583 L750.942336,156.984583 C748.356416,156.984583 748.348697,161.001421 750.942336,161.001421 L754.958811,161.001421 C756.05305,161.001421 756.967049,161.91657 756.967049,163.00984 C756.967049,164.196816 756.044075,164.893172 754.958811,165.018259 C753.87317,165.143346 752.950573,165.837632 752.950573,167.026678 C752.950573,168.120639 753.86382,169.035098 754.958811,169.035098 L758.975287,169.035098 C759.775444,169.035098 760.512279,168.542533 760.822928,167.806949 C761.148451,167.036218 760.915684,166.262663 761.57175,165.606538 C762.808887,164.369226 765,165.277094 765,167.026678 L765,171.175947 C765.154195,173.604879 768.861904,173.611155 769.012208,171.175947 L769.016476,171.175947 L769.016476,171.043517 C769.016476,169.988155 769.830502,169.123593 770.864745,169.042001 L775.166704,169.042001 C777.595416,168.887793 777.601692,165.179812 775.166704,165.029431 L770.864745,165.025163 C770.917586,165.021021 770.970805,165.018259 771.024713,165.018259 C768.510525,165.018259 768.389278,161.146655 770.910244,161.004873 L779.057664,161.004873 C781.643584,161.004873 781.651303,156.988035 779.057664,156.988035 L775.155658,156.988035 Z" id="icon_time_map_advanced_32x32"></path>
        </g>
    </g>
</svg>