<?xml version="1.0" encoding="UTF-8"?>
<svg width="18px" height="16px" viewBox="0 0 18 16" version="1.1" xmlns="http://www.w3.org/2000/svg" xmlns:xlink="http://www.w3.org/1999/xlink">
    <!-- Generator: Sketch 53.2 (72643) - https://sketchapp.com -->
    <title>icon_time_map_simple_16x16</title>
    <desc>Created with Sketch.</desc>
    <g id="Page-1" stroke="none" stroke-width="1" fill="none" fill-rule="evenodd" stroke-linecap="round" stroke-linejoin="round">
        <g id="QGIS-icons" transform="translate(-544.000000, -159.000000)" stroke="#8F9FB3">
            <path d="M558.077829,165.916173 C557.670784,165.893593 557.307388,165.739559 557.11855,165.359199 C556.93555,164.990577 557.058209,164.594451 556.759139,164.262905 C556.4435,163.912961 556.071349,164.014896 555.673718,163.874336 C555.27957,163.735046 555.008238,163.354097 555.008238,162.940966 L555.008238,160.95863 C555.008238,159.682347 553,159.678568 553,160.95863 L553,162.940966 C553,163.480998 552.542467,163.932134 551.995881,163.932134 C551.402447,163.932134 551.054269,163.476599 550.991762,162.940966 C550.929224,162.405147 550.582113,161.949798 549.987643,161.949798 C549.440681,161.949798 548.983524,162.400501 548.983524,162.940966 L548.983524,164.923302 C548.983524,165.470674 548.533962,165.91447 547.979406,165.91447 L545.971168,165.91447 C544.678208,165.91447 544.674348,167.896805 545.971168,167.896805 L547.979406,167.896805 C548.526525,167.896805 548.983524,168.348437 548.983524,168.887973 C548.983524,169.473753 548.522038,169.81741 547.979406,169.879141 C547.436585,169.940872 546.975287,170.283506 546.975287,170.870309 C546.975287,171.410186 547.43191,171.861477 547.979406,171.861477 L549.987643,171.861477 C550.387722,171.861477 550.756139,171.618393 550.911464,171.255378 C551.074226,170.875017 550.957842,170.493262 551.285875,170.16946 C551.904444,169.558839 553,170.006878 553,170.870309 L553,172.918 C553.077098,174.116693 554.930952,174.119791 555.006104,172.918 L555.008238,172.918 L555.008238,172.852645 C555.008238,172.331817 555.415251,171.90515 555.932372,171.864884 L558.083352,171.864884 C559.297708,171.788781 559.300846,169.958868 558.083352,169.884654 L555.932372,169.882548 C555.958793,169.880504 555.985402,169.879141 556.012357,169.879141 C554.755263,169.879141 554.694639,167.968479 555.955122,167.898509 L560.028832,167.898509 C561.321792,167.898509 561.325652,165.916173 560.028832,165.916173 L558.077829,165.916173 Z" id="icon_time_map_simple_16x16"></path>
        </g>
    </g>
</svg>