<?xml version="1.0" encoding="UTF-8"?>
<svg width="34px" height="30px" viewBox="0 0 34 30" version="1.1" xmlns="http://www.w3.org/2000/svg" xmlns:xlink="http://www.w3.org/1999/xlink">
    <!-- Generator: Sketch 53.2 (72643) - https://sketchapp.com -->
    <title>icon_time_map_simple_32x32</title>
    <desc>Created with Sketch.</desc>
    <g id="Page-1" stroke="none" stroke-width="1" fill="none" fill-rule="evenodd" stroke-linecap="round" stroke-linejoin="round">
        <g id="QGIS-icons" transform="translate(-424.000000, -144.000000)" stroke="#8F9FB3" stroke-width="2">
            <path d="M451.155658,156.832346 C450.341569,156.787186 449.614775,156.479119 449.237101,155.718397 C448.8711,154.981154 449.116418,154.188901 448.518277,153.52581 C447.887,152.825922 447.142697,153.029793 446.347435,152.748673 C445.559139,152.470093 445.016476,151.708194 445.016476,150.881932 L445.016476,146.91726 C445.016476,144.364693 441,144.357136 441,146.91726 L441,150.881932 C441,151.961995 440.084934,152.864268 438.991762,152.864268 C437.804894,152.864268 437.108537,151.953198 436.983524,150.881932 C436.858449,149.810294 436.164226,148.899596 434.975287,148.899596 C433.881362,148.899596 432.967049,149.801001 432.967049,150.881932 L432.967049,154.846603 C432.967049,155.941348 432.067923,156.828939 430.958811,156.828939 L426.942336,156.828939 C424.356416,156.828939 424.348697,160.79361 426.942336,160.79361 L430.958811,160.79361 C432.05305,160.79361 432.967049,161.696874 432.967049,162.775946 C432.967049,163.947507 432.044075,164.63482 430.958811,164.758282 C429.87317,164.881744 428.950573,165.567013 428.950573,166.740618 C428.950573,167.820371 429.86382,168.722953 430.958811,168.722953 L434.975287,168.722953 C435.775444,168.722953 436.512279,168.236786 436.822928,167.510755 C437.148451,166.750034 436.915684,165.986525 437.57175,165.33892 C438.808887,164.117678 441,165.013755 441,166.740618 L441,170.835999 C441.154195,173.233387 444.861904,173.239581 445.012208,170.835999 L445.016476,170.835999 L445.016476,170.705289 C445.016476,169.663634 445.830502,168.8103 446.864745,168.729768 L451.166704,168.729768 C453.595416,168.577561 453.601692,164.917736 451.166704,164.769309 L446.864745,164.765096 C446.917586,164.761008 446.970805,164.758282 447.024713,164.758282 C444.510525,164.758282 444.389278,160.936958 446.910244,160.797018 L455.057664,160.797018 C457.643584,160.797018 457.651303,156.832346 455.057664,156.832346 L451.155658,156.832346 Z" id="icon_time_map_simple_32x32"></path>
        </g>
    </g>
</svg>