<?xml version="1.0" encoding="UTF-8"?>
<svg width="24px" height="21px" viewBox="0 0 24 21" version="1.1" xmlns="http://www.w3.org/2000/svg" xmlns:xlink="http://www.w3.org/1999/xlink">
    <!-- Generator: Sketch 53.2 (72643) - https://sketchapp.com -->
    <title>icon_time_map_simple_24x24</title>
    <desc>Created with Sketch.</desc>
    <g id="Page-1" stroke="none" stroke-width="1" fill="none" fill-rule="evenodd">
        <g id="QGIS-icons-Copy" transform="translate(-489.000000, -152.000000)" fill="#F0A023">
            <path d="M508.616744,160.991026 C508.006177,160.95671 507.461081,160.72262 507.177826,160.144572 C506.903325,159.584364 507.087314,158.982356 506.638708,158.478494 C506.16525,157.946671 505.607023,158.101586 505.010576,157.887972 C504.419354,157.676287 504.012357,157.097345 504.012357,156.469494 L504.012357,153.456866 C504.012357,151.517251 501,151.511508 501,153.456866 L501,156.469494 C501,157.2902 500.3137,157.975809 499.493822,157.975809 C498.60367,157.975809 498.081403,157.283516 497.987643,156.469494 C497.893837,155.65519 497.37317,154.96318 496.481465,154.96318 C495.661021,154.96318 494.975287,155.648129 494.975287,156.469494 L494.975287,159.482123 C494.975287,160.313985 494.300942,160.988437 493.469108,160.988437 L490.456752,160.988437 C488.517312,160.988437 488.511522,164.001066 490.456752,164.001066 L493.469108,164.001066 C494.289787,164.001066 494.975287,164.687427 494.975287,165.50738 C494.975287,166.397612 494.283057,166.919879 493.469108,167.013695 C492.654878,167.10751 491.96293,167.628224 491.96293,168.520009 C491.96293,169.340479 492.647865,170.026323 493.469108,170.026323 L496.481465,170.026323 C497.081583,170.026323 497.634209,169.6569 497.867196,169.105212 C498.111338,168.527164 497.936763,167.946997 498.428812,167.454903 C499.356665,166.52692 501,167.207821 501,168.520009 L501,171.63196 C501.115646,173.453659 503.896428,173.458366 504.009156,171.63196 L504.012357,171.63196 L504.012357,171.532637 C504.012357,170.741116 504.622877,170.092695 505.398558,170.031501 L508.625028,170.031501 C510.446562,169.915844 510.451269,167.134859 508.625028,167.022073 L505.398558,167.018872 C505.43819,167.015766 505.478103,167.013695 505.518535,167.013695 C503.632894,167.013695 503.541958,164.109991 505.432683,164.003655 L511.543248,164.003655 C513.482688,164.003655 513.488478,160.991026 511.543248,160.991026 L508.616744,160.991026 Z" id="icon_time_map_simple_24x24"></path>
        </g>
    </g>
</svg>