<?xml version="1.0" encoding="UTF-8"?>
<svg width="32px" height="32px" viewBox="0 0 32 32" version="1.1" xmlns="http://www.w3.org/2000/svg" xmlns:xlink="http://www.w3.org/1999/xlink">
    <!-- Generator: Sketch 53.2 (72643) - https://sketchapp.com -->
    <title>icon_routes_32x32</title>
    <desc>Created with Sketch.</desc>
    <g id="Page-1" stroke="none" stroke-width="1" fill="none" fill-rule="evenodd">
        <g id="QGIS-icons-Copy" transform="translate(-101.000000, -337.000000)" fill="#434B54">
            <g id="icon_routes_32x32" transform="translate(101.000000, 337.000000)">
                <path d="M10.0465116,6.4496124 C10.0465116,4.67344961 8.54215116,3.2248062 6.69767442,3.2248062 C4.85319767,3.2248062 3.34883721,4.67344961 3.34883721,6.4496124 C3.34883721,8.22577519 4.85319767,9.6744186 6.69767442,9.6744186 C8.54215116,9.6744186 10.0465116,8.22577519 10.0465116,6.4496124 Z M13.3953488,6.4496124 C13.3953488,7.21802326 13.3037791,8.01162791 12.9636628,8.70445736 L8.20203488,18.4544574 C7.92732558,19.0087209 7.3255814,19.3488372 6.69767442,19.3488372 C6.06976744,19.3488372 5.46802326,19.0087209 5.20639535,18.4544574 L0.431686047,8.70445736 C0.0915697674,8.01162791 0,7.21802326 0,6.4496124 C0,2.88468992 2.99563953,0 6.69767442,0 C10.3997093,0 13.3953488,2.88468992 13.3953488,6.4496124 Z" id="Location_icon"></path>
                <path d="M28.6511628,18.4496124 C28.6511628,16.6734496 27.1468023,15.2248062 25.3023256,15.2248062 C23.4578488,15.2248062 21.9534884,16.6734496 21.9534884,18.4496124 C21.9534884,20.2257752 23.4578488,21.6744186 25.3023256,21.6744186 C27.1468023,21.6744186 28.6511628,20.2257752 28.6511628,18.4496124 Z M32,18.4496124 C32,19.2180233 31.9084302,20.0116279 31.568314,20.7044574 L26.806686,30.4544574 C26.5319767,31.0087209 25.9302326,31.3488372 25.3023256,31.3488372 C24.6744186,31.3488372 24.0726744,31.0087209 23.8110465,30.4544574 L19.0363372,20.7044574 C18.6962209,20.0116279 18.6046512,19.2180233 18.6046512,18.4496124 C18.6046512,14.8846899 21.6002907,12 25.3023256,12 C29.0043605,12 32,14.8846899 32,18.4496124 Z" id="Location_icon-Copy"></path>
                <path d="M14.8052031,22.9358402 L14.8426109,18.3987952 C14.8506075,17.4523475 14.0914318,16.6888734 13.150148,16.6967495 C12.2094813,16.7046205 11.4372962,17.4809081 11.4292996,18.4273557 C11.4169692,19.8867469 10.2258583,21.0838782 8.77442947,21.0960229 L4.43526521,21.1323304 L4.44313068,20.2013983 L8.78229494,20.1650908 C9.7235788,20.1572147 10.4954527,19.38124 10.5034467,18.4351027 C10.5157771,16.9757114 11.7065846,15.7779621 13.1580134,15.7658174 C14.6097509,15.7536702 15.7807943,16.931657 15.7684639,18.3910482 L15.7303898,22.8973802 C15.7807287,23.769491 16.5250031,24.4704115 17.4233891,24.4628943 C18.3230095,24.4553669 19.077066,23.7428401 19.1399302,22.8403047 C19.1570053,21.367221 20.1880975,20.1897357 21.5901603,20.0669207 L21.6265903,20.0650645 L24.5701855,20.0404342 L24.56232,20.9713663 L21.6381677,20.9958339 C20.737251,21.083737 20.0764191,21.8659192 20.0646004,22.8629759 C19.9662031,24.2821292 18.8033772,25.3822137 17.4155236,25.3938264 C16.0307562,25.4054133 14.8841883,24.3255833 14.8052031,22.9358402 Z" id="Fill-1" stroke="#434B54" transform="translate(14.502725, 20.579822) rotate(-330.000000) translate(-14.502725, -20.579822) "></path>
            </g>
        </g>
    </g>
</svg>