<?xml version="1.0" encoding="UTF-8"?>
<svg width="32px" height="32px" viewBox="0 0 32 32" version="1.1" xmlns="http://www.w3.org/2000/svg" xmlns:xlink="http://www.w3.org/1999/xlink">
    <!-- Generator: Sketch 53.2 (72643) - https://sketchapp.com -->
    <title>icon_background_tiles_32x32</title>
    <desc>Created with Sketch.</desc>
    <g id="Page-1" stroke="none" stroke-width="1" fill="none" fill-rule="evenodd">
        <g id="QGIS-icons-Copy" transform="translate(-749.000000, -337.000000)" fill="#434B54">
            <path d="M776,367.091017 L776,362.487096 L779.02778,360.934315 L779.02778,359 L776,360.508651 L776,356.487096 L779.02778,354.934315 L779.02778,353 L776,354.508651 L776,350.487096 L779.02778,348.934315 L779.02778,347 L776,348.508651 L776,344.487096 L779.02778,342.934315 L779.02778,341 L776,342.508651 L776,338.536704 L779.826667,337.053333 L780.111111,337 C780.60889,337 781,337.391111 781,337.888889 L781,364.76889 C781,365.177778 780.73333,365.497779 780.359999,365.622223 L776,367.091017 Z M774,367.764775 L771,368.775414 L771,365.051321 L774,363.512786 L774,367.764775 Z M769,368.533333 L766,367.483333 L766,363.246708 L769,364.329476 L769,368.533333 Z M764,366.783333 L761,365.733333 L761,361.442094 L764,362.524862 L764,366.783333 Z M759,365.525093 L756,366.688014 L756,362.384185 L759,361.406925 L759,365.525093 Z M754,367.463295 L750.173333,368.946665 L749.888889,369 C749.391111,369 749,368.60889 749,368.111111 L749,341.231111 C749,340.822222 749.266667,340.502223 749.64,340.377778 L754,338.908984 L754,343.016774 L750.998515,344.025661 L750.998515,346.013437 L754,345.035692 L754,349.016774 L750.998515,350.025661 L750.998515,352.013437 L754,351.035692 L754,355.016774 L750.998515,356.025661 L750.998515,358.013437 L754,357.035692 L754,361.016774 L750.998515,362.025661 L750.998515,364.013437 L754,363.035692 L754,367.463295 Z M756,338.235225 L759,337.224586 L759,341.336129 L756,342.344516 L756,338.235225 Z M761,337.466667 L764,338.516667 L764,342.454545 L761,341.363636 L761,337.466667 Z M766,339.216667 L769,340.266667 L769,344.272727 L766,343.181818 L766,339.216667 Z M771,340.474906 L774,339.311985 L774,343.505191 L771,345 L771,340.474906 Z M774,345.512786 L774,349.505191 L771,351 L771,347.051321 L774,345.512786 Z M774,361.505191 L771,363 L771,359.051321 L774,357.512786 L774,361.505191 Z M774,355.505191 L771,357 L771,353.051321 L774,351.512786 L774,355.505191 Z M769,346.329476 L769,350.272727 L766,349.181818 L766,345.246708 L769,346.329476 Z M769,362.272727 L766,361.181818 L766,357.246708 L769,358.329476 L769,362.272727 Z M769,356.272727 L766,355.181818 L766,351.246708 L769,352.329476 L769,356.272727 Z M764,344.524862 L764,348.454545 L761,347.363636 L761,343.442094 L764,344.524862 Z M764,360.454545 L761,359.363636 L761,355.442094 L764,356.524862 L764,360.454545 Z M764,354.454545 L761,353.363636 L761,349.442094 L764,350.524862 L764,354.454545 Z M759,343.406925 L759,347.336129 L756,348.344516 L756,344.384185 L759,343.406925 Z M759,359.336129 L756,360.344516 L756,356.384185 L759,355.406925 L759,359.336129 Z M759,353.336129 L756,354.344516 L756,350.384185 L759,349.406925 L759,353.336129 Z" id="icon_background_tiles_32x32"></path>
        </g>
    </g>
</svg>