<?xml version="1.0" encoding="UTF-8"?>
<svg width="16px" height="16px" viewBox="0 0 16 16" version="1.1" xmlns="http://www.w3.org/2000/svg" xmlns:xlink="http://www.w3.org/1999/xlink">
    <!-- Generator: Sketch 53.2 (72643) - https://sketchapp.com -->
    <title>icon_background_tiles_16x16</title>
    <desc>Created with Sketch.</desc>
    <g id="Page-1" stroke="none" stroke-width="1" fill="none" fill-rule="evenodd">
        <g id="QGIS-icons-Copy" transform="translate(-869.000000, -353.000000)" fill="#434B54">
            <path d="M882.5,368.045508 L882.5,365.743548 L884.01389,364.967157 L884.01389,364 L882.5,364.754326 L882.5,362.743548 L884.01389,361.967157 L884.01389,361 L882.5,361.754326 L882.5,359.743548 L884.01389,358.967157 L884.01389,358 L882.5,358.754326 L882.5,356.743548 L884.01389,355.967157 L884.01389,355 L882.5,355.754326 L882.5,353.768352 L884.413333,353.026667 L884.555556,353 C884.804445,353 885,353.195556 885,353.444444 L885,366.884445 C885,367.088889 884.866665,367.248889 884.679999,367.311111 L882.5,368.045508 Z M881.5,368.382388 L880,368.887707 L880,367.025661 L881.5,366.256393 L881.5,368.382388 Z M879,368.766667 L877.5,368.241667 L877.5,366.123354 L879,366.664738 L879,368.766667 Z M876.5,367.891666 L875,367.366666 L875,365.221047 L876.5,365.762431 L876.5,367.891666 Z M874,367.262546 L872.5,367.844007 L872.5,365.692093 L874,365.203462 L874,367.262546 Z M871.5,368.231647 L869.586667,368.973333 L869.444444,369 C869.195556,369 869,368.804445 869,368.555556 L869,355.115556 C869,354.911111 869.133333,354.751111 869.32,354.688889 L871.5,353.954492 L871.5,356.008387 L869.999257,356.51283 L869.999257,357.506718 L871.5,357.017846 L871.5,359.008387 L869.999257,359.51283 L869.999257,360.506718 L871.5,360.017846 L871.5,362.008387 L869.999257,362.51283 L869.999257,363.506718 L871.5,363.017846 L871.5,365.008387 L869.999257,365.51283 L869.999257,366.506718 L871.5,366.017846 L871.5,368.231647 Z M872.5,353.617612 L874,353.112293 L874,355.168065 L872.5,355.672258 L872.5,353.617612 Z M875,353.233333 L876.5,353.758333 L876.5,355.727273 L875,355.181818 L875,353.233333 Z M877.5,354.108333 L879,354.633333 L879,356.636364 L877.5,356.090909 L877.5,354.108333 Z M880,354.737453 L881.5,354.155992 L881.5,356.252595 L880,357 L880,354.737453 Z M881.5,357.256393 L881.5,359.252595 L880,360 L880,358.025661 L881.5,357.256393 Z M881.5,365.252595 L880,366 L880,364.025661 L881.5,363.256393 L881.5,365.252595 Z M881.5,362.252595 L880,363 L880,361.025661 L881.5,360.256393 L881.5,362.252595 Z M879,357.664738 L879,359.636364 L877.5,359.090909 L877.5,357.123354 L879,357.664738 Z M879,365.636364 L877.5,365.090909 L877.5,363.123354 L879,363.664738 L879,365.636364 Z M879,362.636364 L877.5,362.090909 L877.5,360.123354 L879,360.664738 L879,362.636364 Z M876.5,356.762431 L876.5,358.727273 L875,358.181818 L875,356.221047 L876.5,356.762431 Z M876.5,364.727273 L875,364.181818 L875,362.221047 L876.5,362.762431 L876.5,364.727273 Z M876.5,361.727273 L875,361.181818 L875,359.221047 L876.5,359.762431 L876.5,361.727273 Z M874,356.203462 L874,358.168065 L872.5,358.672258 L872.5,356.692093 L874,356.203462 Z M874,364.168065 L872.5,364.672258 L872.5,362.692093 L874,362.203462 L874,364.168065 Z M874,361.168065 L872.5,361.672258 L872.5,359.692093 L874,359.203462 L874,361.168065 Z" id="icon_background_tiles_16x16"></path>
        </g>
    </g>
</svg>