<?xml version="1.0" encoding="UTF-8"?>
<svg width="32px" height="32px" viewBox="0 0 32 32" version="1.1" xmlns="http://www.w3.org/2000/svg" xmlns:xlink="http://www.w3.org/1999/xlink">
    <!-- Generator: Sketch 53.2 (72643) - https://sketchapp.com -->
    <title>icon_configuration_32x32</title>
    <desc>Created with Sketch.</desc>
    <g id="Page-1" stroke="none" stroke-width="1" fill="none" fill-rule="evenodd">
        <g id="QGIS-icons" transform="translate(-1436.000000, -337.000000)" fill="#662D85">
            <path d="M1464.22513,354.568001 C1464.29093,354.056001 1464.34027,353.544 1464.34027,353.000002 C1464.34027,352.456003 1464.29092,351.944002 1464.22513,351.432002 L1467.69584,348.792003 C1468.00837,348.552003 1468.09061,348.120002 1467.89322,347.768002 L1464.60345,342.232001 C1464.40607,341.880002 1463.96195,341.752001 1463.60007,341.880002 L1459.50431,343.480002 C1458.64897,342.840001 1457.72783,342.312002 1456.72445,341.912002 L1456.0994,337.672001 C1456.05005,337.288 1455.70462,337 1455.2934,337 L1448.71386,337 C1448.30264,337 1447.95722,337.288 1447.90787,337.672 L1447.28281,341.912001 C1446.27943,342.312001 1445.3583,342.856001 1444.50296,343.480001 L1440.40719,341.880001 C1440.02887,341.736001 1439.6012,341.880001 1439.40381,342.232 L1436.11404,347.768 C1435.90021,348.120001 1435.9989,348.552 1436.31143,348.792001 L1439.78214,351.432002 C1439.71634,351.944002 1439.66699,352.472002 1439.66699,353.000002 C1439.66699,353.528001 1439.71634,354.056001 1439.78214,354.568001 L1436.31143,357.208001 C1435.9989,357.448 1435.91666,357.880001 1436.11404,358.232001 L1439.40381,363.768002 C1439.6012,364.120001 1440.04532,364.248001 1440.40719,364.120001 L1444.50296,362.520001 C1445.3583,363.16 1446.27943,363.688 1447.28281,364.088 L1447.90787,368.328 C1447.95721,368.711999 1448.30264,369 1448.71386,369 L1455.2934,369 C1455.70462,369 1456.05005,368.711999 1456.09939,368.328 L1456.72445,364.088 C1457.72783,363.688 1458.64897,363.144 1459.50431,362.520001 L1463.60007,364.120001 C1463.97839,364.264001 1464.40606,364.120001 1464.60345,363.768002 L1467.89322,358.232001 C1468.09061,357.880001 1468.00836,357.448002 1467.69583,357.208001 L1464.22513,354.568001 L1464.22513,354.568001 Z M1452.00363,358.600002 C1448.829,358.600002 1446.24653,356.088002 1446.24653,353.000002 C1446.24653,349.912001 1448.829,347.400001 1452.00363,347.400001 C1455.17826,347.400001 1457.76073,349.912001 1457.76073,353.000002 C1457.76073,356.088002 1455.17826,358.600002 1452.00363,358.600002 Z" id="icon_configuration_32x32"></path>
        </g>
    </g>
</svg>