<?xml version="1.0" encoding="UTF-8"?>
<svg width="24px" height="21px" viewBox="0 0 24 21" version="1.1" xmlns="http://www.w3.org/2000/svg" xmlns:xlink="http://www.w3.org/1999/xlink">
    <!-- Generator: Sketch 53.2 (72643) - https://sketchapp.com -->
    <title>icon_time_map_advanced_24x24</title>
    <desc>Created with Sketch.</desc>
    <g id="Page-1" stroke="none" stroke-width="1" fill="none" fill-rule="evenodd">
        <g id="QGIS-icons-Copy" transform="translate(-813.000000, -152.000000)" fill="#662D85">
            <path d="M832.616744,160.991026 C832.006177,160.95671 831.461081,160.72262 831.177826,160.144572 C830.903325,159.584364 831.087314,158.982356 830.638708,158.478494 C830.16525,157.946671 829.607023,158.101586 829.010576,157.887972 C828.419354,157.676287 828.012357,157.097345 828.012357,156.469494 L828.012357,153.456866 C828.012357,151.517251 825,151.511508 825,153.456866 L825,156.469494 C825,157.2902 824.3137,157.975809 823.493822,157.975809 C822.60367,157.975809 822.081403,157.283516 821.987643,156.469494 C821.893837,155.65519 821.37317,154.96318 820.481465,154.96318 C819.661021,154.96318 818.975287,155.648129 818.975287,156.469494 L818.975287,159.482123 C818.975287,160.313985 818.300942,160.988437 817.469108,160.988437 L814.456752,160.988437 C812.517312,160.988437 812.511522,164.001066 814.456752,164.001066 L817.469108,164.001066 C818.289787,164.001066 818.975287,164.687427 818.975287,165.50738 C818.975287,166.397612 818.283057,166.919879 817.469108,167.013695 C816.654878,167.10751 815.96293,167.628224 815.96293,168.520009 C815.96293,169.340479 816.647865,170.026323 817.469108,170.026323 L820.481465,170.026323 C821.081583,170.026323 821.634209,169.6569 821.867196,169.105212 C822.111338,168.527164 821.936763,167.946997 822.428812,167.454903 C823.356665,166.52692 825,167.207821 825,168.520009 L825,171.63196 C825.115646,173.453659 827.896428,173.458366 828.009156,171.63196 L828.012357,171.63196 L828.012357,171.532637 C828.012357,170.741116 828.622877,170.092695 829.398558,170.031501 L832.625028,170.031501 C834.446562,169.915844 834.451269,167.134859 832.625028,167.022073 L829.398558,167.018872 C829.43819,167.015766 829.478103,167.013695 829.518535,167.013695 C827.632894,167.013695 827.541958,164.109991 829.432683,164.003655 L835.543248,164.003655 C837.482688,164.003655 837.488478,160.991026 835.543248,160.991026 L832.616744,160.991026 Z" id="icon_time_map_advanced_24x24"></path>
        </g>
    </g>
</svg>