<?xml version="1.0" encoding="UTF-8"?>
<svg width="25px" height="25px" viewBox="0 0 25 25" version="1.1" xmlns="http://www.w3.org/2000/svg" xmlns:xlink="http://www.w3.org/1999/xlink">
    <!-- Generator: Sketch 53.2 (72643) - https://sketchapp.com -->
    <title>icon_geocoding_24x24</title>
    <desc>Created with Sketch.</desc>
    <g id="Page-1" stroke="none" stroke-width="1" fill="none" fill-rule="evenodd">
        <g id="QGIS-icons-Copy" transform="translate(-488.000000, -344.000000)">
            <g id="icon_geocoding_24x24" transform="translate(490.000000, 346.000000)">
                <circle id="Oval-Copy-5" stroke="#434B54" stroke-width="2" cx="10.85" cy="10.9" r="9"></circle>
                <path d="M9.44575642,13.9067503 L15.6460056,7.58045539 L17.25,9.21705766 L10.840822,15.7565287 L9.46340488,17.1804554 L4.45,12.1101891 L6.05399444,10.4735868 L9.44575642,13.9067503 Z" id="Icons-/-Check-Red-Copy" fill="#434B54"></path>
                <path d="M0.5,11.05 L0.5,10.35" id="Line-Copy-5" stroke="#434B54" stroke-width="2.5" stroke-linecap="round" transform="translate(0.500000, 10.700000) rotate(-270.000000) translate(-0.500000, -10.700000) "></path>
                <path d="M21.2,11.05 L21.2,10.35" id="Line-Copy-6" stroke="#434B54" stroke-width="2.5" stroke-linecap="round" transform="translate(21.200000, 10.700000) rotate(-90.000000) translate(-21.200000, -10.700000) "></path>
                <path d="M10.85,1.4 L10.85,1.51850754e-14" id="Line-Copy-5" stroke="#434B54" stroke-width="2.5" stroke-linecap="round" transform="translate(10.850000, 0.700000) rotate(-180.000000) translate(-10.850000, -0.700000) "></path>
                <path d="M10.85,21.4 L10.85,20.7" id="Line-Copy-6" stroke="#434B54" stroke-width="2.5" stroke-linecap="round" transform="translate(10.850000, 21.050000) rotate(-360.000000) translate(-10.850000, -21.050000) "></path>
            </g>
        </g>
    </g>
</svg>