<?xml version="1.0" encoding="UTF-8"?>
<svg width="24px" height="24px" viewBox="0 0 24 24" version="1.1" xmlns="http://www.w3.org/2000/svg" xmlns:xlink="http://www.w3.org/1999/xlink">
    <!-- Generator: Sketch 53.2 (72643) - https://sketchapp.com -->
    <title>icon_background_tiles_24x24</title>
    <desc>Created with Sketch.</desc>
    <g id="Page-1" stroke="none" stroke-width="1" fill="none" fill-rule="evenodd">
        <g id="QGIS-icons-Copy" transform="translate(-813.000000, -345.000000)" fill="#434B54">
            <path d="M833.25,367.568262 L833.25,364.115322 L835.520835,362.950736 L835.520835,361.5 L833.25,362.631488 L833.25,359.615322 L835.520835,358.450736 L835.520835,357 L833.25,358.131488 L833.25,355.115322 L835.520835,353.950736 L835.520835,352.5 L833.25,353.631488 L833.25,350.615322 L835.520835,349.450736 L835.520835,348 L833.25,349.131488 L833.25,346.152528 L836.12,345.04 L836.333333,345 C836.706667,345 837,345.293333 837,345.666667 L837,365.826668 C837,366.133334 836.799998,366.373334 836.519999,366.466667 L833.25,367.568262 Z M831.75,368.073582 L829.5,368.83156 L829.5,366.038491 L831.75,364.88459 L831.75,368.073582 Z M828,368.65 L825.75,367.8625 L825.75,364.685031 L828,365.497107 L828,368.65 Z M824.25,367.3375 L822,366.55 L822,363.331571 L824.25,364.143647 L824.25,367.3375 Z M820.5,366.39382 L818.25,367.266011 L818.25,364.038139 L820.5,363.305194 L820.5,366.39382 Z M816.75,367.847471 L813.88,368.959999 L813.666667,369 C813.293333,369 813,368.706667 813,368.333333 L813,348.173333 C813,347.866667 813.2,347.626667 813.48,347.533333 L816.75,346.431738 L816.75,349.512581 L814.498886,350.269245 L814.498886,351.760077 L816.75,351.026769 L816.75,354.012581 L814.498886,354.769245 L814.498886,356.260077 L816.75,355.526769 L816.75,358.512581 L814.498886,359.269245 L814.498886,360.760077 L816.75,360.026769 L816.75,363.012581 L814.498886,363.769245 L814.498886,365.260077 L816.75,364.526769 L816.75,367.847471 Z M818.25,345.926419 L820.5,345.16844 L820.5,348.252097 L818.25,349.008387 L818.25,345.926419 Z M822,345.35 L824.25,346.1375 L824.25,349.090909 L822,348.272727 L822,345.35 Z M825.75,346.6625 L828,347.45 L828,350.454545 L825.75,349.636364 L825.75,346.6625 Z M829.5,347.60618 L831.75,346.733989 L831.75,349.878893 L829.5,351 L829.5,347.60618 Z M831.75,351.38459 L831.75,354.378893 L829.5,355.5 L829.5,352.538491 L831.75,351.38459 Z M831.75,363.378893 L829.5,364.5 L829.5,361.538491 L831.75,360.38459 L831.75,363.378893 Z M831.75,358.878893 L829.5,360 L829.5,357.038491 L831.75,355.88459 L831.75,358.878893 Z M828,351.997107 L828,354.954545 L825.75,354.136364 L825.75,351.185031 L828,351.997107 Z M828,363.954545 L825.75,363.136364 L825.75,360.185031 L828,360.997107 L828,363.954545 Z M828,359.454545 L825.75,358.636364 L825.75,355.685031 L828,356.497107 L828,359.454545 Z M824.25,350.643647 L824.25,353.590909 L822,352.772727 L822,349.831571 L824.25,350.643647 Z M824.25,362.590909 L822,361.772727 L822,358.831571 L824.25,359.643647 L824.25,362.590909 Z M824.25,358.090909 L822,357.272727 L822,354.331571 L824.25,355.143647 L824.25,358.090909 Z M820.5,349.805194 L820.5,352.752097 L818.25,353.508387 L818.25,350.538139 L820.5,349.805194 Z M820.5,361.752097 L818.25,362.508387 L818.25,359.538139 L820.5,358.805194 L820.5,361.752097 Z M820.5,357.252097 L818.25,358.008387 L818.25,355.038139 L820.5,354.305194 L820.5,357.252097 Z" id="icon_background_tiles_24x24"></path>
        </g>
    </g>
</svg>