<?xml version="1.0" encoding="UTF-8"?>
<svg width="32px" height="32px" viewBox="0 0 32 32" version="1.1" xmlns="http://www.w3.org/2000/svg" xmlns:xlink="http://www.w3.org/1999/xlink">
    <!-- Generator: Sketch 53.2 (72643) - https://sketchapp.com -->
    <title>icon_help_32x32</title>
    <desc>Created with Sketch.</desc>
    <g id="Page-1" stroke="none" stroke-width="1" fill="none" fill-rule="evenodd">
        <g id="QGIS-icons-Copy" transform="translate(-1112.000000, -337.000000)">
            <g id="icon_help_32x32" transform="translate(1112.000000, 337.000000)">
                <path d="M14.557,18.897 C14.557,18.1689964 14.7214984,17.5670024 15.0505,17.091 C15.3795016,16.6149976 15.8589969,16.0900029 16.489,15.516 C16.9510023,15.0959979 17.2904989,14.7425014 17.5075,14.4555 C17.7245011,14.1684986 17.833,13.8430018 17.833,13.479 C17.833,12.9609974 17.6265021,12.5515015 17.2135,12.2505 C16.8004979,11.9494985 16.2510034,11.799 15.565,11.799 C14.9069967,11.799 14.3225026,11.9354986 13.8115,12.2085 C13.3004974,12.4815014 12.8700018,12.8629975 12.52,13.353 L9.979,11.862 C10.5670029,10.9659955 11.361495,10.2730024 12.3625,9.783 C13.363505,9.29299755 14.5499931,9.048 15.922,9.048 C17.5320081,9.048 18.8234951,9.39099657 19.7965,10.077 C20.7695049,10.7630034 21.256,11.7149939 21.256,12.933 C21.256,13.5070029 21.1615009,14.0109978 20.9725,14.445 C20.7834991,14.8790022 20.5525014,15.2464985 20.2795,15.5475 C20.0064986,15.8485015 19.6530022,16.194998 19.219,16.587 C18.7009974,17.0490023 18.3230012,17.4374984 18.085,17.7525 C17.8469988,18.0675016 17.728,18.4489978 17.728,18.897 L14.557,18.897 Z M16.153,24.168 C15.5789971,24.168 15.0995019,23.9825019 14.7145,23.6115 C14.3294981,23.2404981 14.137,22.7890027 14.137,22.257 C14.137,21.7249973 14.3259981,21.2805018 14.704,20.9235 C15.0820019,20.5664982 15.5649971,20.388 16.153,20.388 C16.7410029,20.388 17.2239981,20.5664982 17.602,20.9235 C17.9800019,21.2805018 18.169,21.7249973 18.169,22.257 C18.169,22.7890027 17.9765019,23.2404981 17.5915,23.6115 C17.2064981,23.9825019 16.7270029,24.168 16.153,24.168 Z" id="?" fill="#8F9FB3" fill-rule="nonzero"></path>
                <circle id="Oval" stroke="#8F9FB3" stroke-width="2.5" cx="16" cy="16" r="14.75"></circle>
            </g>
        </g>
    </g>
</svg>