<?xml version="1.0" encoding="UTF-8"?>
<svg width="16px" height="16px" viewBox="0 0 16 16" version="1.1" xmlns="http://www.w3.org/2000/svg" xmlns:xlink="http://www.w3.org/1999/xlink">
    <!-- Generator: Sketch 53.2 (72643) - https://sketchapp.com -->
    <title>icon_configuration_16x16</title>
    <desc>Created with Sketch.</desc>
    <g id="Page-1" stroke="none" stroke-width="1" fill="none" fill-rule="evenodd">
        <g id="QGIS-icons" transform="translate(-1556.000000, -353.000000)" fill="#662D85">
            <path d="M1570.11256,361.784 C1570.14546,361.528001 1570.17014,361.272 1570.17014,361.000001 C1570.17014,360.728001 1570.14546,360.472001 1570.11256,360.216001 L1571.84792,358.896001 C1572.00418,358.776002 1572.0453,358.560001 1571.94661,358.384001 L1570.30173,355.616001 C1570.20303,355.440001 1569.98098,355.376 1569.80004,355.440001 L1567.75216,356.240001 C1567.32448,355.920001 1566.86392,355.656001 1566.36223,355.456001 L1566.0497,353.336 C1566.02502,353.144 1565.85231,353 1565.6467,353 L1562.35693,353 C1562.15132,353 1561.97861,353.144 1561.95393,353.336 L1561.64141,355.456 C1561.13972,355.656 1560.67915,355.928001 1560.25148,356.24 L1558.2036,355.44 C1558.01443,355.368 1557.8006,355.44 1557.70191,355.616 L1556.05702,358.384 C1555.9501,358.56 1555.99945,358.776 1556.15571,358.896 L1557.89107,360.216001 C1557.85817,360.472001 1557.8335,360.736001 1557.8335,361.000001 C1557.8335,361.264001 1557.85817,361.528001 1557.89107,361.784 L1556.15571,363.104 C1555.99945,363.224 1555.95833,363.44 1556.05702,363.616001 L1557.70191,366.384001 C1557.8006,366.56 1558.02266,366.624 1558.2036,366.56 L1560.25148,365.76 C1560.67915,366.08 1561.13972,366.344 1561.64141,366.544 L1561.95393,368.664 C1561.97861,368.856 1562.15132,369 1562.35693,369 L1565.6467,369 C1565.85231,369 1566.02502,368.856 1566.0497,368.664 L1566.36223,366.544 C1566.86391,366.344 1567.32448,366.072 1567.75215,365.76 L1569.80004,366.56 C1569.9892,366.632001 1570.20303,366.56 1570.30173,366.384001 L1571.94661,363.616001 C1572.0453,363.44 1572.00418,363.224001 1571.84792,363.104 L1570.11256,361.784 L1570.11256,361.784 Z M1564.00182,363.800001 C1562.4145,363.800001 1561.12327,362.544001 1561.12327,361.000001 C1561.12327,359.456 1562.4145,358.200001 1564.00182,358.200001 C1565.58913,358.200001 1566.88037,359.456 1566.88037,361.000001 C1566.88037,362.544001 1565.58913,363.800001 1564.00182,363.800001 Z" id="icon_configuration_16x16"></path>
        </g>
    </g>
</svg>