<?xml version="1.0" encoding="UTF-8"?>
<svg width="26px" height="23px" viewBox="0 0 26 23" version="1.1" xmlns="http://www.w3.org/2000/svg" xmlns:xlink="http://www.w3.org/1999/xlink">
    <!-- Generator: Sketch 53.2 (72643) - https://sketchapp.com -->
    <title>icon_time_map_advanced_24x24</title>
    <desc>Created with Sketch.</desc>
    <g id="Page-1" stroke="none" stroke-width="1" fill="none" fill-rule="evenodd" stroke-linecap="round" stroke-linejoin="round">
        <g id="QGIS-icons" transform="translate(-812.000000, -151.000000)" stroke="#662D85" stroke-width="1.5">
            <path d="M832.616744,160.87426 C832.006177,160.84039 831.461081,160.609339 831.177826,160.038798 C830.903325,159.485866 831.087314,158.891676 830.638708,158.394358 C830.16525,157.869441 829.607023,158.022344 829.010576,157.811504 C828.419354,157.602569 828.012357,157.031146 828.012357,156.411449 L828.012357,153.437945 C828.012357,151.52352 825,151.517852 825,153.437945 L825,156.411449 C825,157.221496 824.3137,157.898201 823.493822,157.898201 C822.60367,157.898201 822.081403,157.214899 821.987643,156.411449 C821.893837,155.60772 821.37317,154.924697 820.481465,154.924697 C819.661021,154.924697 818.975287,155.600751 818.975287,156.411449 L818.975287,159.384952 C818.975287,160.206011 818.300942,160.871704 817.469108,160.871704 L814.456752,160.871704 C812.517312,160.871704 812.511522,163.845208 814.456752,163.845208 L817.469108,163.845208 C818.289787,163.845208 818.975287,164.522656 818.975287,165.33196 C818.975287,166.21063 818.283057,166.726115 817.469108,166.818711 C816.654878,166.911308 815.96293,167.42526 815.96293,168.305463 C815.96293,169.115278 816.647865,169.792215 817.469108,169.792215 L820.481465,169.792215 C821.081583,169.792215 821.634209,169.427589 821.867196,168.883066 C822.111338,168.312525 821.936763,167.739894 822.428812,167.25419 C823.356665,166.338258 825,167.010317 825,168.305463 L825,171.377 C825.115646,173.17504 827.896428,173.179686 828.009156,171.377 L828.012357,171.377 L828.012357,171.278967 C828.012357,170.497725 828.622877,169.857725 829.398558,169.797326 L832.625028,169.797326 C834.446562,169.683171 834.451269,166.938302 832.625028,166.826982 L829.398558,166.823822 C829.43819,166.820756 829.478103,166.818711 829.518535,166.818711 C827.632894,166.818711 827.541958,163.952719 829.432683,163.847763 L835.543248,163.847763 C837.482688,163.847763 837.488478,160.87426 835.543248,160.87426 L832.616744,160.87426 Z" id="icon_time_map_advanced_24x24"></path>
        </g>
    </g>
</svg>