<?xml version="1.0" encoding="UTF-8"?>
<svg width="32px" height="28px" viewBox="0 0 32 28" version="1.1" xmlns="http://www.w3.org/2000/svg" xmlns:xlink="http://www.w3.org/1999/xlink">
    <!-- Generator: Sketch 53.2 (72643) - https://sketchapp.com -->
    <title>icon_time_map_simple_32x32</title>
    <desc>Created with Sketch.</desc>
    <g id="Page-1" stroke="none" stroke-width="1" fill="none" fill-rule="evenodd">
        <g id="QGIS-icons-Copy" transform="translate(-425.000000, -145.000000)" fill="#F0A023">
            <path d="M451.155658,156.988035 C450.341569,156.942281 449.614775,156.63016 449.237101,155.859429 C448.8711,155.112485 449.116418,154.309808 448.518277,153.637992 C447.887,152.928894 447.142697,153.135448 446.347435,152.850629 C445.559139,152.568383 445.016476,151.79646 445.016476,150.959326 L445.016476,146.942488 C445.016476,144.356334 441,144.348677 441,146.942488 L441,150.959326 C441,152.0536 440.084934,152.967745 438.991762,152.967745 C437.804894,152.967745 437.108537,152.044688 436.983524,150.959326 C436.858449,149.873587 436.164226,148.950907 434.975287,148.950907 C433.881362,148.950907 432.967049,149.864172 432.967049,150.959326 L432.967049,154.976164 C432.967049,156.085313 432.067923,156.984583 430.958811,156.984583 L426.942336,156.984583 C424.356416,156.984583 424.348697,161.001421 426.942336,161.001421 L430.958811,161.001421 C432.05305,161.001421 432.967049,161.91657 432.967049,163.00984 C432.967049,164.196816 432.044075,164.893172 430.958811,165.018259 C429.87317,165.143346 428.950573,165.837632 428.950573,167.026678 C428.950573,168.120639 429.86382,169.035098 430.958811,169.035098 L434.975287,169.035098 C435.775444,169.035098 436.512279,168.542533 436.822928,167.806949 C437.148451,167.036218 436.915684,166.262663 437.57175,165.606538 C438.808887,164.369226 441,165.277094 441,167.026678 L441,171.175947 C441.154195,173.604879 444.861904,173.611155 445.012208,171.175947 L445.016476,171.175947 L445.016476,171.043517 C445.016476,169.988155 445.830502,169.123593 446.864745,169.042001 L451.166704,169.042001 C453.595416,168.887793 453.601692,165.179812 451.166704,165.029431 L446.864745,165.025163 C446.917586,165.021021 446.970805,165.018259 447.024713,165.018259 C444.510525,165.018259 444.389278,161.146655 446.910244,161.004873 L455.057664,161.004873 C457.643584,161.004873 457.651303,156.988035 455.057664,156.988035 L451.155658,156.988035 Z" id="icon_time_map_simple_32x32"></path>
        </g>
    </g>
</svg>