<?xml version="1.0" encoding="UTF-8"?>
<svg width="18px" height="16px" viewBox="0 0 18 16" version="1.1" xmlns="http://www.w3.org/2000/svg" xmlns:xlink="http://www.w3.org/1999/xlink">
    <!-- Generator: Sketch 53.2 (72643) - https://sketchapp.com -->
    <title>icon_time_map_advanced_16x16</title>
    <desc>Created with Sketch.</desc>
    <g id="Page-1" stroke="none" stroke-width="1" fill="none" fill-rule="evenodd" stroke-linecap="round" stroke-linejoin="round">
        <g id="QGIS-icons" transform="translate(-868.000000, -159.000000)" stroke="#662D85">
            <path d="M882.077829,165.916173 C881.670784,165.893593 881.307388,165.739559 881.11855,165.359199 C880.93555,164.990577 881.058209,164.594451 880.759139,164.262905 C880.4435,163.912961 880.071349,164.014896 879.673718,163.874336 C879.27957,163.735046 879.008238,163.354097 879.008238,162.940966 L879.008238,160.95863 C879.008238,159.682347 877,159.678568 877,160.95863 L877,162.940966 C877,163.480998 876.542467,163.932134 875.995881,163.932134 C875.402447,163.932134 875.054269,163.476599 874.991762,162.940966 C874.929224,162.405147 874.582113,161.949798 873.987643,161.949798 C873.440681,161.949798 872.983524,162.400501 872.983524,162.940966 L872.983524,164.923302 C872.983524,165.470674 872.533962,165.91447 871.979406,165.91447 L869.971168,165.91447 C868.678208,165.91447 868.674348,167.896805 869.971168,167.896805 L871.979406,167.896805 C872.526525,167.896805 872.983524,168.348437 872.983524,168.887973 C872.983524,169.473753 872.522038,169.81741 871.979406,169.879141 C871.436585,169.940872 870.975287,170.283506 870.975287,170.870309 C870.975287,171.410186 871.43191,171.861477 871.979406,171.861477 L873.987643,171.861477 C874.387722,171.861477 874.756139,171.618393 874.911464,171.255378 C875.074226,170.875017 874.957842,170.493262 875.285875,170.16946 C875.904444,169.558839 877,170.006878 877,170.870309 L877,172.918 C877.077098,174.116693 878.930952,174.119791 879.006104,172.918 L879.008238,172.918 L879.008238,172.852645 C879.008238,172.331817 879.415251,171.90515 879.932372,171.864884 L882.083352,171.864884 C883.297708,171.788781 883.300846,169.958868 882.083352,169.884654 L879.932372,169.882548 C879.958793,169.880504 879.985402,169.879141 880.012357,169.879141 C878.755263,169.879141 878.694639,167.968479 879.955122,167.898509 L884.028832,167.898509 C885.321792,167.898509 885.325652,165.916173 884.028832,165.916173 L882.077829,165.916173 Z" id="icon_time_map_advanced_16x16"></path>
        </g>
    </g>
</svg>