<?xml version="1.0" encoding="UTF-8"?>
<svg width="16px" height="14px" viewBox="0 0 16 14" version="1.1" xmlns="http://www.w3.org/2000/svg" xmlns:xlink="http://www.w3.org/1999/xlink">
    <!-- Generator: Sketch 53.2 (72643) - https://sketchapp.com -->
    <title>icon_time_map_advanced_16x16</title>
    <desc>Created with Sketch.</desc>
    <g id="Page-1" stroke="none" stroke-width="1" fill="none" fill-rule="evenodd">
        <g id="QGIS-icons-Copy" transform="translate(-869.000000, -160.000000)" fill="#662D85">
            <path d="M882.077829,165.994017 C881.670784,165.97114 881.307388,165.81508 881.11855,165.429714 C880.93555,165.056243 881.058209,164.654904 880.759139,164.318996 C880.4435,163.964447 880.071349,164.067724 879.673718,163.925314 C879.27957,163.784192 879.008238,163.39823 879.008238,162.979663 L879.008238,160.971244 C879.008238,159.678167 877,159.674339 877,160.971244 L877,162.979663 C877,163.5268 876.542467,163.983872 875.995881,163.983872 C875.402447,163.983872 875.054269,163.522344 874.991762,162.979663 C874.929224,162.436793 874.582113,161.975453 873.987643,161.975453 C873.440681,161.975453 872.983524,162.432086 872.983524,162.979663 L872.983524,164.988082 C872.983524,165.542657 872.533962,165.992291 871.979406,165.992291 L869.971168,165.992291 C868.678208,165.992291 868.674348,168.000711 869.971168,168.000711 L871.979406,168.000711 C872.526525,168.000711 872.983524,168.458285 872.983524,169.00492 C872.983524,169.598408 872.522038,169.946586 871.979406,170.00913 C871.436585,170.071673 870.975287,170.418816 870.975287,171.013339 C870.975287,171.56032 871.43191,172.017549 871.979406,172.017549 L873.987643,172.017549 C874.387722,172.017549 874.756139,171.771266 874.911464,171.403475 C875.074226,171.018109 874.957842,170.631332 875.285875,170.303269 C875.904444,169.684613 877,170.138547 877,171.013339 L877,173.087973 C877.077098,174.302439 878.930952,174.305577 879.006104,173.087973 L879.008238,173.087973 L879.008238,173.021758 C879.008238,172.494078 879.415251,172.061797 879.932372,172.021001 L882.083352,172.021001 C883.297708,171.943896 883.300846,170.089906 882.083352,170.014716 L879.932372,170.012582 C879.958793,170.01051 879.985402,170.00913 880.012357,170.00913 C878.755263,170.00913 878.694639,168.073327 879.955122,168.002437 L884.028832,168.002437 C885.321792,168.002437 885.325652,165.994017 884.028832,165.994017 L882.077829,165.994017 Z" id="icon_time_map_advanced_16x16"></path>
        </g>
    </g>
</svg>