<?xml version="1.0" encoding="UTF-8"?>
<svg width="16px" height="16px" viewBox="0 0 16 16" version="1.1" xmlns="http://www.w3.org/2000/svg" xmlns:xlink="http://www.w3.org/1999/xlink">
    <!-- Generator: Sketch 53.2 (72643) - https://sketchapp.com -->
    <title>icon_help_16x16</title>
    <desc>Created with Sketch.</desc>
    <g id="Page-1" stroke="none" stroke-width="1" fill="none" fill-rule="evenodd">
        <g id="QGIS-icons-Copy" transform="translate(-1232.000000, -353.000000)">
            <g id="icon_help_16x16" transform="translate(1232.000000, 353.000000)">
                <path d="M7.038,9.598 C7.038,9.11266424 7.14766557,8.71133492 7.367,8.394 C7.58633443,8.07666508 7.9059979,7.72666858 8.326,7.344 C8.63400154,7.0639986 8.86033261,6.82833429 9.005,6.637 C9.14966739,6.44566571 9.222,6.22866788 9.222,5.986 C9.222,5.64066494 9.08433471,5.36766767 8.809,5.167 C8.53366529,4.96633233 8.16733562,4.866 7.71,4.866 C7.27133114,4.866 6.88166837,4.95699909 6.541,5.139 C6.20033163,5.32100091 5.9133345,5.5753317 5.68,5.902 L3.986,4.908 C4.37800196,4.31066368 4.90766333,3.8486683 5.575,3.522 C6.24233667,3.1953317 7.03332876,3.032 7.948,3.032 C9.0213387,3.032 9.88233009,3.26066438 10.531,3.718 C11.1796699,4.17533562 11.504,4.80999594 11.504,5.622 C11.504,6.00466858 11.4410006,6.34066522 11.315,6.63 C11.1889994,6.91933478 11.0350009,7.16433233 10.853,7.365 C10.6709991,7.56566767 10.4353348,7.79666536 10.146,8.058 C9.80066494,8.36600154 9.54866746,8.62499895 9.39,8.835 C9.23133254,9.04500105 9.152,9.29933184 9.152,9.598 L7.038,9.598 Z M8.102,13.112 C7.71933142,13.112 7.39966795,12.9883346 7.143,12.741 C6.88633205,12.4936654 6.758,12.1926684 6.758,11.838 C6.758,11.4833316 6.88399874,11.1870012 7.136,10.949 C7.38800126,10.7109988 7.70999804,10.592 8.102,10.592 C8.49400196,10.592 8.81599874,10.7109988 9.068,10.949 C9.32000126,11.1870012 9.446,11.4833316 9.446,11.838 C9.446,12.1926684 9.31766795,12.4936654 9.061,12.741 C8.80433205,12.9883346 8.48466858,13.112 8.102,13.112 Z" id="?" fill="#8F9FB3" fill-rule="nonzero"></path>
                <circle id="Oval-Copy-2" stroke="#8F9FB3" stroke-width="1.5" cx="8" cy="8" r="7.25"></circle>
            </g>
        </g>
    </g>
</svg>