<?xml version="1.0" encoding="UTF-8"?>
<svg width="34px" height="30px" viewBox="0 0 34 30" version="1.1" xmlns="http://www.w3.org/2000/svg" xmlns:xlink="http://www.w3.org/1999/xlink">
    <!-- Generator: Sketch 53.2 (72643) - https://sketchapp.com -->
    <title>icon_time_map_advanced_32x32</title>
    <desc>Created with Sketch.</desc>
    <g id="Page-1" stroke="none" stroke-width="1" fill="none" fill-rule="evenodd" stroke-linecap="round" stroke-linejoin="round">
        <g id="QGIS-icons" transform="translate(-748.000000, -144.000000)" stroke="#662D85" stroke-width="2">
            <path d="M775.155658,156.832346 C774.341569,156.787186 773.614775,156.479119 773.237101,155.718397 C772.8711,154.981154 773.116418,154.188901 772.518277,153.52581 C771.887,152.825922 771.142697,153.029793 770.347435,152.748673 C769.559139,152.470093 769.016476,151.708194 769.016476,150.881932 L769.016476,146.91726 C769.016476,144.364693 765,144.357136 765,146.91726 L765,150.881932 C765,151.961995 764.084934,152.864268 762.991762,152.864268 C761.804894,152.864268 761.108537,151.953198 760.983524,150.881932 C760.858449,149.810294 760.164226,148.899596 758.975287,148.899596 C757.881362,148.899596 756.967049,149.801001 756.967049,150.881932 L756.967049,154.846603 C756.967049,155.941348 756.067923,156.828939 754.958811,156.828939 L750.942336,156.828939 C748.356416,156.828939 748.348697,160.79361 750.942336,160.79361 L754.958811,160.79361 C756.05305,160.79361 756.967049,161.696874 756.967049,162.775946 C756.967049,163.947507 756.044075,164.63482 754.958811,164.758282 C753.87317,164.881744 752.950573,165.567013 752.950573,166.740618 C752.950573,167.820371 753.86382,168.722953 754.958811,168.722953 L758.975287,168.722953 C759.775444,168.722953 760.512279,168.236786 760.822928,167.510755 C761.148451,166.750034 760.915684,165.986525 761.57175,165.33892 C762.808887,164.117678 765,165.013755 765,166.740618 L765,170.835999 C765.154195,173.233387 768.861904,173.239581 769.012208,170.835999 L769.016476,170.835999 L769.016476,170.705289 C769.016476,169.663634 769.830502,168.8103 770.864745,168.729768 L775.166704,168.729768 C777.595416,168.577561 777.601692,164.917736 775.166704,164.769309 L770.864745,164.765096 C770.917586,164.761008 770.970805,164.758282 771.024713,164.758282 C768.510525,164.758282 768.389278,160.936958 770.910244,160.797018 L779.057664,160.797018 C781.643584,160.797018 781.651303,156.832346 779.057664,156.832346 L775.155658,156.832346 Z" id="icon_time_map_advanced_32x32"></path>
        </g>
    </g>
</svg>