<?xml version="1.0" encoding="UTF-8"?>
<svg width="26px" height="23px" viewBox="0 0 26 23" version="1.1" xmlns="http://www.w3.org/2000/svg" xmlns:xlink="http://www.w3.org/1999/xlink">
    <!-- Generator: Sketch 53.2 (72643) - https://sketchapp.com -->
    <title>icon_time_map_simple_24x24</title>
    <desc>Created with Sketch.</desc>
    <g id="Page-1" stroke="none" stroke-width="1" fill="none" fill-rule="evenodd" stroke-linecap="round" stroke-linejoin="round">
        <g id="QGIS-icons" transform="translate(-488.000000, -151.000000)" stroke="#8F9FB3" stroke-width="1.5">
            <path d="M508.616744,160.87426 C508.006177,160.84039 507.461081,160.609339 507.177826,160.038798 C506.903325,159.485866 507.087314,158.891676 506.638708,158.394358 C506.16525,157.869441 505.607023,158.022344 505.010576,157.811504 C504.419354,157.602569 504.012357,157.031146 504.012357,156.411449 L504.012357,153.437945 C504.012357,151.52352 501,151.517852 501,153.437945 L501,156.411449 C501,157.221496 500.3137,157.898201 499.493822,157.898201 C498.60367,157.898201 498.081403,157.214899 497.987643,156.411449 C497.893837,155.60772 497.37317,154.924697 496.481465,154.924697 C495.661021,154.924697 494.975287,155.600751 494.975287,156.411449 L494.975287,159.384952 C494.975287,160.206011 494.300942,160.871704 493.469108,160.871704 L490.456752,160.871704 C488.517312,160.871704 488.511522,163.845208 490.456752,163.845208 L493.469108,163.845208 C494.289787,163.845208 494.975287,164.522656 494.975287,165.33196 C494.975287,166.21063 494.283057,166.726115 493.469108,166.818711 C492.654878,166.911308 491.96293,167.42526 491.96293,168.305463 C491.96293,169.115278 492.647865,169.792215 493.469108,169.792215 L496.481465,169.792215 C497.081583,169.792215 497.634209,169.427589 497.867196,168.883066 C498.111338,168.312525 497.936763,167.739894 498.428812,167.25419 C499.356665,166.338258 501,167.010317 501,168.305463 L501,171.377 C501.115646,173.17504 503.896428,173.179686 504.009156,171.377 L504.012357,171.377 L504.012357,171.278967 C504.012357,170.497725 504.622877,169.857725 505.398558,169.797326 L508.625028,169.797326 C510.446562,169.683171 510.451269,166.938302 508.625028,166.826982 L505.398558,166.823822 C505.43819,166.820756 505.478103,166.818711 505.518535,166.818711 C503.632894,166.818711 503.541958,163.952719 505.432683,163.847763 L511.543248,163.847763 C513.482688,163.847763 513.488478,160.87426 511.543248,160.87426 L508.616744,160.87426 Z" id="icon_time_map_simple_24x24"></path>
        </g>
    </g>
</svg>