<?xml version="1.0" encoding="UTF-8"?>
<svg width="24px" height="24px" viewBox="0 0 24 24" version="1.1" xmlns="http://www.w3.org/2000/svg" xmlns:xlink="http://www.w3.org/1999/xlink">
    <!-- Generator: Sketch 53.2 (72643) - https://sketchapp.com -->
    <title>icon_help_24x24</title>
    <desc>Created with Sketch.</desc>
    <g id="Page-1" stroke="none" stroke-width="1" fill="none" fill-rule="evenodd">
        <g id="QGIS-icons-Copy" transform="translate(-1176.000000, -345.000000)">
            <g id="icon_help_24x24" transform="translate(1176.000000, 345.000000)">
                <path d="M10.906,13.626 C10.906,13.0019969 11.0469986,12.486002 11.329,12.078 C11.6110014,11.669998 12.0219973,11.2200025 12.562,10.728 C12.958002,10.3679982 13.2489991,10.0650012 13.435,9.819 C13.6210009,9.57299877 13.714,9.29400156 13.714,8.982 C13.714,8.53799778 13.5370018,8.18700129 13.183,7.929 C12.8289982,7.67099871 12.3580029,7.542 11.77,7.542 C11.2059972,7.542 10.7050022,7.65899883 10.267,7.893 C9.82899781,8.12700117 9.4600015,8.4539979 9.16,8.874 L6.982,7.596 C7.48600252,6.82799616 8.16699571,6.2340021 9.025,5.814 C9.88300429,5.3939979 10.8999941,5.184 12.076,5.184 C13.4560069,5.184 14.5629958,5.47799706 15.397,6.066 C16.2310042,6.65400294 16.648,7.46999478 16.648,8.514 C16.648,9.00600246 16.5670008,9.43799814 16.405,9.81 C16.2429992,10.1820019 16.0450012,10.4969987 15.811,10.755 C15.5769988,11.0130013 15.2740019,11.3099983 14.902,11.646 C14.4579978,12.042002 14.134001,12.3749987 13.93,12.645 C13.725999,12.9150014 13.624,13.2419981 13.624,13.626 L10.906,13.626 Z M12.274,18.144 C11.7819975,18.144 11.3710017,17.9850016 11.041,17.667 C10.7109984,17.3489984 10.546,16.9620023 10.546,16.506 C10.546,16.0499977 10.7079984,15.6690015 11.032,15.363 C11.3560016,15.0569985 11.7699975,14.904 12.274,14.904 C12.7780025,14.904 13.1919984,15.0569985 13.516,15.363 C13.8400016,15.6690015 14.002,16.0499977 14.002,16.506 C14.002,16.9620023 13.8370017,17.3489984 13.507,17.667 C13.1769983,17.9850016 12.7660025,18.144 12.274,18.144 Z" id="?" fill="#8F9FB3" fill-rule="nonzero"></path>
                <circle id="Oval-Copy" stroke="#8F9FB3" stroke-width="2" cx="12" cy="12" r="11"></circle>
            </g>
        </g>
    </g>
</svg>