<?xml version="1.0" encoding="UTF-8"?>
<svg width="24px" height="24px" viewBox="0 0 24 24" version="1.1" xmlns="http://www.w3.org/2000/svg" xmlns:xlink="http://www.w3.org/1999/xlink">
    <!-- Generator: Sketch 53.2 (72643) - https://sketchapp.com -->
    <title>icon_routes_24x24</title>
    <desc>Created with Sketch.</desc>
    <g id="Page-1" stroke="none" stroke-width="1" fill="none" fill-rule="evenodd">
        <g id="QGIS-icons-Copy" transform="translate(-165.000000, -345.000000)" fill="#434B54">
            <g id="icon_routes_24x24" transform="translate(165.000000, 345.000000)">
                <path d="M7.53488372,4.8372093 C7.53488372,3.50508721 6.40661337,2.41860465 5.02325581,2.41860465 C3.63989826,2.41860465 2.51162791,3.50508721 2.51162791,4.8372093 C2.51162791,6.1693314 3.63989826,7.25581395 5.02325581,7.25581395 C6.40661337,7.25581395 7.53488372,6.1693314 7.53488372,4.8372093 Z M10.0465116,4.8372093 C10.0465116,5.41351744 9.9778343,6.00872093 9.72274709,6.52834302 L6.15152616,13.840843 C5.94549419,14.2565407 5.49418605,14.5116279 5.02325581,14.5116279 C4.55232558,14.5116279 4.10101744,14.2565407 3.90479651,13.840843 L0.323764535,6.52834302 C0.0686773256,6.00872093 0,5.41351744 0,4.8372093 C0,2.16351744 2.24672965,0 5.02325581,0 C7.79978198,0 10.0465116,2.16351744 10.0465116,4.8372093 Z" id="Location_icon"></path>
                <path d="M21.4883721,13.8372093 C21.4883721,12.5050872 20.3601017,11.4186047 18.9767442,11.4186047 C17.5933866,11.4186047 16.4651163,12.5050872 16.4651163,13.8372093 C16.4651163,15.1693314 17.5933866,16.255814 18.9767442,16.255814 C20.3601017,16.255814 21.4883721,15.1693314 21.4883721,13.8372093 Z M24,13.8372093 C24,14.4135174 23.9313227,15.0087209 23.6762355,15.528343 L20.1050145,22.840843 C19.8989826,23.2565407 19.4476744,23.5116279 18.9767442,23.5116279 C18.505814,23.5116279 18.0545058,23.2565407 17.8582849,22.840843 L14.2772529,15.528343 C14.0221657,15.0087209 13.9534884,14.4135174 13.9534884,13.8372093 C13.9534884,11.1635174 16.200218,9 18.9767442,9 C21.7532703,9 24,11.1635174 24,13.8372093 Z" id="Location_icon-Copy"></path>
                <path d="M11.1039023,17.2018802 L11.1319582,13.7990964 C11.1379556,13.0892606 10.5685739,12.5166551 9.86261097,12.5225621 C9.157111,12.5284653 8.57797214,13.110681 8.57197472,13.8205168 C8.56272689,14.9150602 7.66939373,15.8129087 6.5808221,15.8220172 L3.32644891,15.8492478 L3.33234801,15.1510487 L6.58672121,15.1238181 C7.2926841,15.117911 7.87158953,14.53593 7.87758499,13.826327 C7.88683282,12.7317836 8.77993844,11.8334716 9.86851007,11.8243631 C10.9573132,11.8152526 11.8355957,12.6987427 11.8263479,13.7932861 L11.7977923,17.1730352 C11.8355465,17.8271183 12.3937523,18.3528086 13.0675418,18.3471707 C13.7422572,18.3415251 14.3077995,17.8071301 14.3549477,17.1302285 C14.367754,16.0254158 15.1410731,15.1423018 16.1926202,15.0501905 L16.2199427,15.0487983 L18.4276391,15.0303257 L18.42174,15.7285248 L16.2286258,15.7468754 C15.5529382,15.8128027 15.0573143,16.3994394 15.0484503,17.1472319 C14.9746523,18.2115969 14.1025329,19.0366603 13.0616427,19.0453698 C12.0230671,19.05406 11.1631412,18.2441875 11.1039023,17.2018802 Z" id="Fill-1" stroke="#434B54" transform="translate(10.877044, 15.434866) rotate(-330.000000) translate(-10.877044, -15.434866) "></path>
            </g>
        </g>
    </g>
</svg>