<?xml version="1.0" encoding="UTF-8"?>
<svg width="32px" height="28px" viewBox="0 0 32 28" version="1.1" xmlns="http://www.w3.org/2000/svg" xmlns:xlink="http://www.w3.org/1999/xlink">
    <!-- Generator: Sketch 53.2 (72643) - https://sketchapp.com -->
    <title>icon_general_32x32</title>
    <desc>Created with Sketch.</desc>
    <g id="Page-1" stroke="none" stroke-width="1" fill="none" fill-rule="evenodd">
        <g id="QGIS-icons" transform="translate(-101.000000, -145.000000)">
            <g id="icon_general_32x32" transform="translate(101.000000, 145.000000)">
                <path d="M29.0885493,14.8031505 C30.6632314,14.8031505 31.9439625,13.5195086 31.9439625,11.9412477 L31.9439625,7.60161028 C31.9439625,6.02334939 30.6632314,4.73970752 29.0885493,4.73970752 L27.6905464,4.73970752 L27.6905464,6.12387556 L29.0885493,6.12387556 C29.9017364,6.12387556 30.5629331,6.78657501 30.5629331,7.60161028 L30.5629331,11.9412477 C30.5629331,12.756283 29.9017364,13.4189825 29.0885493,13.4189825 C27.5138672,13.4189825 26.2331361,14.7026243 26.2331361,16.2816585 C26.2331361,17.8591461 27.5138672,19.142788 29.0885493,19.142788 C29.9017364,19.142788 30.5629331,19.8062607 30.5629331,20.6205227 C30.5629331,21.4355579 29.9017364,22.0982574 29.0885493,22.0982574 C27.5138672,22.0982574 26.2331361,23.3826725 26.2331361,24.9609334 C26.2331361,25.7751954 25.5711679,26.4378948 24.7587523,26.4378948 C23.9455652,26.4378948 23.28514,25.7751954 23.28514,24.9609334 C23.28514,23.3826725 22.0036373,22.0982574 20.4289553,22.0982574 C19.6165397,22.0982574 18.9545714,21.4355579 18.9545714,20.6205227 C18.9545714,19.0422618 17.6738403,17.7586199 16.0991582,17.7586199 C14.5252477,17.7586199 13.2437451,19.0422618 13.2437451,20.6205227 C13.2437451,21.4355579 12.5817768,22.0982574 11.7693612,22.0982574 L7.43956421,22.0982574 C6.6263771,22.0982574 5.96518038,21.4355579 5.96518038,20.6205227 C5.96518038,19.8062607 6.6263771,19.142788 7.43956421,19.142788 C9.01347475,19.142788 10.2949774,17.8591461 10.2949774,16.2816585 C10.2949774,14.7026243 9.01347475,13.4189825 7.43956421,13.4189825 L3.1097672,13.4189825 C2.29658009,13.4189825 1.63538336,12.756283 1.63538336,11.9412477 C1.63538336,11.1269858 2.29658009,10.463513 3.1097672,10.463513 L7.43956421,10.463513 C9.01347475,10.463513 10.2949774,9.17987116 10.2949774,7.60161028 L10.2949774,3.26197281 C10.2949774,2.44693755 10.9561741,1.7842381 11.7693612,1.7842381 C12.5817768,1.7842381 13.2437451,2.44693755 13.2437451,3.26197281 C13.2437451,4.84023369 14.5252477,6.12387556 16.0991582,6.12387556 L16.2102578,6.12387556 L16.2102578,4.73970752 L16.0991582,4.73970752 C15.2867427,4.73970752 14.6247744,4.07623479 14.6247744,3.26197281 C14.6247744,1.68371193 13.3432718,0.400070055 11.7693612,0.400070055 C10.1946792,0.400070055 8.91394805,1.68371193 8.91394805,3.26197281 L8.91394805,7.60161028 C8.91394805,8.41664554 8.2519798,9.07934499 7.43956421,9.07934499 L3.1097672,9.07934499 C1.53508514,9.07934499 0.253582492,10.3629869 0.253582492,11.9412477 C0.253582492,13.5195086 1.53508514,14.8031505 3.1097672,14.8031505 L7.43956421,14.8031505 C8.2519798,14.8031505 8.91394805,15.4658499 8.91394805,16.2816585 C8.91394805,17.0959205 8.2519798,17.7586199 7.43956421,17.7586199 C5.86488215,17.7586199 4.58415103,19.0422618 4.58415103,20.6205227 C4.58415103,22.1987836 5.86488215,23.4824254 7.43956421,23.4824254 L11.7693612,23.4824254 C13.3432718,23.4824254 14.6247744,22.1987836 14.6247744,20.6205227 C14.6247744,19.8062607 15.2867427,19.142788 16.0991582,19.142788 C16.9123454,19.142788 17.5735421,19.8062607 17.5735421,20.6205227 C17.5735421,22.1987836 18.8542732,23.4824254 20.4289553,23.4824254 C21.2421424,23.4824254 21.9033391,24.1458982 21.9033391,24.9609334 C21.9033391,26.538421 23.1840702,27.8220629 24.7587523,27.8220629 C26.3334343,27.8220629 27.6141655,26.538421 27.6141655,24.9609334 C27.6141655,24.1458982 28.2753622,23.4824254 29.0885493,23.4824254 C30.6632314,23.4824254 31.9439625,22.1987836 31.9439625,20.6205227 C31.9439625,19.0422618 30.6632314,17.7586199 29.0885493,17.7586199 C28.2753622,17.7586199 27.6141655,17.0959205 27.6141655,16.2816585 C27.6141655,15.4658499 28.2753622,14.8031505 29.0885493,14.8031505" id="Fill-1" fill="#F0A023"></path>
                <path d="M21.8551188,0.00964187328 L21.8381453,0.00964187328 C18.1788033,0.00964187328 15.213062,2.98289669 15.213062,6.64978209 C15.213062,7.0263686 15.2315786,7.38903609 15.2662973,7.74165096 C15.6188841,11.273986 17.7189745,13.6734683 21.1183127,16.1703837 C21.284962,16.2925617 21.6043733,16.4680959 21.846632,16.4680959 C22.1297816,16.4680959 22.3226628,16.3412782 22.5348321,16.171157 C26.2196344,13.2211006 28.480202,10.7968733 28.480202,6.64978209 C28.480202,6.45646253 28.4717152,6.26468953 28.4555132,6.07523636 C28.1646484,2.67667851 25.3208081,0.00964187328 21.8551188,0.00964187328 M21.8551188,1.4085022 C24.5461972,1.4085022 26.8353112,3.51104573 27.0652256,6.19509449 C27.0783415,6.34820358 27.0845137,6.50131267 27.0845137,6.64978209 C27.0845137,10.0545262 25.3123213,12.1377377 21.8211717,14.9516972 C18.3793997,12.4006523 16.9273901,10.3313598 16.6550418,7.60246088 C16.6241809,7.29160303 16.6087504,6.97069256 16.6087504,6.64978209 C16.6087504,3.76004132 18.9541857,1.4085022 21.8381453,1.4085022 L21.8551188,1.4085022" id="Fill-29" fill="#662D85"></path>
                <path d="M22.7234699,2.98800033 C21.1480164,2.98800033 19.8703713,4.26854909 19.8703713,5.84758325 C19.8703713,7.42739069 21.1480164,8.70793945 22.7234699,8.70793945 C24.299695,8.70793945 25.5765685,7.42739069 25.5765685,5.84758325 C25.5765685,4.26854909 24.299695,2.98800033 22.7234699,2.98800033 M22.7234699,3.89428242 C23.7982039,3.89428242 24.673113,4.77040667 24.673113,5.84758325 C24.673113,6.92553311 23.7982039,7.80165736 22.7234699,7.80165736 C21.6487359,7.80165736 20.7738268,6.92553311 20.7738268,5.84758325 C20.7738268,4.77040667 21.6487359,3.89428242 22.7234699,3.89428242" id="Fill-30" fill="#662D85"></path>
            </g>
        </g>
    </g>
</svg>