<?xml version="1.0" encoding="UTF-8"?>
<svg width="24px" height="21px" viewBox="0 0 24 21" version="1.1" xmlns="http://www.w3.org/2000/svg" xmlns:xlink="http://www.w3.org/1999/xlink">
    <!-- Generator: Sketch 53.2 (72643) - https://sketchapp.com -->
    <title>icon_general_24x24</title>
    <desc>Created with Sketch.</desc>
    <g id="Page-1" stroke="none" stroke-width="1" fill="none" fill-rule="evenodd">
        <g id="QGIS-icons" transform="translate(-165.000000, -153.000000)">
            <g id="icon_general_24x24" transform="translate(165.000000, 153.000000)">
                <path d="M21.816412,11.1023629 C22.9974235,11.1023629 23.9579719,10.1396315 23.9579719,8.95593581 L23.9579719,5.70120771 C23.9579719,4.51751205 22.9974235,3.55478064 21.816412,3.55478064 L20.7679098,3.55478064 L20.7679098,4.59290667 L21.816412,4.59290667 C22.4263023,4.59290667 22.9221999,5.08993126 22.9221999,5.70120771 L22.9221999,8.95593581 C22.9221999,9.56721225 22.4263023,10.0642368 21.816412,10.0642368 C20.6354004,10.0642368 19.6748521,11.0269682 19.6748521,12.2112439 C19.6748521,13.3943596 20.6354004,14.357091 21.816412,14.357091 C22.4263023,14.357091 22.9221999,14.8546955 22.9221999,15.465392 C22.9221999,16.0766685 22.4263023,16.573693 21.816412,16.573693 C20.6354004,16.573693 19.6748521,17.5370044 19.6748521,18.7207001 C19.6748521,19.3313965 19.1783759,19.8284211 18.5690642,19.8284211 C17.9591739,19.8284211 17.463855,19.3313965 17.463855,18.7207001 C17.463855,17.5370044 16.502728,16.573693 15.3217165,16.573693 C14.7124048,16.573693 14.2159286,16.0766685 14.2159286,15.465392 C14.2159286,14.2816963 13.2553802,13.3189649 12.0743687,13.3189649 C10.8939358,13.3189649 9.9328088,14.2816963 9.9328088,15.465392 C9.9328088,16.0766685 9.43633261,16.573693 8.82702092,16.573693 L5.57967316,16.573693 C4.96978283,16.573693 4.47388528,16.0766685 4.47388528,15.465392 C4.47388528,14.8546955 4.96978283,14.357091 5.57967316,14.357091 C6.76010606,14.357091 7.72123304,13.3943596 7.72123304,12.2112439 C7.72123304,11.0269682 6.76010606,10.0642368 5.57967316,10.0642368 L2.3323254,10.0642368 C1.72243506,10.0642368 1.22653752,9.56721225 1.22653752,8.95593581 C1.22653752,8.34523932 1.72243506,7.84763477 2.3323254,7.84763477 L5.57967316,7.84763477 C6.76010606,7.84763477 7.72123304,6.88490337 7.72123304,5.70120771 L7.72123304,2.44647961 C7.72123304,1.83520316 8.21713059,1.33817857 8.82702092,1.33817857 C9.43633261,1.33817857 9.9328088,1.83520316 9.9328088,2.44647961 C9.9328088,3.63017527 10.8939358,4.59290667 12.0743687,4.59290667 L12.1576934,4.59290667 L12.1576934,3.55478064 L12.0743687,3.55478064 C11.465057,3.55478064 10.9685808,3.0571761 10.9685808,2.44647961 C10.9685808,1.26278395 10.0074538,0.300052541 8.82702092,0.300052541 C7.64600938,0.300052541 6.68546104,1.26278395 6.68546104,2.44647961 L6.68546104,5.70120771 C6.68546104,6.31248415 6.18898485,6.80950874 5.57967316,6.80950874 L2.3323254,6.80950874 C1.15131385,6.80950874 0.190186869,7.77224014 0.190186869,8.95593581 C0.190186869,10.1396315 1.15131385,11.1023629 2.3323254,11.1023629 L5.57967316,11.1023629 C6.18898485,11.1023629 6.68546104,11.5993875 6.68546104,12.2112439 C6.68546104,12.8219404 6.18898485,13.3189649 5.57967316,13.3189649 C4.39866162,13.3189649 3.43811328,14.2816963 3.43811328,15.465392 C3.43811328,16.6490877 4.39866162,17.6118191 5.57967316,17.6118191 L8.82702092,17.6118191 C10.0074538,17.6118191 10.9685808,16.6490877 10.9685808,15.465392 C10.9685808,14.8546955 11.465057,14.357091 12.0743687,14.357091 C12.684259,14.357091 13.1801566,14.8546955 13.1801566,15.465392 C13.1801566,16.6490877 14.1407049,17.6118191 15.3217165,17.6118191 C15.9316068,17.6118191 16.4275043,18.1094236 16.4275043,18.7207001 C16.4275043,19.9038158 17.3880527,20.8665472 18.5690642,20.8665472 C19.7500758,20.8665472 20.7106241,19.9038158 20.7106241,18.7207001 C20.7106241,18.1094236 21.2065216,17.6118191 21.816412,17.6118191 C22.9974235,17.6118191 23.9579719,16.6490877 23.9579719,15.465392 C23.9579719,14.2816963 22.9974235,13.3189649 21.816412,13.3189649 C21.2065216,13.3189649 20.7106241,12.8219404 20.7106241,12.2112439 C20.7106241,11.5993875 21.2065216,11.1023629 21.816412,11.1023629" id="Fill-1" fill="#F0A023"></path>
                <path d="M16.3913391,0.00723140496 L16.3786089,0.00723140496 C13.6341025,0.00723140496 11.4097965,2.23717252 11.4097965,4.98733657 C11.4097965,5.26977645 11.423684,5.54177707 11.4497229,5.80623822 C11.7141631,8.45548946 13.2892309,10.2551012 15.8387345,12.1277878 C15.9637215,12.2194213 16.2032799,12.3510719 16.384974,12.3510719 C16.5973362,12.3510719 16.7419971,12.2559587 16.9011241,12.1283678 C19.6647258,9.91582541 21.3601515,8.09765496 21.3601515,4.98733657 C21.3601515,4.8423469 21.3537864,4.69851715 21.3416349,4.55642727 C21.1234863,2.00750888 18.9906061,0.00723140496 16.3913391,0.00723140496 M16.3913391,1.05637665 C18.4096479,1.05637665 20.1264834,2.6332843 20.2989192,4.64632087 C20.3087561,4.76115269 20.3133853,4.8759845 20.3133853,4.98733657 C20.3133853,7.54089463 18.984241,9.10330331 16.3658788,11.2137729 C13.7845498,9.30048926 12.6955426,7.74851983 12.4912814,5.70184566 C12.4681356,5.46870227 12.4565628,5.22801942 12.4565628,4.98733657 C12.4565628,2.82003099 14.2156392,1.05637665 16.3786089,1.05637665 L16.3913391,1.05637665" id="Fill-29" fill="#662D85"></path>
                <path d="M17.0426025,2.24100025 C15.8610123,2.24100025 14.9027785,3.20141182 14.9027785,4.38568744 C14.9027785,5.57054302 15.8610123,6.53095459 17.0426025,6.53095459 C18.2247713,6.53095459 19.1824264,5.57054302 19.1824264,4.38568744 C19.1824264,3.20141182 18.2247713,2.24100025 17.0426025,2.24100025 M17.0426025,2.92071182 C17.848653,2.92071182 18.5048348,3.577805 18.5048348,4.38568744 C18.5048348,5.19414983 17.848653,5.85124302 17.0426025,5.85124302 C16.2365519,5.85124302 15.5803701,5.19414983 15.5803701,4.38568744 C15.5803701,3.577805 16.2365519,2.92071182 17.0426025,2.92071182" id="Fill-30" fill="#662D85"></path>
            </g>
        </g>
    </g>
</svg>