<?xml version="1.0" encoding="UTF-8"?>
<svg width="24px" height="24px" viewBox="0 0 24 24" version="1.1" xmlns="http://www.w3.org/2000/svg" xmlns:xlink="http://www.w3.org/1999/xlink">
    <!-- Generator: Sketch 53.2 (72643) - https://sketchapp.com -->
    <title>icon_configuration_24x24</title>
    <desc>Created with Sketch.</desc>
    <g id="Page-1" stroke="none" stroke-width="1" fill="none" fill-rule="evenodd">
        <g id="QGIS-icons" transform="translate(-1500.000000, -345.000000)" fill="#662D85">
            <path d="M1521.16885,358.176001 C1521.21819,357.792001 1521.2552,357.408 1521.2552,357.000001 C1521.2552,356.592002 1521.21819,356.208001 1521.16885,355.824002 L1523.77188,353.844002 C1524.00627,353.664002 1524.06796,353.340002 1523.91992,353.076001 L1521.45259,348.924001 C1521.30455,348.660001 1520.97146,348.564001 1520.70006,348.660001 L1517.62823,349.860001 C1516.98673,349.380001 1516.29588,348.984001 1515.54334,348.684001 L1515.07455,345.504001 C1515.03754,345.216 1514.77847,345 1514.47005,345 L1509.5354,345 C1509.22698,345 1508.96791,345.216 1508.9309,345.504 L1508.46211,348.684001 C1507.70958,348.984001 1507.01872,349.392001 1506.37722,349.860001 L1503.30539,348.660001 C1503.02165,348.552 1502.7009,348.660001 1502.55286,348.924 L1500.08553,353.076 C1499.92516,353.340001 1499.99918,353.664 1500.23357,353.844001 L1502.8366,355.824002 C1502.78726,356.208001 1502.75025,356.604001 1502.75025,357.000001 C1502.75025,357.396001 1502.78726,357.792001 1502.8366,358.176001 L1500.23357,360.156 C1499.99918,360.336 1499.93749,360.660001 1500.08553,360.924001 L1502.55286,365.076001 C1502.7009,365.340001 1503.03399,365.436 1503.30539,365.340001 L1506.37722,364.14 C1507.01872,364.62 1507.70957,365.016 1508.46211,365.316 L1508.9309,368.496 C1508.96791,368.784 1509.22698,369 1509.5354,369 L1514.47005,369 C1514.77847,369 1515.03754,368.784 1515.07455,368.496 L1515.54334,365.316 C1516.29587,365.016 1516.98672,364.608 1517.62823,364.14 L1520.70005,365.340001 C1520.9838,365.448001 1521.30455,365.340001 1521.45259,365.076001 L1523.91992,360.924001 C1524.06796,360.660001 1524.00627,360.336001 1523.77188,360.156 L1521.16884,358.176001 L1521.16885,358.176001 Z M1512.00272,361.200002 C1509.62175,361.200002 1507.6849,359.316002 1507.6849,357.000001 C1507.6849,354.684 1509.62175,352.800001 1512.00272,352.800001 C1514.3837,352.800001 1516.32055,354.684 1516.32055,357.000001 C1516.32055,359.316002 1514.3837,361.200002 1512.00272,361.200002 Z" id="icon_configuration_24x24"></path>
        </g>
    </g>
</svg>