<?xml version="1.0" encoding="UTF-8"?>
<svg width="16px" height="14px" viewBox="0 0 16 14" version="1.1" xmlns="http://www.w3.org/2000/svg" xmlns:xlink="http://www.w3.org/1999/xlink">
    <!-- Generator: Sketch 53.2 (72643) - https://sketchapp.com -->
    <title>icon_general_16x16</title>
    <desc>Created with Sketch.</desc>
    <g id="Page-1" stroke="none" stroke-width="1" fill="none" fill-rule="evenodd">
        <g id="QGIS-icons" transform="translate(-221.000000, -160.000000)">
            <g id="icon_general_16x16" transform="translate(221.000000, 160.000000)">
                <path d="M14.4490683,7.38479163 C15.2326732,7.38479163 15.87,6.74442607 15.87,5.95708504 L15.87,3.79218653 C15.87,3.0048455 15.2326732,2.36447994 14.4490683,2.36447994 L13.7533838,2.36447994 L13.7533838,3.05499461 L14.4490683,3.05499461 C14.8537324,3.05499461 15.182762,3.38559298 15.182762,3.79218653 L15.182762,5.95708504 C15.182762,6.3636786 14.8537324,6.69427696 14.4490683,6.69427696 C13.6654634,6.69427696 13.0281366,7.33464252 13.0281366,8.12236931 C13.0281366,8.90932458 13.6654634,9.54969014 14.4490683,9.54969014 C14.8537324,9.54969014 15.182762,9.88067427 15.182762,10.2868821 C15.182762,10.6934756 14.8537324,11.024074 14.4490683,11.024074 C13.6654634,11.024074 13.0281366,11.6648253 13.0281366,12.4521663 C13.0281366,12.8583741 12.6987231,13.1889725 12.2944428,13.1889725 C11.8897787,13.1889725 11.561133,12.8583741 11.561133,12.4521663 C11.561133,11.6648253 10.9234223,11.024074 10.1398174,11.024074 C9.73553719,11.024074 9.40612368,10.6934756 9.40612368,10.2868821 C9.40612368,9.49954103 8.76879684,8.85917547 7.98519197,8.85917547 C7.20197103,8.85917547 6.56426026,9.49954103 6.56426026,10.2868821 C6.56426026,10.6934756 6.23484674,11.024074 5.83056652,11.024074 L3.67594108,11.024074 C3.27127693,11.024074 2.94224735,10.6934756 2.94224735,10.2868821 C2.94224735,9.88067427 3.27127693,9.54969014 3.67594108,9.54969014 C4.45916202,9.54969014 5.09687279,8.90932458 5.09687279,8.12236931 C5.09687279,7.33464252 4.45916202,6.69427696 3.67594108,6.69427696 L1.52131564,6.69427696 C1.11665149,6.69427696 0.787621911,6.3636786 0.787621911,5.95708504 C0.787621911,5.55087725 1.11665149,5.21989312 1.52131564,5.21989312 L3.67594108,5.21989312 C4.45916202,5.21989312 5.09687279,4.57952756 5.09687279,3.79218653 L5.09687279,1.62728802 C5.09687279,1.22069447 5.42590237,0.890096104 5.83056652,0.890096104 C6.23484674,0.890096104 6.56426026,1.22069447 6.56426026,1.62728802 C6.56426026,2.41462905 7.20197103,3.05499461 7.98519197,3.05499461 L8.04047815,3.05499461 L8.04047815,2.36447994 L7.98519197,2.36447994 C7.58091175,2.36447994 7.25149823,2.03349582 7.25149823,1.62728802 C7.25149823,0.839946994 6.61378746,0.199581433 5.83056652,0.199581433 C5.04696166,0.199581433 4.40963481,0.839946994 4.40963481,1.62728802 L4.40963481,3.79218653 C4.40963481,4.19878009 4.0802213,4.52937845 3.67594108,4.52937845 L1.52131564,4.52937845 C0.737710773,4.52937845 0.1,5.16974401 0.1,5.95708504 C0.1,6.74442607 0.737710773,7.38479163 1.52131564,7.38479163 L3.67594108,7.38479163 C4.0802213,7.38479163 4.40963481,7.71539 4.40963481,8.12236931 C4.40963481,8.5285771 4.0802213,8.85917547 3.67594108,8.85917547 C2.89233621,8.85917547 2.25500937,9.49954103 2.25500937,10.2868821 C2.25500937,11.0742231 2.89233621,11.7145886 3.67594108,11.7145886 L5.83056652,11.7145886 C6.61378746,11.7145886 7.25149823,11.0742231 7.25149823,10.2868821 C7.25149823,9.88067427 7.58091175,9.54969014 7.98519197,9.54969014 C8.38985612,9.54969014 8.7188857,9.88067427 8.7188857,10.2868821 C8.7188857,11.0742231 9.35621254,11.7145886 10.1398174,11.7145886 C10.5444816,11.7145886 10.8735111,12.0455728 10.8735111,12.4521663 C10.8735111,13.2391216 11.510838,13.8794872 12.2944428,13.8794872 C13.0780477,13.8794872 13.7153746,13.2391216 13.7153746,12.4521663 C13.7153746,12.0455728 14.0444041,11.7145886 14.4490683,11.7145886 C15.2326732,11.7145886 15.87,11.0742231 15.87,10.2868821 C15.87,9.49954103 15.2326732,8.85917547 14.4490683,8.85917547 C14.0444041,8.85917547 13.7153746,8.5285771 13.7153746,8.12236931 C13.7153746,7.71539 14.0444041,7.38479163 14.4490683,7.38479163" id="Fill-1" stroke="#F0A023" stroke-width="0.2" fill="#F0A023"></path>
                <path d="M10.9275594,0.00481000481 L10.9190726,0.00481000481 C9.08940164,0.00481000481 7.60653102,1.48806638 7.60653102,3.31735161 C7.60653102,3.50521789 7.61578932,3.68614045 7.63314863,3.8620481 C7.80944204,5.62421068 8.85948725,6.82123136 10.5591563,8.0668581 C10.642481,8.12780856 10.8021866,8.21537662 10.923316,8.21537662 C11.0648908,8.21537662 11.1613314,8.15211159 11.2674161,8.06724387 C13.1098172,6.59556037 14.240101,5.38619529 14.240101,3.31735161 C14.240101,3.22091101 14.2358576,3.12524194 14.2277566,3.03073016 C14.0823242,1.33530447 12.660404,0.00481000481 10.9275594,0.00481000481 M10.9275594,0.702654161 C12.2730986,0.702654161 13.4176556,1.75154209 13.5326128,3.09052333 C13.5391708,3.16690428 13.5422569,3.24328523 13.5422569,3.31735161 C13.5422569,5.0158634 12.6561607,6.05510726 10.9105859,7.45889658 C9.18969986,6.18626647 8.46369505,5.15396633 8.32752092,3.79261087 C8.31209043,3.63753439 8.30437518,3.477443 8.30437518,3.31735161 C8.30437518,1.87575758 9.47709283,0.702654161 10.9190726,0.702654161 L10.9275594,0.702654161" id="Fill-29" fill="#662D85"></path>
                <path d="M11.361735,1.49061241 C10.5740082,1.49061241 9.93518567,2.12943492 9.93518567,2.91716171 C9.93518567,3.70527427 10.5740082,4.34409678 11.361735,4.34409678 C12.1498475,4.34409678 12.7882843,3.70527427 12.7882843,2.91716171 C12.7882843,2.12943492 12.1498475,1.49061241 11.361735,1.49061241 M11.361735,1.94272593 C11.899102,1.94272593 12.3365565,2.37979471 12.3365565,2.91716171 C12.3365565,3.45491448 11.899102,3.89198326 11.361735,3.89198326 C10.824368,3.89198326 10.3869134,3.45491448 10.3869134,2.91716171 C10.3869134,2.37979471 10.824368,1.94272593 11.361735,1.94272593" id="Fill-30" fill="#662D85"></path>
            </g>
        </g>
    </g>
</svg>