<svg id="Layer_1" data-name="Layer 1" xmlns="http://www.w3.org/2000/svg" width="70" height="70" viewBox="0 0 70 70">
  <title>tiles</title>
  <rect x="51.06" y="16.49" width="8.8" height="8.8" rx="2.12" fill="#bcbcbc"/>
  <rect x="51.06" y="57.09" width="8.8" height="8.8" rx="2.12" fill="#bcbcbc"/>
  <rect x="51.06" y="26.64" width="8.8" height="8.8" rx="2.12" fill="#bcbcbc"/>
  <rect x="40.91" y="46.94" width="8.8" height="8.8" rx="2.12" fill="#bcbcbc"/>
  <rect x="51.06" y="46.94" width="8.8" height="8.8" rx="2.12" fill="#bcbcbc"/>
  <rect x="51.06" y="36.79" width="8.8" height="8.8" rx="2.12" fill="#bcbcbc"/>
  <rect x="30.76" y="46.94" width="8.8" height="8.8" rx="2.12" fill="#bcbcbc"/>
  <rect x="40.91" y="16.49" width="8.8" height="8.8" rx="2.12" fill="#bcbcbc"/>
  <rect x="40.91" y="57.09" width="8.8" height="8.8" rx="2.12" fill="#bcbcbc"/>
  <rect x="40.91" y="36.79" width="8.8" height="8.8" rx="2.12" fill="#bcbcbc"/>
  <rect x="40.91" y="26.64" width="8.8" height="8.8" rx="2.12" fill="#bcbcbc"/>
  <rect x="61.2" y="26.64" width="8.8" height="8.8" rx="2.12" fill="#bcbcbc"/>
  <rect x="61.2" y="16.49" width="8.8" height="8.8" rx="2.12" fill="#bcbcbc"/>
  <rect x="30.76" y="36.79" width="8.8" height="8.8" rx="2.12" fill="#bcbcbc"/>
  <rect x="61.2" y="46.94" width="8.8" height="8.8" rx="2.12" fill="#bcbcbc"/>
  <rect x="61.2" y="36.79" width="8.8" height="8.8" rx="2.12" fill="#bcbcbc"/>
  <rect x="0.32" y="26.64" width="8.8" height="8.8" rx="2.12" fill="#bcbcbc"/>
  <rect x="20.61" y="26.64" width="8.8" height="8.8" rx="2.12" fill="#bcbcbc"/>
  <rect x="20.61" y="36.79" width="8.8" height="8.8" rx="2.12" fill="#bcbcbc"/>
  <rect x="30.76" y="16.49" width="8.8" height="8.8" rx="2.12" fill="#bcbcbc"/>
  <rect x="30.76" y="26.64" width="8.8" height="8.8" rx="2.12" fill="#bcbcbc"/>
  <rect x="10.46" y="26.64" width="8.8" height="8.8" rx="2.12" fill="#bcbcbc"/>
  <rect x="10.46" y="36.79" width="8.8" height="8.8" rx="2.12" fill="#bcbcbc"/>
  <rect x="20.61" y="16.49" width="8.8" height="8.8" rx="2.12" fill="#bcbcbc"/>
  <rect x="20.61" y="6.34" width="8.8" height="8.8" rx="2.12" fill="#bcbcbc"/>
  <rect x="10.46" y="46.94" width="8.8" height="8.8" rx="2.12" fill="#bcbcbc"/>
</svg>
