<?xml version="1.0" encoding="utf-8"?>
<!-- Generator: Adobe Illustrator 22.1.0, SVG Export Plug-In . SVG Version: 6.00 Build 0)  -->
<svg version="1.1" id="Layer_1" xmlns="http://www.w3.org/2000/svg" xmlns:xlink="http://www.w3.org/1999/xlink" x="0px" y="0px"
	 viewBox="0 0 131.7 36" style="enable-background:new 0 0 131.7 36;" xml:space="preserve">
<style type="text/css">
	.st0{fill:#434B54;}
	.st1{fill:none;}
</style>
<title>TravelTime_logo_horizontal_black</title>
<path class="st0" d="M37.4,19.1c2,0,3.7-1.7,3.7-3.7l0,0V9.8c0-2-1.7-3.7-3.7-3.7l0,0h-1.8v1.8h1.8c1,0,1.9,0.8,1.9,1.9c0,0,0,0,0,0
	v5.6c0,1.1-0.9,1.9-1.9,1.9c-2,0-3.7,1.7-3.7,3.7c0,2,1.7,3.7,3.7,3.7c1.1,0.1,1.9,1,1.8,2.1c-0.1,1-0.8,1.7-1.8,1.8
	c-2,0-3.7,1.7-3.7,3.7l0,0c0,1.1-0.9,1.9-1.9,1.9s-1.9-0.9-1.9-1.9c0,0,0,0,0,0c0-2-1.7-3.7-3.7-3.7c0,0,0,0,0,0
	c-1.1,0-1.9-0.9-1.9-1.9c0-2-1.7-3.7-3.7-3.7c-2,0-3.7,1.7-3.7,3.7c0,1.1-0.9,1.9-1.9,1.9H9.3c-1.1-0.1-1.9-1-1.8-2.1
	c0.1-1,0.8-1.7,1.8-1.8c2,0,3.7-1.7,3.7-3.7c0-2-1.7-3.7-3.7-3.7H3.7c-1.1,0-1.9-0.9-1.9-1.9s0.9-1.9,1.9-1.9c0,0,0,0,0,0h5.6
	c2,0,3.7-1.7,3.7-3.7V4.2c-0.1-1.1,0.7-2,1.8-2.1c1.1-0.1,2,0.7,2.1,1.8c0,0.1,0,0.2,0,0.3c0,2,1.7,3.7,3.7,3.7l0,0h0.1V6.1h-0.1
	c-1.1,0-1.9-0.9-1.9-1.9c0.1-2-1.5-3.8-3.5-3.9s-3.8,1.5-3.9,3.5c0,0.1,0,0.3,0,0.4v5.6c0,1.1-0.9,1.9-1.9,1.9H3.7
	c-2,0-3.7,1.7-3.7,3.7c0,2,1.7,3.7,3.7,3.7h5.6c1.1,0,1.9,0.9,1.9,1.9s-0.9,1.9-1.9,1.9c0,0,0,0,0,0c-2,0.1-3.6,1.9-3.5,3.9
	c0.1,1.9,1.6,3.4,3.5,3.5h5.6c2,0,3.7-1.7,3.7-3.7c0-1.1,0.9-1.9,1.9-1.9c1.1,0,1.9,0.9,1.9,1.9c0,2,1.7,3.7,3.7,3.7
	c1.1,0,1.9,0.9,1.9,1.9c0,2,1.7,3.7,3.7,3.7s3.7-1.7,3.7-3.7c0-1.1,0.9-1.9,1.9-1.9c2-0.1,3.6-1.9,3.5-3.9c-0.1-1.9-1.6-3.4-3.5-3.5
	c-1.1,0-1.9-0.9-1.9-1.9S36.3,19.1,37.4,19.1C37.4,19.1,37.4,19.1,37.4,19.1z"/>
<path class="st0" d="M105.2,8.5c0.5,0,0.9-0.4,0.9-0.9s-0.4-0.9-0.9-0.9l0,0c-0.5,0-0.9,0.4-0.9,0.9S104.7,8.5,105.2,8.5z
	 M105.2,9.6c-1.1,0-2.1-0.9-2.1-2.1s0.9-2.1,2.1-2.1c1.1,0,2.1,0.9,2.1,2.1c0,0,0,0,0,0C107.3,8.7,106.4,9.6,105.2,9.6z"/>
<path class="st0" d="M131.7,13.9c0.1-2.2-1.6-4.1-3.9-4.2c-0.1,0-0.3,0-0.4,0c-2.4-0.2-4.5,1.7-4.6,4.1c0,0.1,0,0.3,0,0.4
	c-0.1,2.3,1.7,4.4,4,4.5c0.2,0,0.4,0,0.6,0c1.5,0.1,3-0.4,4.1-1.4l-1.1-1.4c-0.8,0.5-1.7,0.8-2.6,0.8c-1.1,0.1-2.1-0.7-2.2-1.8h6.1
	C131.7,14.5,131.7,14.2,131.7,13.9z M125.6,13.2c0-1,0.8-1.8,1.8-1.8c1,0,1.8,0.8,1.8,1.8H125.6z"/>
<path class="st0" d="M121.6,13.2c0-2.1-0.8-3.6-3-3.6c-1.1-0.1-2.2,0.6-2.7,1.6c-0.4-1.1-1.4-1.7-2.6-1.6c-1,0-1.9,0.5-2.4,1.3l0,0
	V9.8h-2.8v8.6h2.8V14c0-1.2,0.4-2,1.4-2s1.1,0.7,1.1,1.8v4.7h2.8V14c0-1.2,0.4-2,1.4-2s1.1,0.9,1.1,1.8v4.7h2.8L121.6,13.2z"/>
<rect x="103.8" y="10.5" transform="matrix(1 -2.094389e-03 2.094389e-03 1 -3.015803e-02 0.2204)" class="st0" width="2.8" height="8"/>
<polygon class="st0" points="102.1,6.4 93.1,6.4 93.1,8.6 96.2,8.6 96.2,18.4 99,18.4 99,8.6 102.1,8.6 "/>
<rect x="89.3" y="6.4" class="st0" width="2.8" height="12.1"/>
<path class="st0" d="M87.9,13.9c0.1-2.2-1.6-4.1-3.9-4.2c-0.1,0-0.3,0-0.4,0c-2.4-0.2-4.5,1.7-4.6,4.1c0,0.1,0,0.3,0,0.4
	c-0.1,2.3,1.7,4.4,4,4.5c0.2,0,0.4,0,0.6,0c1.5,0.1,3-0.4,4.1-1.4l-1.1-1.4c-0.8,0.5-1.7,0.8-2.6,0.8c-1.1,0.1-2.1-0.7-2.2-1.8
	c0,0,0,0,0,0h6.1C87.9,14.5,87.9,14.2,87.9,13.9z M81.7,13.2c0-1,0.8-1.8,1.8-1.8c0,0,0,0,0,0c1,0,1.7,0.8,1.7,1.8c0,0,0,0,0,0H81.7
	z"/>
<polygon class="st0" points="76.1,9.8 74.1,15.3 72.2,9.8 69.2,9.8 72.8,18.5 75.4,18.5 78.9,9.8 "/>
<path class="st0" d="M68,10.6c-0.9-0.7-2-1.1-3.2-1c-1.3,0-2.5,0.3-3.7,0.9l0.7,1.8c0.8-0.5,1.7-0.7,2.7-0.8c1.1,0,1.7,0.5,1.8,1.4
	v0.2l-2.2,0.1c-1.6,0.1-3.3,0.7-3.3,2.6c0,1.6,1.3,2.8,2.9,2.8c0.1,0,0.2,0,0.2,0c0.9,0,1.8-0.4,2.4-1.1v0.9H69v-4.8
	C69.1,12.5,68.8,11.4,68,10.6z M66.3,16.1c-0.3,0.5-0.8,0.8-1.4,0.8c-0.8,0-1.3-0.4-1.3-1.1s0.5-1,1.4-1l1.4-0.1V16.1z"/>
<path class="st0" d="M60.8,9.8l-0.2,2.6h-0.1c-0.3-0.2-0.7-0.2-1-0.2c-0.5,0-1,0.2-1.3,0.6c-0.3,0.6-0.4,1.2-0.4,1.8v3.8h-2.8V9.8
	h2.8V11l0,0c0.4-0.8,1.2-1.4,2.1-1.4C60.2,9.6,60.5,9.7,60.8,9.8z"/>
<polygon class="st0" points="55.5,6.4 55.5,8.6 52.4,8.6 52.4,18.4 49.6,18.4 49.6,8.6 46.5,8.6 46.5,6.4 "/>
<path class="st0" d="M93.1,25c0-1.4-0.5-2.4-1.9-2.4c-0.7,0-1.4,0.4-1.8,1c-0.3-0.7-0.9-1.1-1.7-1c-0.6,0-1.2,0.3-1.6,0.9v-0.8h-1.8
	v5.6h1.8v-2.9c0-0.8,0.3-1.4,0.9-1.4s0.7,0.5,0.7,1.2v3.1h1.8v-2.9c0-0.8,0.3-1.4,0.9-1.4s0.7,0.6,0.7,1.2v3.1h1.8V25z"/>
<path class="st0" d="M83.7,22.8c-0.2-0.1-0.4-0.1-0.6-0.1c-0.6,0-1.2,0.3-1.4,0.9v-0.8h-1.8v5.6h1.8v-2.5c0-0.4,0.1-0.8,0.3-1.2
	c0.2-0.3,0.5-0.4,0.8-0.4c0.2,0,0.5,0.1,0.7,0.2h0.1L83.7,22.8z"/>
<path class="st0" d="M76.2,22.6c-1.6,0.1-2.8,1.5-2.8,3.1c0.1,1.6,1.5,2.8,3.1,2.8c1.5-0.1,2.8-1.4,2.8-2.9c0-1.6-1.2-2.9-2.8-2.9
	C76.4,22.6,76.3,22.6,76.2,22.6z M76.2,27c-0.7,0-1.3-0.6-1.3-1.3c0-0.1,0-0.1,0-0.2c0-0.9,0.5-1.5,1.3-1.5s1.2,0.6,1.2,1.5
	c0.1,0.7-0.4,1.3-1.1,1.4C76.3,27,76.3,27,76.2,27z"/>
<path class="st0" d="M73.2,20.5l-0.1,1.3c-0.2-0.1-0.4-0.1-0.7-0.1c-0.6,0-0.7,0.3-0.7,0.8v0.4H73v1.4h-1.2v4.2H70v-4.2h-0.8v-1.4
	H70v-0.3c-0.1-0.6,0.1-1.1,0.4-1.6c0.4-0.4,1-0.6,1.6-0.6C72.4,20.4,72.8,20.4,73.2,20.5z"/>
<path class="st0" d="M68.8,22.8h-1.2v-1.6h-1.8v1.6H65v1.4h0.8v2.2c-0.1,0.6,0,1.2,0.3,1.7c0.4,0.4,0.9,0.5,1.4,0.5
	c0.4,0,0.9-0.1,1.3-0.2l-0.1-1.4C68.5,27,68.4,27,68.2,27c-0.2,0-0.3,0-0.4-0.1c-0.1-0.1-0.2-0.2-0.2-0.8v-2h1.2V22.8z"/>
<path class="st0" d="M63.9,23.3c-0.6-0.4-1.3-0.7-2-0.6c-0.8,0-1.7,0.2-2.4,0.6l0.5,1.2c0.5-0.3,1.1-0.5,1.7-0.5
	c0.7,0,1.2,0.3,1.2,0.9V25h-1.5c-1,0-2.2,0.4-2.2,1.7c0,1,0.8,1.8,1.9,1.8c0,0,0.1,0,0.1,0c0.6,0,1.2-0.3,1.5-0.8l0.1,0.6h1.7v-3.2
	C64.6,24.5,64.4,23.8,63.9,23.3z M62.8,26.8c-0.2,0.3-0.6,0.5-0.9,0.5c-0.5,0-0.9-0.3-0.9-0.7s0.3-0.7,0.9-0.7l0.9-0.1V26.8z"/>
<rect x="56.6" y="20.5" class="st0" width="1.8" height="7.9"/>
<path class="st0" d="M53.3,22.6c-0.7,0-1.4,0.3-1.9,0.8v-0.7h-1.7v7.7h1.8v-2.7c0.4,0.5,1.1,0.8,1.8,0.8c1.5,0,2.6-1.3,2.6-2.7
	c0-0.1,0-0.1,0-0.2c0.1-1.5-0.9-2.8-2.4-2.9C53.4,22.7,53.3,22.7,53.3,22.6z M52.5,27c-0.7,0-1.3-0.6-1.3-1.3c0,0,0-0.1,0-0.1
	c-0.1-0.7,0.4-1.4,1.1-1.5c0.7-0.1,1.4,0.4,1.5,1.1c0,0.1,0,0.2,0,0.3c0.1,0.7-0.5,1.4-1.2,1.4C52.5,27,52.5,27,52.5,27z"/>
<path class="st0" d="M28,1.8c3.5,0,6.4,2.7,6.8,6.2c0,0.2,0,0.4,0,0.6c0,4.4-2.3,7.1-6.8,10.7c-4.5-3.3-6.3-6-6.7-9.5
	c0-0.4-0.1-0.8-0.1-1.2C21.2,4.8,24.2,1.8,28,1.8C28,1.8,28,1.8,28,1.8L28,1.8 M28,0L28,0c-4.7,0-8.6,3.8-8.6,8.6c0,0,0,0,0,0
	c0,0.5,0,0.9,0,1.4c0.5,4.6,3.2,7.7,7.6,10.9c0.3,0.2,0.6,0.3,1,0.4c0.3,0,0.6-0.2,0.9-0.4c4.8-3.8,7.7-6.9,7.7-12.3
	c0-0.2,0-0.5,0-0.8C36.2,3.4,32.5,0,28,0z"/>
<path class="st1" d="M36.5,7.8C36.2,3.4,32.5,0,28,0l0,0c-4.7,0-8.6,3.8-8.6,8.6c0,0,0,0,0,0c0,0.5,0,0.9,0,1.4
	c0.5,4.6,3.2,7.7,7.6,10.9c0.3,0.2,0.6,0.3,1,0.4c0.3,0,0.6-0.2,0.9-0.4c4.8-3.8,7.7-6.9,7.7-12.3C36.6,8.3,36.6,8.1,36.5,7.8z"/>
<path class="st0" d="M29.1,5c1.4,0,2.5,1.1,2.5,2.5c0,1.4-1.1,2.5-2.5,2.5c-1.4,0-2.5-1.1-2.5-2.5C26.6,6.2,27.7,5,29.1,5
	C29.1,5,29.1,5,29.1,5 M29.1,3.8c-2,0-3.7,1.7-3.7,3.7c0,2,1.7,3.7,3.7,3.7c2,0,3.7-1.7,3.7-3.7c0,0,0,0,0,0
	C32.8,5.5,31.2,3.8,29.1,3.8C29.1,3.8,29.1,3.8,29.1,3.8z"/>
</svg>
