<svg viewBox="0 0 224 59" height="60" width="224" xmlns="http://www.w3.org/2000/svg" xmlns:xlink="http://www.w3.org/1999/xlink"><mask id="a" fill="none"><path d="m.00050909.86877944h69.70303031v57.34089796h-69.70303031z" fill="none" fill-rule="evenodd"/></mask><mask id="b" fill="none"><path d="m0 59.7740625h223.507879v-58.15631855h-223.507879z" fill="none" fill-rule="evenodd"/></mask><g fill="none" fill-rule="evenodd" transform="translate(0 -.806452)"><path d="m63.4213576 30.9858198c3.4635151 0 6.2821818-2.6841129 6.2821818-5.9842783v-9.0742419c0-3.3001653-2.8186667-5.98427823-6.2821818-5.98427823h-3.0749091v2.89431453h3.0749091c1.788606 0 3.244606 1.3857137 3.244606 3.0899637v9.0742419c0 1.70425-1.456 3.0899637-3.244606 3.0899637-3.4635152 0-6.2787879 2.6857299-6.2787879 5.9858952 0 3.2985484 2.8152727 5.9826613 6.2787879 5.9826613 1.788606 0 3.244606 1.3873306 3.244606 3.0899637 0 1.70425-1.456 3.0915806-3.244606 3.0915806-3.4635152 0-6.2787879 2.684113-6.2787879 5.9842783 0 1.702633-1.456 3.0899637-3.2446061 3.0899637-1.7869091 0-3.2412121-1.3873307-3.2412121-3.0899637 0-3.3001653-2.8186667-5.9842783-6.2821818-5.9842783-1.7869091 0-3.2429091-1.3873306-3.2429091-3.0915806 0-3.2985484-2.8169697-5.9842782-6.2787879-5.9842782-3.4635151 0-6.2821818 2.6857298-6.2821818 5.9842782 0 1.70425-1.456 3.0915806-3.2429091 3.0915806h-9.5233939c-1.7886061 0-3.2429091-1.3873306-3.2429091-3.0915806 0-1.7026331 1.454303-3.0899637 3.2429091-3.0899637 3.4635151 0 6.2804848-2.6841129 6.2804848-5.9826613 0-3.3001653-2.8169697-5.9858952-6.2804848-5.9858952h-9.52339396c-1.78860606 0-3.24290909-1.3857137-3.24290909-3.0899637 0-1.702633 1.45430303-3.0899637 3.24290909-3.0899637h9.52339396c3.4635151 0 6.2804848-2.6841129 6.2804848-5.9842782v-9.07424194c0-1.70425 1.456-3.08996371 3.2429091-3.08996371s3.2429091 1.38571371 3.2429091 3.08996371c0 3.30016534 2.8186667 5.98427824 6.2821818 5.98427824h.2426667v-2.89431453h-.2426667c-1.788606 0-3.244606-1.38733064-3.244606-3.08996371 0-3.30016532-2.8169697-5.98427822-6.2804849-5.98427822-3.4635151 0-6.2804848 2.6841129-6.2804848 5.98427822v9.07424194c0 1.70425-1.4543031 3.0899637-3.2429091 3.0899637h-9.52339396c-3.46351515 0-6.28048485 2.6841129-6.28048485 5.9842782 0 3.3001654 2.8169697 5.9842783 6.28048485 5.9842783h9.52339396c1.788606 0 3.2429091 1.3873306 3.2429091 3.0915806 0 1.7026331-1.4543031 3.0883468-3.2429091 3.0883468-3.4635152 0-6.28048487 2.6857298-6.28048487 5.9842782 0 3.3001653 2.81696967 5.9858952 6.28048487 5.9858952h9.5233939c3.4635152 0 6.2804849-2.6857299 6.2804849-5.9858952 0-1.7026331 1.456-3.0899637 3.244606-3.0899637 1.7869091 0 3.2412121 1.3873306 3.2412121 3.0899637 0 3.3001653 2.8186667 5.9858952 6.2804849 5.9858952 1.7886061 0 3.2429091 1.3857137 3.2429091 3.0899637 0 3.2985484 2.8186667 5.9842782 6.2804848 5.9842782 3.4635152 0 6.2821819-2.6857298 6.2821819-5.9842782 0-1.70425 1.454303-3.0899637 3.2412121-3.0899637 3.4635151 0 6.2821818-2.6857299 6.2821818-5.9858952 0-3.2985484-2.8186667-5.9842782-6.2821818-5.9842782-1.7869091 0-3.2412121-1.3857137-3.2412121-3.0883468 0-1.70425 1.454303-3.0915806 3.2412121-3.0915806" fill="#7b4b9d" mask="url(#a)" transform="translate(0 1.564385)"/><path d="m178.550061 17.1805863c-1.932849 0-3.500849-1.5053669-3.500849-3.3599919 0-1.856242 1.568-3.359992 3.500849-3.359992 1.932848 0 3.499151 1.50375 3.499151 3.359992 0 1.854625-1.566303 3.3599919-3.499151 3.3599919m0-1.8756452c.853575 0 1.545939-.6645605 1.545939-1.4843467 0-.8197863-.692364-1.4843468-1.545939-1.4843468-.853576 0-1.54594.6645605-1.54594 1.4843468 0 .8197862.692364 1.4843467 1.54594 1.4843467" fill="#f0a023"/><g fill="#999"><path d="m213.066255 22.9876484c.059393-1.3469073 1.064-2.8393387 3.049454-2.8393387 1.949818 0 2.927273 1.5490242 2.956121 2.8393387zm10.441454 1.0639435c0-4.0795282-2.983273-6.8299354-7.300364-6.8299354-4.308606 0-7.853575 2.6372217-7.853575 7.2745927 0 4.6066492 3.278545 7.2729758 7.761939 7.2729758 4.525818 0 6.446788-1.929004 6.928727-2.3073669l-1.846303-2.30575c-.851878.5287379-2.506424 1.3226532-4.435878 1.3307379-1.880243-.0080847-3.475394-.9151855-3.696-2.9266533h10.348121c.033939-.0016169.093333-.8230201.093333-1.5086008z"/><path d="m206.412606 22.9876484c0-3.3357379-1.330424-5.7659919-5.082424-5.7659919-2.129697 0-3.578909.8472741-4.619152 2.5725443-.734788-1.9225363-2.329939-2.5725443-4.342545-2.5725443-1.861576 0-3.280243 1.075262-3.974303 2.2184354h-.091637v-1.9516411h-4.712484v13.9250484h4.712484v-7.1840444c.01697-1.8901975.726303-3.3033992 2.40291-3.282379 1.51709-.0210202 1.931151 1.1658105 1.939636 2.9266532v7.5397702h4.712485v-7.1840444c.008485-1.8901975.717818-3.3033992 2.402909-3.282379 1.596848-.0210202 1.892121 1.3921815 1.846303 2.9266532v7.5397702h4.805818z"/><path d="m180.905794 18.6002556-4.712485.0097017v12.8918266h4.712485z"/><path d="m173.326618 11.8995133h-15.338909v3.6364879h5.267394v15.8783065h4.804121v-15.8783065h5.267394z"/><path d="m151.520727 31.414631h4.712485v-19.5147943h-4.712485z" mask="url(#b)"/><path d="m138.675515 22.9876484c.059394-1.3469073 1.065697-2.8393387 3.049455-2.8393387 1.951515 0 2.927272 1.5490242 2.957818 2.8393387zm10.441455 1.0639435c0-4.0795282-2.983273-6.8299354-7.298667-6.8299354-4.310303 0-7.855273 2.6372217-7.855273 7.2745927 0 4.6066492 3.278546 7.2729758 7.76194 7.2729758 4.527515 0 6.446788-1.929004 6.930424-2.3073669l-1.848-2.30575c-.850182.5287379-2.504727 1.3226532-4.435879 1.3307379-1.880242-.0080847-3.475394-.9151855-3.696-2.9266533h10.349818c.032243-.0016169.091637-.8230201.091637-1.5086008z" mask="url(#b)"/><path d="m129.066255 17.487804-3.326061 8.8705081-3.234424-8.8705081h-4.990788l6.007273 14.0139799h4.434181l6.007273-14.0139799z" mask="url(#b)"/><path d="m112.432897 27.5999569c-.293576.4527419-1.147152 1.2418064-2.402909 1.2418064-1.30497 0-2.216243-.6483911-2.216243-1.6848468 0-1.0736451.853576-1.6670605 2.309576-1.6848467l2.309576-.1778629zm2.957818-8.7815767c-1.13697-1.000883-2.699879-1.5959153-5.452363-1.5959153-2.676122 0-4.950061.8214032-6.190546 1.4180524l1.201455 2.9282702c.777212-.4349556 2.637091-1.227254 4.527515-1.2434234 1.856485.0161694 2.949333.7809799 2.956121 2.2184355v.3541089l-3.696.1778629c-2.655758.0727621-5.635636 1.1221532-5.635636 4.2573911 0 3.1028992 2.715151 4.435254 5.265697 4.435254 2.375757 0 3.556848-1.1900645 4.159272-1.7737782l.091637 1.4196694h4.527515v-7.8065646c0-2.3882137-.619394-3.7496733-1.754667-4.7893629z" mask="url(#b)"/><path d="m103.100412 17.487804-.276606 4.1684597h-.18497c-.28-.1649274-.904484-.3638105-1.756363-.3541089-1.0470306-.0097016-1.8191518.5562258-2.2162427.9750121-.3156364.4850807-.7025455 1.3905646-.7398788 2.9266533v6.2106492h-4.7124848v-13.9266654h4.7124848v1.9516412h.0916364c.8077576-1.5118347 2.0244851-2.2184355 3.6043641-2.2184355.97406 0 1.47806.2554758 1.47806.2667943" mask="url(#b)"/><path d="m94.2303515 11.8995133v3.6364879h-5.2673939v15.8783065h-4.8058182v-15.8783065h-5.265697v-3.6364879z" mask="url(#b)"/><path d="m157.932048 42.0678105c0-2.2426895-.863757-3.8321371-3.256484-3.8321371-1.425455 0-2.365576.5546089-3.047758 1.6120847-.470061-1.1868307-1.506909-1.6120847-2.837333-1.6120847-1.182788 0-2.102546.70175-2.626909 1.4115847v.10025-1.3113347h-3.046061v9.0774758h3.046061v-4.6389879c.025454-1.2935484.485333-2.2184355 1.576484-2.2200524.980849.0016169 1.24897.7777459 1.260849 1.9176855v4.9413548h3.047758v-4.6389879c.011878-1.2935484.471757-2.2184355 1.574787-2.2200524 1.026667.0016169 1.218425.926504 1.262546 1.9176855v4.9413548h3.04606z" mask="url(#b)"/><path d="m142.066909 38.4368202c0-.0355726-.327515-.202117-.945212-.202117-1.036849 0-1.825939.4624436-2.416485 1.4132016v-1.2110846h-3.04606v9.0774758h3.04606v-4.0342541c.032243-1.0316048.283394-1.6217863.526061-1.9160685.218909-.2975161.717818-.6677944 1.364363-.7066008.587152.0388064.991031.1697782 1.155637.3023669h.105212z" mask="url(#b)"/><path d="m129.35457 45.2953754c-1.41697 0-2.207758-1.0186694-2.207758-2.3203024 0-1.4018831.790788-2.4205524 2.207758-2.4205524 1.293091 0 2.100848 1.0186693 2.100848 2.4205524 0 1.301633-.807757 2.3203024-2.100848 2.3203024m-.105212-7.0595403c-2.986667 0-5.253819 1.8093508-5.253819 4.7392379 0 2.9476734 2.267152 4.7408548 5.253819 4.7408548 3.005333 0 5.253818-1.7931814 5.253818-4.7408548 0-2.9298871-2.248485-4.7392379-5.253818-4.7392379" mask="url(#b)"/><path d="m124.310836 34.7047714-.105212 2.1181855c-.047515-.0242541-.643151-.1907984-1.155636-.2005-.92994.0097016-1.15903.5093346-1.155636 1.2094677v.6047339h1.995636v2.2184355h-1.995636v6.8590403h-3.046061v-6.8590403h-1.260849v-2.2184355h1.260849v-.5044839c-.050909-1.0413065.159515-1.929004.734788-2.5208024.539636-.5384395 1.442424-.9087178 2.626909-.9087178 1.216727 0 2.100848.2409234 2.100848.202117" mask="url(#b)"/><path d="m116.746594 38.4368202h-2.100849v-2.5224194h-3.047757v2.5224194h-1.366061v2.2184354h1.366061v3.5313871c-.023758 1.3808629.166303 2.1392057.629576 2.7229194.495515.4915484 1.223515.8068508 2.312969.8068508 1.113212 0 1.956606-.2409234 2.206061-.3023669l-.210424-2.3203025c.037333.0097017-.402182.177863-.84.202117-.444606-.024254-.636364-.0986331-.736485-.202117-.186667-.2118185-.302061-.3977661-.31394-1.2110846v-3.2274033h2.100849z" mask="url(#b)"/><path d="m106.555612 44.9930085c-.195151.2910484-.756848.8068508-1.576485.8068508-.868848 0-1.471272-.4236371-1.471272-1.1092178 0-.6952822.563393-1.0817298 1.471272-1.1108346l1.576485-.10025zm1.890424-5.7498226c-.726303-.6192863-1.744484-1.0073508-3.466909-1.0073508-1.810666 0-3.288727.5352056-4.098182.9071008l.84 1.9160685c.449697-.2732621 1.659637-.7906814 2.837334-.8068508 1.259151.0161694 1.971879.5141855 1.997333 1.5134516v.2005l-2.416485.101867c-1.739394.0291048-3.677333.7130685-3.677333 2.7229193 0 2.056742 1.766545 2.9250363 3.466909 2.9250363 1.505212 0 2.273939-.776129 2.626909-1.2094677l.105212 1.0073508h2.940849v-5.1434718c0-1.529621-.403879-2.4173185-1.155637-3.1271532z" mask="url(#b)"/><path d="m96.0484848 47.4142077h3.0460607v-12.7091129h-3.0460607z" mask="url(#b)"/><path d="m89.0092848 45.2953754c-1.3083636 0-2.2060606-.9636935-2.2060606-2.3203024 0-1.4568589.897697-2.4205524 2.2060606-2.4205524 1.3083637 0 2.2060607.9636935 2.2060607 2.4205524 0 1.3566089-.897697 2.3203024-2.2060607 2.3203024m1.3660607-7.0595403c-1.4627879 0-2.4775758.5335887-3.1529697 1.3097177v-1.1092177h-2.9408485v12.4067459h3.0460606v-4.4384879c.6092121.802 1.6036363 1.3000162 3.0477576 1.3113347 2.6896969-.0113185 4.4121212-2.079379 4.4121212-4.7408548 0-2.6905807-1.7224243-4.7392379-4.4121212-4.7392379" mask="url(#b)"/></g><g fill="#f0a023"><path d="m47.5114182 1.61693548h-.0373334c-8.0470303 0-14.5718787 6.21711694-14.5718787 13.88462502 0 .7874476.0407272 1.5457903.1170909 2.2831129.7772121 7.3861613 5.3946666 12.4035121 12.8715151 17.6245968.3665455.2554758 1.0690909.6225201 1.6019394.6225201.6244849 0 1.0470303-.2651774 1.513697-.6209032 8.1047273-6.1686089 13.0768485-11.2377016 13.0768485-19.9093266 0-.4042339-.0186667-.8052339-.0543031-1.2013831-.6397575-7.10643143-6.8947878-12.68324192-14.5175757-12.68324192m0 2.92503629c5.9207273 0 10.9539394 4.39644758 11.4596363 10.00883063.0288485.3201532.0424243.6419234.0424243.9507581 0 7.1209839-3.8979394 11.4753911-11.5750303 17.3610363-7.5718788-5.3358871-10.7638788-9.6611895-11.3646061-15.3689718-.0678788-.6500081-.1018182-1.3210363-.1018182-1.9920645 0-6.04248792 5.1587879-10.95958873 11.5020606-10.95958873z" mask="url(#b)"/><path d="m49.4222061 7.8445625c-3.4669091 0-6.2770909 2.6776452-6.2770909 5.9794274 0 3.3033992 2.8101818 5.9810444 6.2770909 5.9810444 3.4652121 0 6.2753939-2.6776452 6.2753939-5.9810444 0-3.3017822-2.8101818-5.9794274-6.2753939-5.9794274m0 1.89504839c2.3638787 0 4.2865454 1.83198791 4.2865454 4.08437901 0 2.2540081-1.9226667 4.085996-4.2865454 4.085996-2.3638788 0-4.2882425-1.8319879-4.2882425-4.085996 0-2.2523911 1.9243637-4.08437901 4.2882425-4.08437901" mask="url(#b)"/></g></g></svg>
