<svg xmlns="http://www.w3.org/2000/svg" viewBox="0 0 131.71 35.97"><defs><style>.cls-1{fill:#f1a124;}.cls-2{fill:#662d86;}.cls-3,.cls-4{fill:#231f20;}.cls-3{fill-rule:evenodd;}.cls-5{fill:none;}</style></defs><title>TravelTime_logo_horizontal</title><g id="Layer_2" data-name="Layer 2"><g id="Layer_1-2" data-name="Layer 1"><path class="cls-1" d="M37.37,19.13a3.7,3.7,0,0,0,3.7-3.7V9.82a3.7,3.7,0,0,0-3.7-3.7H35.56V7.91h1.81a1.9,1.9,0,0,1,1.91,1.91v5.61a1.91,1.91,0,0,1-1.91,1.91,3.7,3.7,0,0,0,0,7.4,1.92,1.92,0,0,1,0,3.83,3.7,3.7,0,0,0-3.7,3.7,1.91,1.91,0,1,1-3.82,0,3.7,3.7,0,0,0-3.7-3.7,1.92,1.92,0,0,1-1.91-1.92,3.7,3.7,0,0,0-7.4,0,1.92,1.92,0,0,1-1.91,1.92H9.31a1.92,1.92,0,0,1,0-3.83,3.7,3.7,0,0,0,0-7.4H3.7a1.91,1.91,0,1,1,0-3.82H9.31A3.7,3.7,0,0,0,13,9.82V4.21a1.92,1.92,0,1,1,3.83,0,3.7,3.7,0,0,0,3.7,3.7h.14V6.12h-.14a1.91,1.91,0,0,1-1.91-1.91,3.71,3.71,0,1,0-7.41,0V9.82a1.91,1.91,0,0,1-1.91,1.91H3.7a3.7,3.7,0,0,0,0,7.4H9.31a1.91,1.91,0,1,1,0,3.82,3.71,3.71,0,0,0,0,7.41h5.62a3.71,3.71,0,0,0,3.7-3.71,1.91,1.91,0,0,1,3.82,0,3.71,3.71,0,0,0,3.7,3.71,1.91,1.91,0,0,1,1.91,1.91,3.7,3.7,0,1,0,7.4,0,1.91,1.91,0,0,1,1.91-1.91,3.71,3.71,0,0,0,0-7.41,1.91,1.91,0,1,1,0-3.82Z"/><path class="cls-2" d="M105.22,8.47a.92.92,0,0,0,0-1.84.92.92,0,0,0,0,1.84Zm0,1.16a2.08,2.08,0,1,1,2.06-2.08A2.08,2.08,0,0,1,105.22,9.63Z"/><path class="cls-3" d="M131.71,13.87a4.05,4.05,0,0,0-4.3-4.22,4.35,4.35,0,0,0-4.63,4.5,4.26,4.26,0,0,0,4.57,4.5,5.56,5.56,0,0,0,4.09-1.43l-1.09-1.43a5.05,5.05,0,0,1-2.62.83,2,2,0,0,1-2.17-1.81h6.1A8,8,0,0,0,131.71,13.87Zm-6.15-.65a1.77,1.77,0,0,1,3.54,0Z"/><path class="cls-3" d="M121.64,13.22c0-2.07-.79-3.57-3-3.57a2.9,2.9,0,0,0-2.72,1.59,2.41,2.41,0,0,0-2.56-1.59A2.74,2.74,0,0,0,111,11H111V9.82h-2.77v8.61H111V14c0-1.16.43-2,1.42-2s1.14.73,1.14,1.82v4.66h2.78V14c0-1.16.42-2,1.42-2s1.11.87,1.08,1.82v4.66h2.84Z"/><rect class="cls-4" x="103.83" y="10.51" width="2.78" height="7.98" transform="translate(-0.03 0.23) rotate(-0.12)"/><polygon class="cls-3" points="102.14 6.36 93.1 6.36 93.1 8.61 96.2 8.61 96.2 18.43 99.03 18.43 99.03 8.61 102.14 8.61 102.14 6.36"/><rect class="cls-4" x="89.29" y="6.36" width="2.78" height="12.07"/><path class="cls-3" d="M87.87,13.87a4.05,4.05,0,0,0-4.3-4.22,4.35,4.35,0,0,0-4.63,4.5,4.26,4.26,0,0,0,4.58,4.5,5.53,5.53,0,0,0,4.08-1.43l-1.09-1.43a5,5,0,0,1-2.61.83,2,2,0,0,1-2.18-1.81h6.1A6.11,6.11,0,0,0,87.87,13.87Zm-6.15-.65a1.77,1.77,0,0,1,1.8-1.76,1.75,1.75,0,0,1,1.74,1.76Z"/><polygon class="cls-3" points="76.06 9.81 74.1 15.3 72.19 9.81 69.25 9.81 72.79 18.48 75.4 18.48 78.94 9.81 76.06 9.81"/><path class="cls-3" d="M68,10.64a4.37,4.37,0,0,0-3.21-1,8.33,8.33,0,0,0-3.65.88l.7,1.81a5.94,5.94,0,0,1,2.67-.77c1.1,0,1.74.48,1.75,1.37v.22l-2.18.11c-1.57.05-3.32.7-3.32,2.63a2.81,2.81,0,0,0,3.1,2.75,3.18,3.18,0,0,0,2.45-1.1l0,.88H69V13.6A3.71,3.71,0,0,0,68,10.64Zm-1.74,5.43a1.75,1.75,0,0,1-1.42.77c-.77,0-1.31-.4-1.31-1.05s.51-1,1.36-1l1.37-.11Z"/><path class="cls-3" d="M60.76,9.82l-.17,2.57h-.11a2.12,2.12,0,0,0-1-.22,1.81,1.81,0,0,0-1.31.61,3.62,3.62,0,0,0-.43,1.81v3.84H54.93V9.82h2.78V11h0a2.26,2.26,0,0,1,2.12-1.37A1.77,1.77,0,0,1,60.76,9.82Z"/><polygon class="cls-3" points="55.53 6.36 55.53 8.61 52.42 8.61 52.42 18.43 49.59 18.43 49.59 8.61 46.49 8.61 46.49 6.36 55.53 6.36"/><path class="cls-3" d="M93.07,25c0-1.39-.51-2.37-1.92-2.37a2,2,0,0,0-1.8,1,1.58,1.58,0,0,0-1.67-1,1.94,1.94,0,0,0-1.55.87v-.75H84.34v5.62h1.79V25.52c0-.8.29-1.38.93-1.38s.74.48.74,1.19v3.06h1.8V25.52c0-.8.28-1.38.93-1.38s.72.58.74,1.19v3.06h1.8Z"/><path class="cls-3" d="M83.72,22.77a.91.91,0,0,0-.56-.12,1.55,1.55,0,0,0-1.42.87v-.75h-1.8v5.62h1.8v-2.5a2,2,0,0,1,.31-1.18,1.07,1.07,0,0,1,.8-.44,1.19,1.19,0,0,1,.68.19h.06Z"/><path class="cls-3" d="M76.16,22.65a2.93,2.93,0,1,0,3.1,2.93A2.87,2.87,0,0,0,76.16,22.65ZM76.23,27a1.29,1.29,0,0,1-1.3-1.43c0-.87.46-1.5,1.3-1.5s1.23.63,1.23,1.5A1.28,1.28,0,0,1,76.23,27Z"/><path class="cls-3" d="M73.25,20.46l-.06,1.31a3.12,3.12,0,0,0-.68-.12c-.55,0-.68.31-.68.75v.37H73v1.37H71.83v4.25H70V24.14h-.75V22.77H70v-.31a2.11,2.11,0,0,1,.43-1.56A2.12,2.12,0,0,1,72,20.34,10.62,10.62,0,0,1,73.25,20.46Z"/><path class="cls-3" d="M68.8,22.77H67.56V21.21h-1.8v1.56H65v1.37h.8v2.19A2.59,2.59,0,0,0,66.13,28a1.8,1.8,0,0,0,1.37.5,4.77,4.77,0,0,0,1.3-.19l-.13-1.43a1.19,1.19,0,0,1-.49.12.65.65,0,0,1-.44-.12c-.11-.13-.17-.25-.18-.75v-2H68.8Z"/><path class="cls-3" d="M63.91,23.27a2.89,2.89,0,0,0-2-.62,5.63,5.63,0,0,0-2.41.56l.49,1.18a3.67,3.67,0,0,1,1.68-.5c.74,0,1.16.32,1.17.94V25L61.37,25c-1,0-2.17.44-2.17,1.68a1.84,1.84,0,0,0,2,1.81,1.86,1.86,0,0,0,1.55-.75l.06.63h1.74V25.2A2.48,2.48,0,0,0,63.91,23.27Zm-1.12,3.56a1.13,1.13,0,0,1-.93.49c-.51,0-.86-.26-.86-.68s.33-.67.86-.69l.93-.06Z"/><rect class="cls-4" x="56.6" y="20.46" width="1.8" height="7.86"/><path class="cls-3" d="M53.26,22.65a2.29,2.29,0,0,0-1.86.81v-.69H49.67v7.67h1.79V27.7a2.14,2.14,0,0,0,1.8.81,2.68,2.68,0,0,0,2.6-2.93A2.66,2.66,0,0,0,53.26,22.65ZM52.45,27a1.31,1.31,0,0,1-1.3-1.43,1.31,1.31,0,1,1,2.6,0A1.31,1.31,0,0,1,52.45,27Z"/><path class="cls-2" d="M28,1.81A6.82,6.82,0,0,1,34.75,8c0,.2,0,.4,0,.59,0,4.4-2.3,7.09-6.83,10.73-4.46-3.3-6.34-6-6.69-9.5,0-.4-.06-.82-.06-1.23A6.79,6.79,0,0,1,28,1.81h0M28,0h0a8.58,8.58,0,0,0-8.59,8.59A13.05,13.05,0,0,0,19.46,10c.46,4.57,3.18,7.67,7.58,10.9a1.91,1.91,0,0,0,.95.38,1.38,1.38,0,0,0,.89-.38c4.77-3.81,7.71-6.95,7.71-12.31,0-.25,0-.5,0-.75A8.58,8.58,0,0,0,28,0Z"/><path class="cls-5" d="M36.55,7.84A8.58,8.58,0,0,0,28,0h0a8.58,8.58,0,0,0-8.59,8.59A13.05,13.05,0,0,0,19.46,10c.46,4.57,3.18,7.67,7.58,10.9a1.91,1.91,0,0,0,.95.38,1.38,1.38,0,0,0,.89-.38c4.77-3.81,7.71-6.95,7.71-12.31C36.59,8.34,36.57,8.09,36.55,7.84Z"/><path class="cls-2" d="M29.12,5A2.53,2.53,0,1,1,26.6,7.55,2.53,2.53,0,0,1,29.12,5m0-1.17a3.7,3.7,0,1,0,3.7,3.7,3.7,3.7,0,0,0-3.7-3.7Z"/></g></g></svg>