<?xml version="1.0" encoding="utf-8"?>
<!-- Generator: Adobe Illustrator 23.0.1, SVG Export Plug-In . SVG Version: 6.00 Build 0)  -->
<svg version="1.1" id="Layer_1" xmlns="http://www.w3.org/2000/svg" xmlns:xlink="http://www.w3.org/1999/xlink" x="0px" y="0px"
	 viewBox="0 0 69.7 59" style="enable-background:new 0 0 69.7 59;" xml:space="preserve">
<style type="text/css">
	.st0{fill-rule:evenodd;clip-rule:evenodd;fill:#A3A3A3;}
</style>
<path class="st0" d="M35,10.7h-0.2c-1.8,0-3.2-1.4-3.2-3.1c0-3.3-2.8-6-6.3-6S19,4.3,19,7.6v9.1c0,1.7-1.5,3.1-3.2,3.1H6.3
	c-3.5,0-6.3,2.7-6.3,6s2.8,6,6.3,6h9.5c1.8,0,3.2,1.4,3.2,3.1S17.5,38,15.8,38c-3.5,0-6.3,2.7-6.3,6s2.8,6,6.3,6h9.5
	c3.5,0,6.3-2.7,6.3-6c0-1.7,1.5-3.1,3.2-3.1c1.8,0,3.2,1.4,3.2,3.1c0,3.3,2.8,6,6.3,6c1.8,0,3.2,1.4,3.2,3.1c0,3.3,2.8,6,6.3,6
	s6.3-2.7,6.3-6c0-1.7,1.5-3.1,3.2-3.1c3.5,0,6.3-2.7,6.3-6s-2.8-6-6.3-6c-1.8,0-3.2-1.4-3.2-3.1c0.1-1.8,1.5-3.2,3.3-3.2
	c3.5,0,6.3-2.7,6.3-6v-9.1c0-3.3-2.8-6-6.3-6h-3.1"/>
<g>
	<path d="M63.4,15.6c0,4.9-2.4,9.3-7.2,13c-1.6,1.3-2.8,2.4-3.4,3.4c-0.7,1-1,2.2-1,3.6v1.2H40.6v-2.9c0-4.1,1.3-7.3,4-9.6
		c1.8-1.5,2.9-2.5,3.4-3.1c0.5-0.6,0.9-1.1,1.1-1.6c0.2-0.5,0.3-1.1,0.3-1.8c0-0.8-0.4-1.6-1.1-2.1c-0.7-0.6-1.7-0.9-2.9-0.9
		c-3.6,0-7.3,1.4-11.3,4.3V6.1c1.4-0.8,3.4-1.5,5.9-2.1C42.4,3.3,44.6,3,46.6,3c5.4,0,9.6,1.1,12.5,3.2
		C61.9,8.4,63.4,11.5,63.4,15.6z M54.5,46.3c0,2-0.7,3.6-2.2,4.9c-1.4,1.3-3.4,1.9-5.8,1.9c-2.3,0-4.2-0.7-5.7-2
		c-1.5-1.3-2.2-2.9-2.2-4.8c0-2,0.7-3.5,2.2-4.8c1.4-1.2,3.4-1.8,5.8-1.8c2.4,0,4.3,0.6,5.8,1.8C53.8,42.8,54.5,44.4,54.5,46.3z"/>
</g>
</svg>
