<?xml version="1.0" encoding="utf-8"?>
<!-- Generator: Adobe Illustrator 23.0.1, SVG Export Plug-In . SVG Version: 6.00 Build 0)  -->
<svg version="1.1" id="Layer_1" xmlns="http://www.w3.org/2000/svg" xmlns:xlink="http://www.w3.org/1999/xlink" x="0px" y="0px"
	 viewBox="0 0 69.7 59" style="enable-background:new 0 0 69.7 59;" xml:space="preserve">
<style type="text/css">
	.st0{fill-rule:evenodd;clip-rule:evenodd;fill:#7B4B9D;}
	.st1{fill-rule:evenodd;clip-rule:evenodd;fill:#F0A023;}
	.st2{fill-rule:evenodd;clip-rule:evenodd;fill:#FFFFFF;}
</style>
<path class="st0" d="M35,10.7h-0.2c-1.8,0-3.2-1.4-3.2-3.1c0-3.3-2.8-6-6.3-6S19,4.3,19,7.6v9.1c0,1.7-1.5,3.1-3.2,3.1H6.3
	c-3.5,0-6.3,2.7-6.3,6s2.8,6,6.3,6h9.5c1.8,0,3.2,1.4,3.2,3.1S17.5,38,15.8,38c-3.5,0-6.3,2.7-6.3,6s2.8,6,6.3,6h9.5
	c3.5,0,6.3-2.7,6.3-6c0-1.7,1.5-3.1,3.2-3.1c1.8,0,3.2,1.4,3.2,3.1c0,3.3,2.8,6,6.3,6c1.8,0,3.2,1.4,3.2,3.1c0,3.3,2.8,6,6.3,6
	s6.3-2.7,6.3-6c0-1.7,1.5-3.1,3.2-3.1c3.5,0,6.3-2.7,6.3-6s-2.8-6-6.3-6c-1.8,0-3.2-1.4-3.2-3.1c0.1-1.8,1.5-3.2,3.3-3.2
	c3.5,0,6.3-2.7,6.3-6v-9.1c0-3.3-2.8-6-6.3-6h-3.1"/>
<g>
	<g>
		<path class="st1" d="M62,13.5C61.4,6.4,55.1,0.8,47.5,0.8l0,0c-8,0-14.6,6.2-14.6,13.9c0,0.8,0,1.5,0.1,2.3
			c0.8,7.4,5.4,12.4,12.9,17.6c0.4,0.3,1.1,0.6,1.6,0.6c0.6,0,1-0.3,1.5-0.6c8.1-6.2,13.1-11.2,13.1-19.9
			C62.1,14.3,62.1,13.9,62,13.5z M59,13.7c0,0.3,0,0.6,0,1 M47.5,3.7L47.5,3.7 M36,16.7c0-0.7,0-1.3,0-2 M47.4,32.1"/>
	</g>
</g>
<path class="st2" d="M49.4,7c-3.5,0-6.3,2.7-6.3,6s2.8,6,6.3,6s6.3-2.7,6.3-6S52.9,7,49.4,7"/>
</svg>
