<svg id="Layer_1" data-name="Layer 1" xmlns="http://www.w3.org/2000/svg" width="70" height="70" viewBox="0 0 70 70">
  <title>general</title>
  <g>
    <path d="M54,62.6a4.16,4.16,0,0,1-4.3-4,5.16,5.16,0,0,0-5.2-5.1,4.16,4.16,0,0,1-4.3-4A5.16,5.16,0,0,0,35,44.4a5.22,5.22,0,0,0-5.2,5.1,4.16,4.16,0,0,1-4.3,4H16a4,4,0,1,1,0-8,5.22,5.22,0,0,0,5.2-5.1A5.16,5.16,0,0,0,16,35.3H6.45a4.16,4.16,0,0,1-4.3-4,4.16,4.16,0,0,1,4.3-4H16a5.22,5.22,0,0,0,5.2-5.1V13.1a4.16,4.16,0,0,1,4.3-4,4.16,4.16,0,0,1,4.3,4A5.16,5.16,0,0,0,35,18.2l25.51-.1h3.09a4.16,4.16,0,0,1,4.3,4v9.1a4.16,4.16,0,0,1-4.3,4,5.29,5.29,0,0,0-5.3,5.09v.11a5.16,5.16,0,0,0,5.2,5.1,4,4,0,1,1,0,8,5.22,5.22,0,0,0-5.2,5.1A4.16,4.16,0,0,1,54,62.6Z" fill="#fff" fill-rule="evenodd"/>
    <path d="M25.45,11.1a2.17,2.17,0,0,1,2.3,2A7.16,7.16,0,0,0,35,20.2h.22l25.28-.1h3.1a2.17,2.17,0,0,1,2.3,2v9.1a2.17,2.17,0,0,1-2.3,2,7.34,7.34,0,0,0-7.29,7v.22a7.16,7.16,0,0,0,7.2,7.1,2,2,0,1,1,0,4,7.16,7.16,0,0,0-7.2,7.1,2.32,2.32,0,0,1-4.6,0,7.16,7.16,0,0,0-7.2-7.1,2.17,2.17,0,0,1-2.3-2,7.2,7.2,0,0,0-14.4,0,2.17,2.17,0,0,1-2.3,2H16a2,2,0,1,1,0-4,7.1,7.1,0,1,0,0-14.2H6.45a2.17,2.17,0,0,1-2.3-2,2.17,2.17,0,0,1,2.3-2H16a7.16,7.16,0,0,0,7.2-7.1V13.1a2.17,2.17,0,0,1,2.3-2m0-4a6.15,6.15,0,0,0-6.3,6v9.1A3.2,3.2,0,0,1,16,25.3H6.45a6,6,0,1,0,0,12H16a3.14,3.14,0,0,1,3.2,3.1A3.2,3.2,0,0,1,16,43.5a6,6,0,1,0,0,12h9.5a6.15,6.15,0,0,0,6.3-6A3.2,3.2,0,0,1,35,46.4a3.14,3.14,0,0,1,3.2,3.1,6.15,6.15,0,0,0,6.3,6,3.14,3.14,0,0,1,3.2,3.1,6.31,6.31,0,0,0,12.6,0,3.2,3.2,0,0,1,3.2-3.1,6,6,0,1,0,0-12,3.14,3.14,0,0,1-3.2-3.1,3.31,3.31,0,0,1,3.3-3.2,6.15,6.15,0,0,0,6.3-6V22.1a6.15,6.15,0,0,0-6.3-6h-3.1l-25.3.1H35a3.14,3.14,0,0,1-3.2-3.1,6.15,6.15,0,0,0-6.3-6Z" fill="#f0a023"/>
  </g>
  <path d="M62.15,19c-.6-7.1-6.9-12.7-14.5-12.7h0c-8,0-14.6,6.2-14.6,13.9a17.7,17.7,0,0,0,.1,2.3c.8,7.4,5.4,12.4,12.9,17.6a3.14,3.14,0,0,0,1.6.6,2.81,2.81,0,0,0,1.5-.6c8.1-6.2,13.1-11.2,13.1-19.9A4.87,4.87,0,0,0,62.15,19ZM47.65,9.2h0" fill="#fff" stroke="#520d76" stroke-miterlimit="10" stroke-width="4" fill-rule="evenodd"/>
  <path d="M49.55,12.5a6.15,6.15,0,0,0-6.3,6,6.31,6.31,0,0,0,12.6,0,6.15,6.15,0,0,0-6.3-6" fill="#fff" stroke="#520d76" stroke-miterlimit="10" stroke-width="2" fill-rule="evenodd"/>
</svg>
