<svg id="Layer_1" data-name="Layer 1" xmlns="http://www.w3.org/2000/svg" width="70" height="70" viewBox="0 0 70 70">
  <title>geocoding</title>
  <path d="M57.83,27.81c-1-11.35-11-20.31-23.18-20.31h0c-12.79,0-23.34,9.92-23.34,22.22a28.32,28.32,0,0,0,.16,3.68c1.28,11.83,8.63,19.82,20.62,28.14a5,5,0,0,0,2.56,1,4.5,4.5,0,0,0,2.4-1C50,51.63,58,43.63,58,29.72A7.75,7.75,0,0,0,57.83,27.81ZM34.65,12.14h0" fill="#25ef25" fill-rule="evenodd"/>
  <path d="M37.69,17.42A9.83,9.83,0,0,0,27.61,27,9.84,9.84,0,0,0,37.69,36.6,9.84,9.84,0,0,0,47.76,27a9.83,9.83,0,0,0-10.07-9.59" fill="#fff" fill-rule="evenodd"/>
  <g id="Checklist">
    <polygon points="33.91 25.46 31.12 28.25 31.12 28.25 36.37 33.49 45.23 24.63 43.2 22.57 36.42 28.2 33.91 25.46" fill="#25ef25"/>
  </g>
</svg>
