<svg id="Layer_1" data-name="Layer 1" xmlns="http://www.w3.org/2000/svg" width="70" height="70" viewBox="0 0 70 70">
  <title>geoclick</title>
  <path d="M57.83,27.81c-1-11.35-11-20.31-23.18-20.31h0c-12.79,0-23.34,9.92-23.34,22.22a28.32,28.32,0,0,0,.16,3.68c1.28,11.83,8.63,19.82,20.62,28.14a5,5,0,0,0,2.56,1,4.5,4.5,0,0,0,2.4-1C50,51.63,58,43.63,58,29.72A7.75,7.75,0,0,0,57.83,27.81ZM34.65,12.14h0" fill="#520d76" fill-rule="evenodd"/>
  <path d="M38.69,17.42A9.83,9.83,0,0,0,28.61,27,9.84,9.84,0,0,0,38.69,36.6,9.84,9.84,0,0,0,48.76,27a9.83,9.83,0,0,0-10.07-9.59" fill="#fff" fill-rule="evenodd"/>
  <g id="Checklist">
    <g>
      <path d="M56.56,68.62l-.29,0a2.1,2.1,0,0,1-1.37-.81l-4.64-6.18-2.44,3.12a2.08,2.08,0,0,1-1.63.79,2.12,2.12,0,0,1-.44,0,2.06,2.06,0,0,1-1.57-1.53L39,42.69a2.07,2.07,0,0,1,2-2.56,2.06,2.06,0,0,1,1,.27L61,51.28A2.08,2.08,0,0,1,60.77,55L57.1,56.48l4.64,6.17a2.09,2.09,0,0,1-.41,2.91L57.8,68.2a2.06,2.06,0,0,1-1.24.42Z" fill="#f0a023"/>
      <path d="M41,41.13a1,1,0,0,1,.53.14l19,10.88a1.07,1.07,0,0,1-.13,1.92l-4.88,2,5.42,7.21a1.08,1.08,0,0,1-.22,1.51L57.2,67.4a1.05,1.05,0,0,1-.64.22h-.15a1.07,1.07,0,0,1-.71-.42L50.28,60,47,64.11a1.06,1.06,0,0,1-.84.41l-.23,0a1.07,1.07,0,0,1-.81-.8L40,42.45a1.08,1.08,0,0,1,.39-1.11,1.1,1.1,0,0,1,.65-.21m0-2a3.06,3.06,0,0,0-3,3.79L43.2,64.17a3.11,3.11,0,0,0,2.34,2.28,2.81,2.81,0,0,0,.65.07,3.06,3.06,0,0,0,2.42-1.18l1.63-2.09,3.86,5.14a3,3,0,0,0,2,1.2,3,3,0,0,0,.43,0A3,3,0,0,0,58.4,69l3.53-2.64a3.1,3.1,0,0,0,.61-4.31l-3.86-5.13,2.46-1a3.07,3.07,0,0,0,.38-5.52l-19-10.88a3.18,3.18,0,0,0-1.53-.4Z" fill="#fff"/>
    </g>
  </g>
</svg>
