<svg id="Layer_1" data-name="Layer 1" xmlns="http://www.w3.org/2000/svg" width="70" height="70" viewBox="0 0 70 70">
  <title>rerun</title>
  <path d="M35.15,17.88H35a3.14,3.14,0,0,1-3.2-3.1,6.15,6.15,0,0,0-6.3-6,6.15,6.15,0,0,0-6.3,6v9.1A3.2,3.2,0,0,1,16,27H6.45a6,6,0,1,0,0,12H16a3.14,3.14,0,0,1,3.2,3.1,3.2,3.2,0,0,1-3.2,3.1,6,6,0,1,0,0,12h9.5a6.15,6.15,0,0,0,6.3-6,3.2,3.2,0,0,1,3.2-3.1,3.14,3.14,0,0,1,3.2,3.1,6.15,6.15,0,0,0,6.3,6,3.14,3.14,0,0,1,3.2,3.1,6.31,6.31,0,0,0,12.6,0,3.2,3.2,0,0,1,3.2-3.1,6,6,0,1,0,0-12,3.14,3.14,0,0,1-3.2-3.1,3.31,3.31,0,0,1,3.3-3.2,6.15,6.15,0,0,0,6.3-6v-9.1a6.15,6.15,0,0,0-6.3-6h-3.1Z" fill="#f0a023" fill-rule="evenodd"/>
  <path d="M14.17,34.12a3.43,3.43,0,0,1-.44-1.63A21.73,21.73,0,0,1,53.39,19.77L56.51,18a.84.84,0,0,1,.64-.08l.14,0a1.88,1.88,0,0,1,1.11.88,1.8,1.8,0,0,1,.16,1.4L56,29.38a1.84,1.84,0,0,1-2.28,1.27l-9.11-2.58a1.81,1.81,0,0,1-1.1-.87,1.88,1.88,0,0,1-.17-1.41l0-.14a.88.88,0,0,1,.41-.5l3.47-1.94a14.73,14.73,0,0,0-26.53,9.14,3.49,3.49,0,0,1-6.54,1.77Z" fill="#520d76"/>
  <path d="M14,51.13a1.81,1.81,0,0,1-.17-1.4l2.58-9.11a1.83,1.83,0,0,1,2.28-1.27l9.1,2.58a1.8,1.8,0,0,1,1.11.87A1.87,1.87,0,0,1,29,44.21l0,.14a.9.9,0,0,1-.4.5l-3.48,1.94a14.73,14.73,0,0,0,26.53-9.14,3.49,3.49,0,0,1,6.55-1.77,3.55,3.55,0,0,1,.44,1.63A21.73,21.73,0,0,1,19,50.23L15.85,52a.87.87,0,0,1-.65.08l-.14,0A1.83,1.83,0,0,1,14,51.13Z" fill="#520d76"/>
</svg>
