<svg id="Layer_1" data-name="Layer 1" xmlns="http://www.w3.org/2000/svg" width="70" height="70" viewBox="0 0 70 70">
  <title>route_advanced</title>
  <path d="M20.41,59.83H8.75a6,6,0,0,1-6-6V50.22c0-3.3,2.39-6,5.32-6s5.31-2.7,5.31-6V19c0-3.3,2.4-6,5.32-6S24,15.71,24,19V24.4c0,3.3,2.39,6,5.31,6a5.17,5.17,0,0,0,5.32-5,5,5,0,0,1,5-5c2.77,0,5,2.7,5,6V45.83c0,3.3,2.42,6,5.36,6a5.33,5.33,0,0,0,5.36-5.27A5.43,5.43,0,0,1,61,41.29a5.8,5.8,0,0,0,5.55-6c0-3.3-2.05-6-4.56-6H57.42" fill="none" stroke="#ee437f" stroke-linecap="round" stroke-linejoin="round" stroke-width="5"/>
  <path d="M33.08,43.29a10.9,10.9,0,0,0-11-9.67h0c-6.09,0-11.12,4.72-11.12,10.59A14.63,14.63,0,0,0,11,46c.61,5.64,4.12,9.45,9.83,13.41a2.41,2.41,0,0,0,1.22.46,2.18,2.18,0,0,0,1.15-.46c6.17-4.72,10-8.53,10-15.16A3.58,3.58,0,0,0,33.08,43.29ZM22,35.83h0" fill="#f0a023" fill-rule="evenodd"/>
  <path d="M23.48,38.34a4.58,4.58,0,1,0,4.8,4.57,4.69,4.69,0,0,0-4.8-4.57" fill="#fff" fill-rule="evenodd"/>
  <path d="M68.47,12.77a10.91,10.91,0,0,0-11-9.68h0c-6.1,0-11.13,4.72-11.13,10.59a12.82,12.82,0,0,0,.08,1.75c.61,5.64,4.11,9.45,9.83,13.41a2.37,2.37,0,0,0,1.22.46,2.12,2.12,0,0,0,1.14-.46c6.17-4.72,10-8.53,10-15.16A4,4,0,0,0,68.47,12.77Zm-11-7.47h0" fill="#f0a023" fill-rule="evenodd"/>
  <path d="M58.87,7.81a4.69,4.69,0,0,0-4.8,4.57,4.81,4.81,0,0,0,9.6,0,4.69,4.69,0,0,0-4.8-4.57" fill="#fff" fill-rule="evenodd"/>
</svg>
