<svg id="Layer_1" data-name="Layer 1" xmlns="http://www.w3.org/2000/svg" width="70" height="70" viewBox="0 0 70 70">
  <title>settings</title>
  <path d="M35.15,16.2H35a3.14,3.14,0,0,1-3.2-3.1,6.15,6.15,0,0,0-6.3-6,6.15,6.15,0,0,0-6.3,6v9.1A3.2,3.2,0,0,1,16,25.3H6.45a6,6,0,1,0,0,12H16a3.14,3.14,0,0,1,3.2,3.1A3.2,3.2,0,0,1,16,43.5a6,6,0,1,0,0,12h9.5a6.15,6.15,0,0,0,6.3-6A3.2,3.2,0,0,1,35,46.4a3.14,3.14,0,0,1,3.2,3.1,6.15,6.15,0,0,0,6.3,6,3.14,3.14,0,0,1,3.2,3.1,6.31,6.31,0,0,0,12.6,0,3.2,3.2,0,0,1,3.2-3.1,6,6,0,1,0,0-12,3.14,3.14,0,0,1-3.2-3.1,3.31,3.31,0,0,1,3.3-3.2,6.15,6.15,0,0,0,6.3-6V22.1a6.15,6.15,0,0,0-6.3-6h-3.1Z" fill="#bcbcbc" fill-rule="evenodd"/>
  <g id="Tools">
    <path d="M53.75,51h0c-.08,0-.24-.08-.32-.08L46,36.31a2.87,2.87,0,0,0-2.67-1.62l3.39-4.44A3.08,3.08,0,0,0,47,27.34l-2.43-4.76A3.09,3.09,0,0,0,42,21H39.62a1.08,1.08,0,0,0-.81.33.91.91,0,0,0,.08.89l1.53,3.15a2.25,2.25,0,0,1-1,3l-3.31,1.7a2.44,2.44,0,0,1-1.69.16,2,2,0,0,1-1.29-1.13l-1.54-3.07a.85.85,0,0,0-.73-.56,1.09,1.09,0,0,0-.8.48l-1.38,1.86a3.11,3.11,0,0,0-.24,2.91l2.42,4.76A3.11,3.11,0,0,0,33.4,37L39,37A3,3,0,0,0,38.65,40l7.43,14.62c-.08.08-.08.24-.16.32a6.16,6.16,0,1,0,7.83-4Zm-2.91,8.88a3.17,3.17,0,0,1-2-4A3.09,3.09,0,0,1,50.44,54a2.84,2.84,0,0,1,2.42-.16,3.16,3.16,0,0,1,2,4A3.23,3.23,0,0,1,50.84,59.89Z" fill="#2d2d2d"/>
  </g>
</svg>
