<svg id="Layer_1" data-name="Layer 1" xmlns="http://www.w3.org/2000/svg" width="70" height="70" viewBox="0 0 70 70">
  <title>toolbox</title>
  <path d="M35.15,17.88H35a3.14,3.14,0,0,1-3.2-3.1,6.15,6.15,0,0,0-6.3-6,6.15,6.15,0,0,0-6.3,6v9.1A3.2,3.2,0,0,1,16,27H6.45a6,6,0,1,0,0,12H16a3.14,3.14,0,0,1,3.2,3.1,3.2,3.2,0,0,1-3.2,3.1,6,6,0,1,0,0,12h9.5a6.15,6.15,0,0,0,6.3-6,3.2,3.2,0,0,1,3.2-3.1,3.14,3.14,0,0,1,3.2,3.1,6.15,6.15,0,0,0,6.3,6,3.14,3.14,0,0,1,3.2,3.1,6.31,6.31,0,0,0,12.6,0,3.2,3.2,0,0,1,3.2-3.1,6,6,0,1,0,0-12,3.14,3.14,0,0,1-3.2-3.1,3.31,3.31,0,0,1,3.3-3.2,6.15,6.15,0,0,0,6.3-6v-9.1a6.15,6.15,0,0,0-6.3-6h-3.1Z" fill="#f0a023" fill-rule="evenodd"/>
  <rect x="37.69" y="12.98" width="20.3" height="20.3" fill="#fff"/>
  <path d="M64.88,20.62,62,20a14.72,14.72,0,0,0-.91-2.64L63,15.09a1.78,1.78,0,0,0,0-2.39l-3-3.46a1.81,1.81,0,0,0-2.35-.3l-2.47,1.55A15,15,0,0,0,52.6,9.26L52.31,6.4a1.78,1.78,0,0,0-1.68-1.71L46,4.4a1.77,1.77,0,0,0-1.87,1.45l-.65,2.84a14.93,14.93,0,0,0-2.64.9L38.63,7.78a1.82,1.82,0,0,0-2.39,0L32.78,10.8a1.75,1.75,0,0,0-.29,2.34L34,15.62a15.26,15.26,0,0,0-1.23,2.5l-2.86.3a1.77,1.77,0,0,0-1.71,1.67l-.29,4.61a1.76,1.76,0,0,0,1.45,1.86l2.84.66a14.72,14.72,0,0,0,.91,2.64l-1.82,2.23a1.78,1.78,0,0,0,0,2.4L34.34,38a1.77,1.77,0,0,0,1.23.6,1.72,1.72,0,0,0,1.12-.31l2.47-1.54a16.67,16.67,0,0,0,2.51,1.23L42,40.78a1.79,1.79,0,0,0,1.67,1.72l4.61.29a1.76,1.76,0,0,0,1.86-1.45l.66-2.84a15.25,15.25,0,0,0,2.64-.91l2.23,1.81a1.83,1.83,0,0,0,2.4,0l3.46-3A1.75,1.75,0,0,0,61.78,34l-1.54-2.48a16.11,16.11,0,0,0,1.23-2.5l2.85-.3A1.77,1.77,0,0,0,66,27.09l.29-4.6A1.77,1.77,0,0,0,64.88,20.62ZM46.66,31.13a7.55,7.55,0,1,1,8-7.06A7.56,7.56,0,0,1,46.66,31.13Z" fill="#520d76"/>
</svg>
