<?xml version="1.0" encoding="UTF-8"?>
<svg width="224" height="60" viewBox="0 0 224 59" xmlns="http://www.w3.org/2000/svg">
<g transform="translate(0 -.80645)" fill-rule="evenodd">
<path transform="translate(0 1.5644)" d="m63.421 30.986c3.4635 0 6.2822-2.6841 6.2822-5.9843v-9.0742c0-3.3002-2.8187-5.9843-6.2822-5.9843h-3.0749v2.8943h3.0749c1.7886 0 3.2446 1.3857 3.2446 3.09v9.0742c0 1.7042-1.456 3.09-3.2446 3.09-3.4635 0-6.2788 2.6857-6.2788 5.9859 0 3.2985 2.8153 5.9827 6.2788 5.9827 1.7886 0 3.2446 1.3873 3.2446 3.09 0 1.7042-1.456 3.0916-3.2446 3.0916-3.4635 0-6.2788 2.6841-6.2788 5.9843 0 1.7026-1.456 3.09-3.2446 3.09-1.7869 0-3.2412-1.3873-3.2412-3.09 0-3.3002-2.8187-5.9843-6.2822-5.9843-1.7869 0-3.2429-1.3873-3.2429-3.0916 0-3.2985-2.817-5.9843-6.2788-5.9843-3.4635 0-6.2822 2.6857-6.2822 5.9843 0 1.7042-1.456 3.0916-3.2429 3.0916h-9.5234c-1.7886 0-3.2429-1.3873-3.2429-3.0916 0-1.7026 1.4543-3.09 3.2429-3.09 3.4635 0 6.2805-2.6841 6.2805-5.9827 0-3.3002-2.817-5.9859-6.2805-5.9859h-9.5234c-1.7886 0-3.2429-1.3857-3.2429-3.09 0-1.7026 1.4543-3.09 3.2429-3.09h9.5234c3.4635 0 6.2805-2.6841 6.2805-5.9843v-9.0742c0-1.7042 1.456-3.09 3.2429-3.09s3.2429 1.3857 3.2429 3.09c0 3.3002 2.8187 5.9843 6.2822 5.9843h0.24267v-2.8943h-0.24267c-1.7886 0-3.2446-1.3873-3.2446-3.09 0-3.3002-2.817-5.9843-6.2805-5.9843-3.4635 0-6.2805 2.6841-6.2805 5.9843v9.0742c0 1.7042-1.4543 3.09-3.2429 3.09h-9.5234c-3.4635 0-6.2805 2.6841-6.2805 5.9843 0 3.3002 2.817 5.9843 6.2805 5.9843h9.5234c1.7886 0 3.2429 1.3873 3.2429 3.0916 0 1.7026-1.4543 3.0883-3.2429 3.0883-3.4635 0-6.2805 2.6857-6.2805 5.9843 0 3.3002 2.817 5.9859 6.2805 5.9859h9.5234c3.4635 0 6.2805-2.6857 6.2805-5.9859 0-1.7026 1.456-3.09 3.2446-3.09 1.7869 0 3.2412 1.3873 3.2412 3.09 0 3.3002 2.8187 5.9859 6.2805 5.9859 1.7886 0 3.2429 1.3857 3.2429 3.09 0 3.2985 2.8187 5.9843 6.2805 5.9843 3.4635 0 6.2822-2.6857 6.2822-5.9843 0-1.7042 1.4543-3.09 3.2412-3.09 3.4635 0 6.2822-2.6857 6.2822-5.9859 0-3.2985-2.8187-5.9843-6.2822-5.9843-1.7869 0-3.2412-1.3857-3.2412-3.0883 0-1.7042 1.4543-3.0916 3.2412-3.0916" fill="#7b4b9d"/>
<path d="m178.55 17.181c-1.9328 0-3.5008-1.5054-3.5008-3.36 0-1.8562 1.568-3.36 3.5008-3.36 1.9328 0 3.4992 1.5038 3.4992 3.36 0 1.8546-1.5663 3.36-3.4992 3.36m0-1.8756c0.85358 0 1.5459-0.66456 1.5459-1.4843 0-0.81979-0.69236-1.4843-1.5459-1.4843-0.85358 0-1.5459 0.66456-1.5459 1.4843 0 0.81979 0.69236 1.4843 1.5459 1.4843" fill="#f0a023"/>
<g fill="#999">
<path d="m213.07 22.988c0.059393-1.3469 1.064-2.8393 3.0495-2.8393 1.9498 0 2.9273 1.549 2.9561 2.8393zm10.441 1.0639c0-4.0795-2.9833-6.8299-7.3004-6.8299-4.3086 0-7.8536 2.6372-7.8536 7.2746 0 4.6066 3.2785 7.273 7.7619 7.273 4.5258 0 6.4468-1.929 6.9287-2.3074l-1.8463-2.3058c-0.85188 0.52874-2.5064 1.3227-4.4359 1.3307-1.8802-0.0080847-3.4754-0.91519-3.696-2.9267h10.348c0.033939-0.0016169 0.093333-0.82302 0.093333-1.5086z"/>
<path d="m206.41 22.988c0-3.3357-1.3304-5.766-5.0824-5.766-2.1297 0-3.5789 0.84727-4.6192 2.5725-0.73479-1.9225-2.3299-2.5725-4.3425-2.5725-1.8616 0-3.2802 1.0753-3.9743 2.2184h-0.091637v-1.9516h-4.7125v13.925h4.7125v-7.184c0.01697-1.8902 0.7263-3.3034 2.4029-3.2824 1.5171-0.02102 1.9312 1.1658 1.9396 2.9267v7.5398h4.7125v-7.184c0.008485-1.8902 0.71782-3.3034 2.4029-3.2824 1.5968-0.02102 1.8921 1.3922 1.8463 2.9267v7.5398h4.8058z"/>
<path d="m180.91 18.6-4.7125 0.0097017v12.892h4.7125z"/>
<path d="m173.33 11.9h-15.339v3.6365h5.2674v15.878h4.8041v-15.878h5.2674z"/>
<path d="m151.52 31.415h4.7125v-19.515h-4.7125z"/>
<path d="m138.68 22.988c0.059394-1.3469 1.0657-2.8393 3.0495-2.8393 1.9515 0 2.9273 1.549 2.9578 2.8393zm10.441 1.0639c0-4.0795-2.9833-6.8299-7.2987-6.8299-4.3103 0-7.8553 2.6372-7.8553 7.2746 0 4.6066 3.2785 7.273 7.7619 7.273 4.5275 0 6.4468-1.929 6.9304-2.3074l-1.848-2.3058c-0.85018 0.52874-2.5047 1.3227-4.4359 1.3307-1.8802-0.0080847-3.4754-0.91519-3.696-2.9267h10.35c0.032243-0.0016169 0.091637-0.82302 0.091637-1.5086z"/>
<path d="m129.07 17.488-3.3261 8.8705-3.2344-8.8705h-4.9908l6.0073 14.014h4.4342l6.0073-14.014z"/>
<path d="m112.43 27.6c-0.29358 0.45274-1.1472 1.2418-2.4029 1.2418-1.305 0-2.2162-0.64839-2.2162-1.6848 0-1.0736 0.85358-1.6671 2.3096-1.6848l2.3096-0.17786zm2.9578-8.7816c-1.137-1.0009-2.6999-1.5959-5.4524-1.5959-2.6761 0-4.9501 0.8214-6.1905 1.4181l1.2015 2.9283c0.77721-0.43496 2.6371-1.2273 4.5275-1.2434 1.8565 0.016169 2.9493 0.78098 2.9561 2.2184v0.35411l-3.696 0.17786c-2.6558 0.072762-5.6356 1.1222-5.6356 4.2574 0 3.1029 2.7152 4.4353 5.2657 4.4353 2.3758 0 3.5568-1.1901 4.1593-1.7738l0.091637 1.4197h4.5275v-7.8066c0-2.3882-0.61939-3.7497-1.7547-4.7894z"/>
<path d="m103.1 17.488-0.27661 4.1685h-0.18497c-0.28-0.16493-0.90448-0.36381-1.7564-0.35411-1.047-0.0097016-1.8192 0.55623-2.2162 0.97501-0.31564 0.48508-0.70255 1.3906-0.73988 2.9267v6.2106h-4.7125v-13.927h4.7125v1.9516h0.091636c0.80776-1.5118 2.0245-2.2184 3.6044-2.2184 0.97406 0 1.4781 0.25548 1.4781 0.26679"/>
<path d="m94.23 11.9v3.6365h-5.2674v15.878h-4.8058v-15.878h-5.2657v-3.6365z"/>
<path d="m157.93 42.068c0-2.2427-0.86376-3.8321-3.2565-3.8321-1.4255 0-2.3656 0.55461-3.0478 1.6121-0.47006-1.1868-1.5069-1.6121-2.8373-1.6121-1.1828 0-2.1025 0.70175-2.6269 1.4116v0.10025-1.3113h-3.0461v9.0775h3.0461v-4.639c0.025454-1.2935 0.48533-2.2184 1.5765-2.2201 0.98085 0.0016169 1.249 0.77775 1.2608 1.9177v4.9414h3.0478v-4.639c0.011878-1.2935 0.47176-2.2184 1.5748-2.2201 1.0267 0.0016169 1.2184 0.9265 1.2625 1.9177v4.9414h3.0461z"/>
<path d="m142.07 38.437c0-0.035573-0.32752-0.20212-0.94521-0.20212-1.0368 0-1.8259 0.46244-2.4165 1.4132v-1.2111h-3.0461v9.0775h3.0461v-4.0343c0.032243-1.0316 0.28339-1.6218 0.52606-1.9161 0.21891-0.29752 0.71782-0.66779 1.3644-0.7066 0.58715 0.038806 0.99103 0.16978 1.1556 0.30237h0.10521z"/>
<path d="m129.35 45.295c-1.417 0-2.2078-1.0187-2.2078-2.3203 0-1.4019 0.79079-2.4206 2.2078-2.4206 1.2931 0 2.1008 1.0187 2.1008 2.4206 0 1.3016-0.80776 2.3203-2.1008 2.3203m-0.10521-7.0595c-2.9867 0-5.2538 1.8094-5.2538 4.7392 0 2.9477 2.2672 4.7409 5.2538 4.7409 3.0053 0 5.2538-1.7932 5.2538-4.7409 0-2.9299-2.2485-4.7392-5.2538-4.7392"/>
<path d="m124.31 34.705-0.10521 2.1182c-0.047515-0.024254-0.64315-0.1908-1.1556-0.2005-0.92994 0.0097016-1.159 0.50933-1.1556 1.2095v0.60473h1.9956v2.2184h-1.9956v6.859h-3.0461v-6.859h-1.2608v-2.2184h1.2608v-0.50448c-0.050909-1.0413 0.15952-1.929 0.73479-2.5208 0.53964-0.53844 1.4424-0.90872 2.6269-0.90872 1.2167 0 2.1008 0.24092 2.1008 0.20212"/>
<path d="m116.75 38.437h-2.1008v-2.5224h-3.0478v2.5224h-1.3661v2.2184h1.3661v3.5314c-0.023758 1.3809 0.1663 2.1392 0.62958 2.7229 0.49552 0.49155 1.2235 0.80685 2.313 0.80685 1.1132 0 1.9566-0.24092 2.2061-0.30237l-0.21042-2.3203c0.037333 0.0097017-0.40218 0.17786-0.84 0.20212-0.44461-0.024254-0.63636-0.098633-0.73648-0.20212-0.18667-0.21182-0.30206-0.39777-0.31394-1.2111v-3.2274h2.1008z"/>
<path d="m106.56 44.993c-0.19515 0.29105-0.75685 0.80685-1.5765 0.80685-0.86885 0-1.4713-0.42364-1.4713-1.1092 0-0.69528 0.56339-1.0817 1.4713-1.1108l1.5765-0.10025zm1.8904-5.7498c-0.7263-0.61929-1.7445-1.0074-3.4669-1.0074-1.8107 0-3.2887 0.53521-4.0982 0.9071l0.84 1.9161c0.4497-0.27326 1.6596-0.79068 2.8373-0.80685 1.2592 0.016169 1.9719 0.51419 1.9973 1.5135v0.2005l-2.4165 0.10187c-1.7394 0.029105-3.6773 0.71307-3.6773 2.7229 0 2.0567 1.7665 2.925 3.4669 2.925 1.5052 0 2.2739-0.77613 2.6269-1.2095l0.10521 1.0074h2.9408v-5.1435c0-1.5296-0.40388-2.4173-1.1556-3.1272z"/>
<path d="m96.048 47.414h3.0461v-12.709h-3.0461z"/>
<path d="m89.009 45.295c-1.3084 0-2.2061-0.96369-2.2061-2.3203 0-1.4569 0.8977-2.4206 2.2061-2.4206 1.3084 0 2.2061 0.96369 2.2061 2.4206 0 1.3566-0.8977 2.3203-2.2061 2.3203m1.3661-7.0595c-1.4628 0-2.4776 0.53359-3.153 1.3097v-1.1092h-2.9408v12.407h3.0461v-4.4385c0.60921 0.802 1.6036 1.3 3.0478 1.3113 2.6897-0.011318 4.4121-2.0794 4.4121-4.7409 0-2.6906-1.7224-4.7392-4.4121-4.7392"/>
</g>
<g fill="#f0a023">
<path d="m47.511 1.6169h-0.037333c-8.047 0-14.572 6.2171-14.572 13.885 0 0.78745 0.040727 1.5458 0.11709 2.2831 0.77721 7.3862 5.3947 12.404 12.872 17.625 0.36655 0.25548 1.0691 0.62252 1.6019 0.62252 0.62448 0 1.047-0.26518 1.5137-0.6209 8.1047-6.1686 13.077-11.238 13.077-19.909 0-0.40423-0.018667-0.80523-0.054303-1.2014-0.63976-7.1064-6.8948-12.683-14.518-12.683m0 2.925c5.9207 0 10.954 4.3964 11.46 10.009 0.028848 0.32015 0.042424 0.64192 0.042424 0.95076 0 7.121-3.8979 11.475-11.575 17.361-7.5719-5.3359-10.764-9.6612-11.365-15.369-0.067879-0.65001-0.10182-1.321-0.10182-1.9921 0-6.0425 5.1588-10.96 11.502-10.96z"/>
<path d="m49.422 7.8446c-3.4669 0-6.2771 2.6776-6.2771 5.9794 0 3.3034 2.8102 5.981 6.2771 5.981 3.4652 0 6.2754-2.6776 6.2754-5.981 0-3.3018-2.8102-5.9794-6.2754-5.9794m0 1.895c2.3639 0 4.2865 1.832 4.2865 4.0844 0 2.254-1.9227 4.086-4.2865 4.086-2.3639 0-4.2882-1.832-4.2882-4.086 0-2.2524 1.9244-4.0844 4.2882-4.0844"/>
</g>
</g>
</svg>
